<mxfile host="Electron" agent="Mozilla/5.0 (Windows NT 10.0; Win64; x64) AppleWebKit/537.36 (KHTML, like Gecko) draw.io/27.0.2 Chrome/134.0.6998.205 Electron/35.3.0 Safari/537.36" version="27.0.2" pages="2">
  <diagram id="9g0ydSxig5uD2rRH_lJp" name="Page-18">
    <mxGraphModel dx="3565" dy="2233" grid="1" gridSize="10" guides="1" tooltips="1" connect="1" arrows="1" fold="1" page="1" pageScale="1" pageWidth="2450" pageHeight="1500" math="1" shadow="0">
      <root>
        <mxCell id="0" />
        <mxCell id="1" parent="0" />
        <mxCell id="7gxnt0o_ZUt5ezwkwLJv-21" value="" style="endArrow=none;html=1;rounded=1;strokeWidth=3;startFill=0;edgeStyle=orthogonalEdgeStyle;curved=0;fillColor=#d0cee2;strokeColor=#56517e;sketch=1;curveFitting=1;jiggle=2;shape=link;" parent="1" edge="1">
          <mxGeometry width="50" height="50" relative="1" as="geometry">
            <mxPoint x="548" y="750" as="sourcePoint" />
            <mxPoint x="548" y="40" as="targetPoint" />
            <Array as="points">
              <mxPoint x="548" y="620" />
              <mxPoint x="548" y="620" />
            </Array>
          </mxGeometry>
        </mxCell>
        <mxCell id="zax4d3Q_WIV-LogG5g34-5" value="" style="group" parent="1" vertex="1" connectable="0">
          <mxGeometry x="578" y="110" width="279.5" height="191" as="geometry" />
        </mxCell>
        <mxCell id="zax4d3Q_WIV-LogG5g34-3" value="Accepted" style="text;html=1;align=center;verticalAlign=middle;whiteSpace=wrap;rounded=0;fontFamily=Mina;fontStyle=1" parent="zax4d3Q_WIV-LogG5g34-5" vertex="1">
          <mxGeometry x="108.31999999999994" y="170" width="62.86" height="21" as="geometry" />
        </mxCell>
        <mxCell id="B-j-n24swWekdYMt7R02-1" value="`D+ = i / N - R`" style="rounded=1;whiteSpace=wrap;html=1;hachureGap=4;fontFamily=Mina;strokeWidth=2;fillColor=#b1ddf0;strokeColor=default;fontSize=13;fontStyle=1;labelBorderColor=none;textShadow=0;labelBackgroundColor=none;align=left;spacing=7;verticalAlign=middle;" parent="zax4d3Q_WIV-LogG5g34-5" vertex="1">
          <mxGeometry y="50" width="128" height="51.22" as="geometry" />
        </mxCell>
        <mxCell id="B-j-n24swWekdYMt7R02-2" value="`D- = R - {i - 1}/N`" style="rounded=1;whiteSpace=wrap;html=1;hachureGap=4;fontFamily=Mina;strokeWidth=2;fillColor=#d0cee2;strokeColor=default;fontSize=13;fontStyle=1;labelBorderColor=none;textShadow=0;labelBackgroundColor=none;align=left;spacing=7;verticalAlign=middle;" parent="zax4d3Q_WIV-LogG5g34-5" vertex="1">
          <mxGeometry x="150" y="50" width="129.5" height="51.22" as="geometry" />
        </mxCell>
        <mxCell id="B-j-n24swWekdYMt7R02-6" value="`D = max(D+, D-)`" style="rounded=1;whiteSpace=wrap;html=1;hachureGap=4;fontFamily=Mina;strokeWidth=2;fillColor=#e1d5e7;strokeColor=#000000;fontSize=14;fontStyle=1;labelBorderColor=none;textShadow=0;labelBackgroundColor=none;align=left;spacing=7;verticalAlign=middle;" parent="zax4d3Q_WIV-LogG5g34-5" vertex="1">
          <mxGeometry y="121.22000000000003" width="160" height="40" as="geometry" />
        </mxCell>
        <mxCell id="zax4d3Q_WIV-LogG5g34-1" value="`D &amp;lt; D_\alpha`&amp;nbsp;" style="rounded=1;whiteSpace=wrap;html=1;hachureGap=4;fontFamily=Mina;strokeWidth=2;fillColor=#e1d5e7;strokeColor=#000000;fontSize=18;fontStyle=1;labelBorderColor=none;textShadow=0;labelBackgroundColor=none;align=left;spacing=7;verticalAlign=middle;textDirection=ltr;" parent="zax4d3Q_WIV-LogG5g34-5" vertex="1">
          <mxGeometry x="180" y="121.22" width="99.5" height="40" as="geometry" />
        </mxCell>
        <mxCell id="zax4d3Q_WIV-LogG5g34-4" value="KST" style="rounded=1;whiteSpace=wrap;html=1;hachureGap=4;fontFamily=Mali;strokeWidth=2;fillColor=#2F2CB7;strokeColor=default;fontSize=22;fontStyle=1;labelBorderColor=none;textShadow=0;labelBackgroundColor=none;align=center;spacing=5;verticalAlign=middle;spacingTop=0;spacingRight=2;container=0;fontSource=https%3A%2F%2Ffonts.googleapis.com%2Fcss%3Ffamily%3DMali;fontColor=#FAFAF9;" parent="zax4d3Q_WIV-LogG5g34-5" vertex="1">
          <mxGeometry x="109.25" width="61" height="40" as="geometry" />
        </mxCell>
        <mxCell id="dvrSfEiB3N1O59Cisq4t-22" value="" style="group" parent="1" vertex="1" connectable="0">
          <mxGeometry x="148" y="100" width="281" height="80" as="geometry" />
        </mxCell>
        <mxCell id="dvrSfEiB3N1O59Cisq4t-20" value="LCM" style="rounded=1;whiteSpace=wrap;html=1;hachureGap=4;fontFamily=Mali;strokeWidth=2;fillColor=#76608a;strokeColor=default;fontSize=22;fontStyle=1;labelBorderColor=none;textShadow=0;labelBackgroundColor=none;align=center;spacing=5;verticalAlign=middle;spacingTop=0;spacingRight=2;fontColor=#ffffff;container=0;fontSource=https%3A%2F%2Ffonts.googleapis.com%2Fcss%3Ffamily%3DMali;" parent="dvrSfEiB3N1O59Cisq4t-22" vertex="1">
          <mxGeometry x="101" width="79" height="40" as="geometry" />
        </mxCell>
        <mxCell id="dvrSfEiB3N1O59Cisq4t-21" value="" style="group" parent="dvrSfEiB3N1O59Cisq4t-22" vertex="1" connectable="0">
          <mxGeometry y="40" width="281" height="40" as="geometry" />
        </mxCell>
        <mxCell id="dvrSfEiB3N1O59Cisq4t-2" value="&lt;font face=&quot;Mali&quot;&gt;`X_1 = (a \cdot X_\circ + c) % m`&lt;/font&gt;" style="rounded=1;whiteSpace=wrap;html=1;hachureGap=4;fontFamily=Mina;strokeWidth=2;fillColor=#e1d5e7;strokeColor=default;fontSize=16;fontStyle=1;labelBorderColor=none;textShadow=0;labelBackgroundColor=none;align=left;spacing=7;verticalAlign=middle;" parent="dvrSfEiB3N1O59Cisq4t-21" vertex="1">
          <mxGeometry width="181" height="40" as="geometry" />
        </mxCell>
        <mxCell id="dvrSfEiB3N1O59Cisq4t-10" value="&lt;font face=&quot;Mali&quot;&gt;`R_1 = X_1/m`&lt;/font&gt;" style="rounded=1;whiteSpace=wrap;html=1;hachureGap=4;fontFamily=Mina;strokeWidth=2;fillColor=#e1d5e7;strokeColor=default;fontSize=14;fontStyle=1;labelBorderColor=none;textShadow=0;labelBackgroundColor=none;align=left;spacing=7;verticalAlign=middle;" parent="dvrSfEiB3N1O59Cisq4t-21" vertex="1">
          <mxGeometry x="181" width="100" height="40" as="geometry" />
        </mxCell>
        <mxCell id="7gxnt0o_ZUt5ezwkwLJv-18" value="Random Numbers Generator" style="shape=hexagon;perimeter=hexagonPerimeter2;whiteSpace=wrap;fixedSize=1;size=16;fillColor=#90D2D8;strokeColor=default;fontFamily=Mali;fontSize=20;strokeWidth=2;align=center;spacingLeft=0;spacingBottom=5;fillStyle=hachure;fontStyle=1;rounded=1;arcSize=14;fontSource=https%3A%2F%2Ffonts.googleapis.com%2Fcss%3Ffamily%3DMali;" parent="1" vertex="1">
          <mxGeometry x="118" y="40" width="320" height="40" as="geometry" />
        </mxCell>
        <mxCell id="IX4B-xjIrUyXLRd2R3YT-2" value="" style="group" parent="1" vertex="1" connectable="0">
          <mxGeometry x="48" y="210" width="480" height="300" as="geometry" />
        </mxCell>
        <mxCell id="7gxnt0o_ZUt5ezwkwLJv-16" value="CLCM" style="rounded=1;whiteSpace=wrap;html=1;hachureGap=4;fontFamily=Mali;strokeWidth=2;fillColor=#647687;strokeColor=#314354;fontSize=22;fontStyle=1;labelBorderColor=none;textShadow=0;labelBackgroundColor=none;align=center;spacing=5;verticalAlign=middle;spacingTop=0;spacingRight=2;fontColor=#ffffff;container=0;fontSource=https%3A%2F%2Ffonts.googleapis.com%2Fcss%3Ffamily%3DMali;" parent="IX4B-xjIrUyXLRd2R3YT-2" vertex="1">
          <mxGeometry x="200.5" width="79" height="40" as="geometry" />
        </mxCell>
        <mxCell id="7gxnt0o_ZUt5ezwkwLJv-12" value="Period = `\frac{(m_1 - 1)(m_2 - 1) \cdots}{2^{k-1}}`" style="text;html=1;align=center;verticalAlign=middle;whiteSpace=wrap;rounded=1;fontFamily=Mina;fontStyle=1;fontSize=18;fillColor=#f8cecc;strokeColor=#000000;strokeWidth=2;" parent="IX4B-xjIrUyXLRd2R3YT-2" vertex="1">
          <mxGeometry x="90.81" y="230" width="298.38" height="70" as="geometry" />
        </mxCell>
        <mxCell id="7gxnt0o_ZUt5ezwkwLJv-2" value="&lt;font face=&quot;Mali&quot;&gt;`X_{1,j} = (a_j \cdot X_{\circ,j} + c_j) % m_j`&lt;/font&gt;" style="rounded=1;whiteSpace=wrap;html=1;hachureGap=4;fontFamily=Mina;strokeWidth=2;fillColor=#e1d5e7;strokeColor=default;fontSize=16;fontStyle=1;labelBorderColor=none;textShadow=0;labelBackgroundColor=none;align=left;spacing=7;verticalAlign=middle;" parent="IX4B-xjIrUyXLRd2R3YT-2" vertex="1">
          <mxGeometry x="125" y="60" width="230" height="40" as="geometry" />
        </mxCell>
        <mxCell id="7gxnt0o_ZUt5ezwkwLJv-11" value="&lt;font face=&quot;Mali&quot;&gt;\[ R_{i+1} = \begin{cases} \frac{X_{i+1}}{m_1}, &amp;amp; x &amp;gt; 0 \\ \frac{m_1 - 1} {m_1}, &amp;amp; x=0 \end{cases} \]&lt;/font&gt;" style="rounded=1;whiteSpace=wrap;html=1;hachureGap=4;fontFamily=Mina;strokeWidth=2;fillColor=#fff2cc;strokeColor=default;fontSize=18;fontStyle=1;labelBorderColor=none;textShadow=0;labelBackgroundColor=none;align=left;spacing=7;verticalAlign=middle;" parent="IX4B-xjIrUyXLRd2R3YT-2" vertex="1">
          <mxGeometry x="250" y="119" width="230" height="90" as="geometry" />
        </mxCell>
        <mxCell id="7gxnt0o_ZUt5ezwkwLJv-10" value="&lt;font face=&quot;Mali&quot;&gt;`X_{i+1} =`&lt;br&gt;`(x_{i+1, 1} - x_{i + 1,2} \cdots) mod m_1 -1`&lt;/font&gt;" style="rounded=1;whiteSpace=wrap;html=1;hachureGap=4;fontFamily=Mina;strokeWidth=2;fillColor=#d5e8d4;strokeColor=default;fontSize=14;fontStyle=1;labelBorderColor=none;textShadow=0;labelBackgroundColor=none;align=left;spacing=7;verticalAlign=middle;" parent="IX4B-xjIrUyXLRd2R3YT-2" vertex="1">
          <mxGeometry y="119" width="230" height="90" as="geometry" />
        </mxCell>
        <mxCell id="YstUvqQrjfVLt6HLlEIH-4" value="" style="group" parent="1" vertex="1" connectable="0">
          <mxGeometry x="918" y="120" width="240.03999999999996" height="155" as="geometry" />
        </mxCell>
        <mxCell id="LwSikEgE8t5lrLrFluaX-1" value="`\chi_{\circ}^2 = \sum_{i=1}^k {(O_i - E_i)^2}/E_i`" style="rounded=1;whiteSpace=wrap;html=1;hachureGap=4;fontFamily=Mina;strokeWidth=2;fillColor=#ECE1F9;strokeColor=default;fontSize=13;fontStyle=1;labelBorderColor=none;textShadow=0;labelBackgroundColor=none;align=left;spacing=7;verticalAlign=middle;" parent="YstUvqQrjfVLt6HLlEIH-4" vertex="1">
          <mxGeometry y="47.72000000000003" width="152" height="54.55" as="geometry" />
        </mxCell>
        <mxCell id="LwSikEgE8t5lrLrFluaX-2" value="`E = N / n`" style="rounded=1;whiteSpace=wrap;html=1;hachureGap=4;fontFamily=Mina;strokeWidth=2;fillColor=#B7DED2;strokeColor=default;fontSize=13;fontStyle=1;labelBorderColor=none;textShadow=0;labelBackgroundColor=none;align=left;spacing=7;verticalAlign=middle;" parent="YstUvqQrjfVLt6HLlEIH-4" vertex="1">
          <mxGeometry x="170.03999999999996" y="47.72000000000003" width="70" height="54.55" as="geometry" />
        </mxCell>
        <mxCell id="LwSikEgE8t5lrLrFluaX-3" value="Chi-Test" style="rounded=1;whiteSpace=wrap;html=1;hachureGap=4;fontFamily=Mali;strokeWidth=2;fillColor=#6d8764;strokeColor=default;fontSize=22;fontStyle=1;labelBorderColor=none;textShadow=0;labelBackgroundColor=none;align=center;spacing=5;verticalAlign=middle;spacingTop=0;spacingRight=2;container=0;fontSource=https%3A%2F%2Ffonts.googleapis.com%2Fcss%3Ffamily%3DMali;fontColor=#ffffff;" parent="YstUvqQrjfVLt6HLlEIH-4" vertex="1">
          <mxGeometry x="61.51999999999998" width="117" height="40" as="geometry" />
        </mxCell>
        <mxCell id="yFWoSplsLA5ye_K9q_h5-1" value="`\chi_{\circ}^2 &amp;lt; \chi_{\alpha}^2` Accepted" style="rounded=1;whiteSpace=wrap;html=1;hachureGap=4;fontFamily=Mina;strokeWidth=2;fillColor=#ACF3E4;strokeColor=default;fontSize=18;fontStyle=1;labelBorderColor=none;textShadow=0;labelBackgroundColor=none;align=center;spacing=7;verticalAlign=middle;textDirection=ltr;" parent="YstUvqQrjfVLt6HLlEIH-4" vertex="1">
          <mxGeometry y="115" width="240" height="40" as="geometry" />
        </mxCell>
        <mxCell id="YstUvqQrjfVLt6HLlEIH-5" value="" style="group" parent="1" vertex="1" connectable="0">
          <mxGeometry x="628" y="300" width="502.75" height="184" as="geometry" />
        </mxCell>
        <mxCell id="ehAb3_l1PH71oOjz6b9X-1" value="Gap" style="rounded=1;whiteSpace=wrap;html=1;hachureGap=4;fontFamily=Mali;strokeWidth=2;fillColor=#a0522d;strokeColor=default;fontSize=22;fontStyle=1;labelBorderColor=none;textShadow=0;labelBackgroundColor=none;align=center;spacing=5;verticalAlign=middle;spacingTop=0;spacingRight=2;fontColor=#ffffff;container=0;fontSource=https%3A%2F%2Ffonts.googleapis.com%2Fcss%3Ffamily%3DMali;" parent="YstUvqQrjfVLt6HLlEIH-5" vertex="1">
          <mxGeometry x="211.87" width="79" height="40" as="geometry" />
        </mxCell>
        <mxCell id="ehAb3_l1PH71oOjz6b9X-2" value="" style="group" parent="YstUvqQrjfVLt6HLlEIH-5" vertex="1" connectable="0">
          <mxGeometry y="60" width="502.75" height="124" as="geometry" />
        </mxCell>
        <mxCell id="RtzpsCHZ9frWTv9Ma5dH-1" value="&lt;font&gt;&lt;span&gt;`D = max |F(x)-S_n(x)|`&lt;/span&gt;&lt;/font&gt;" style="rounded=1;whiteSpace=wrap;html=1;strokeWidth=2;fillColor=#ffcc99;strokeColor=default;fontSize=18;fontFamily=Mali;fontSource=https://fonts.googleapis.com/css?family=Mali;fontStyle=0;fontColor=default;" parent="ehAb3_l1PH71oOjz6b9X-2" vertex="1">
          <mxGeometry y="79" width="230" height="45" as="geometry" />
        </mxCell>
        <mxCell id="Keb-NBLOCU_D7QsizyNm-2" value="`F(x) = 0.1 - \sum_{n=0}^{x} (0.9)^n `" style="rounded=1;whiteSpace=wrap;html=1;strokeWidth=2;fillColor=#ffcc99;strokeColor=default;fontSize=16;" parent="ehAb3_l1PH71oOjz6b9X-2" vertex="1">
          <mxGeometry x="280" width="222.75" height="70" as="geometry" />
        </mxCell>
        <mxCell id="Keb-NBLOCU_D7QsizyNm-3" value="&lt;b&gt;`P (&quot;Gap of X&quot;) =(0.9)^{x}*(0.1)`&amp;nbsp;&lt;/b&gt;" style="rounded=1;whiteSpace=wrap;html=1;strokeWidth=2;fillColor=#ffcc99;strokeColor=default;fontFamily=Mina;fontSize=16;" parent="ehAb3_l1PH71oOjz6b9X-2" vertex="1">
          <mxGeometry width="256" height="43.75" as="geometry" />
        </mxCell>
        <mxCell id="EfpCp55drl5DyvJ_OeTe-2" style="edgeStyle=orthogonalEdgeStyle;rounded=1;orthogonalLoop=1;jettySize=auto;html=1;curved=0;" parent="ehAb3_l1PH71oOjz6b9X-2" source="EfpCp55drl5DyvJ_OeTe-1" edge="1">
          <mxGeometry relative="1" as="geometry">
            <mxPoint x="188" y="90.05084745762724" as="targetPoint" />
            <Array as="points">
              <mxPoint x="188" y="69" />
            </Array>
          </mxGeometry>
        </mxCell>
        <mxCell id="EfpCp55drl5DyvJ_OeTe-1" value="Com. Freq." style="text;html=1;align=center;verticalAlign=middle;whiteSpace=wrap;rounded=0;fontFamily=Mina;fontStyle=1" parent="ehAb3_l1PH71oOjz6b9X-2" vertex="1">
          <mxGeometry x="240" y="59" width="30" height="25" as="geometry" />
        </mxCell>
        <mxCell id="EfpCp55drl5DyvJ_OeTe-3" value="&lt;span style=&quot;font-family: Mali; font-size: 18px;&quot;&gt;Accepted `D_{alpha}gt D`&lt;/span&gt;" style="rounded=1;whiteSpace=wrap;html=1;strokeWidth=2;fillColor=#ffcc99;strokeColor=default;fontSize=16;" parent="ehAb3_l1PH71oOjz6b9X-2" vertex="1">
          <mxGeometry x="280" y="84" width="222.75" height="40" as="geometry" />
        </mxCell>
        <mxCell id="pSk2kCXWLfOki3y-mZHg-3" value="" style="group" parent="1" vertex="1" connectable="0">
          <mxGeometry x="808" y="510" width="357.9499999999998" height="200" as="geometry" />
        </mxCell>
        <mxCell id="YstUvqQrjfVLt6HLlEIH-3" value="&lt;b&gt;`Z_0=frac{a-mu_a}{sigma_a}`&lt;/b&gt;" style="rounded=1;whiteSpace=wrap;html=1;strokeWidth=2;fillColor=#ffff88;strokeColor=default;fontFamily=Mina;fontSize=16;arcSize=9;" parent="pSk2kCXWLfOki3y-mZHg-3" vertex="1">
          <mxGeometry x="113.97000000000003" y="140" width="130" height="60" as="geometry" />
        </mxCell>
        <mxCell id="YstUvqQrjfVLt6HLlEIH-6" value="Run Test" style="rounded=1;whiteSpace=wrap;html=1;hachureGap=4;fontFamily=Mali;strokeWidth=2;fillColor=#BDA700;strokeColor=default;fontSize=22;fontStyle=1;labelBorderColor=none;textShadow=0;labelBackgroundColor=none;align=center;spacing=5;verticalAlign=middle;spacingTop=0;spacingRight=2;fontColor=#000000;container=0;fontSource=https%3A%2F%2Ffonts.googleapis.com%2Fcss%3Ffamily%3DMali;" parent="pSk2kCXWLfOki3y-mZHg-3" vertex="1">
          <mxGeometry x="120.34000000000003" width="117.26" height="40" as="geometry" />
        </mxCell>
        <mxCell id="pSk2kCXWLfOki3y-mZHg-2" value="" style="group" parent="pSk2kCXWLfOki3y-mZHg-3" vertex="1" connectable="0">
          <mxGeometry y="60" width="357.9499999999998" height="60" as="geometry" />
        </mxCell>
        <mxCell id="YstUvqQrjfVLt6HLlEIH-1" value="&lt;b&gt;`mu_a = {2N-1}/{3}`&lt;/b&gt;" style="rounded=1;whiteSpace=wrap;html=1;strokeWidth=2;fillColor=#ffff88;strokeColor=default;fontFamily=Mina;fontSize=16;arcSize=9;" parent="pSk2kCXWLfOki3y-mZHg-2" vertex="1">
          <mxGeometry width="144" height="60" as="geometry" />
        </mxCell>
        <mxCell id="YstUvqQrjfVLt6HLlEIH-2" value="&lt;b&gt;`sigma_a =sqrt{ frac{16N-29}{90}}`&lt;/b&gt;" style="rounded=1;whiteSpace=wrap;html=1;strokeWidth=2;fillColor=#ffff88;strokeColor=default;fontFamily=Mina;fontSize=16;arcSize=9;" parent="pSk2kCXWLfOki3y-mZHg-2" vertex="1">
          <mxGeometry x="164.2299999999999" width="193.72" height="60" as="geometry" />
        </mxCell>
        <mxCell id="pSk2kCXWLfOki3y-mZHg-4" value="" style="group" parent="1" vertex="1" connectable="0">
          <mxGeometry x="598" y="510" width="170" height="167.2800000000002" as="geometry" />
        </mxCell>
        <mxCell id="PoTq5m0jKQ393PqYS1rh-2" value="`\x_{circ} = \sum_{i=1}^k {(O_i - E_i)^2}/E_i`" style="rounded=1;whiteSpace=wrap;html=1;hachureGap=4;fontFamily=Mina;strokeWidth=2;fillColor=#ECE1F9;strokeColor=default;fontSize=13;fontStyle=1;labelBorderColor=none;textShadow=0;labelBackgroundColor=none;align=center;spacing=7;verticalAlign=middle;" parent="pSk2kCXWLfOki3y-mZHg-4" vertex="1">
          <mxGeometry y="60" width="170" height="54.55" as="geometry" />
        </mxCell>
        <mxCell id="PoTq5m0jKQ393PqYS1rh-4" value="Poker" style="rounded=1;whiteSpace=wrap;html=1;hachureGap=4;fontFamily=Mali;strokeWidth=2;fillColor=#647687;strokeColor=default;fontSize=22;fontStyle=1;labelBorderColor=none;textShadow=0;labelBackgroundColor=none;align=center;spacing=5;verticalAlign=middle;spacingTop=0;spacingRight=2;container=0;fontSource=https%3A%2F%2Ffonts.googleapis.com%2Fcss%3Ffamily%3DMali;fontColor=#ffffff;" parent="pSk2kCXWLfOki3y-mZHg-4" vertex="1">
          <mxGeometry x="26.5" width="117" height="40" as="geometry" />
        </mxCell>
        <mxCell id="PoTq5m0jKQ393PqYS1rh-5" value="`\x_{\circ} &amp;lt; \x_{\alpha}` Accepted" style="rounded=1;whiteSpace=wrap;html=1;hachureGap=4;fontFamily=Mina;strokeWidth=2;fillColor=#ACF3E4;strokeColor=default;fontSize=18;fontStyle=1;labelBorderColor=none;textShadow=0;labelBackgroundColor=none;align=center;spacing=7;verticalAlign=middle;textDirection=ltr;" parent="pSk2kCXWLfOki3y-mZHg-4" vertex="1">
          <mxGeometry y="127.2800000000002" width="170" height="40" as="geometry" />
        </mxCell>
        <mxCell id="pSk2kCXWLfOki3y-mZHg-8" value="" style="group" parent="1" vertex="1" connectable="0">
          <mxGeometry x="1218" y="130" width="440" height="400" as="geometry" />
        </mxCell>
        <mxCell id="pSk2kCXWLfOki3y-mZHg-6" value="" style="group" parent="pSk2kCXWLfOki3y-mZHg-8" vertex="1" connectable="0">
          <mxGeometry y="50" width="440" height="350" as="geometry" />
        </mxCell>
        <mxCell id="GmErV74D8YAEA2j7ndSq-2" value="" style="group" parent="pSk2kCXWLfOki3y-mZHg-6" vertex="1" connectable="0">
          <mxGeometry y="70" width="440" height="180" as="geometry" />
        </mxCell>
        <mxCell id="GmErV74D8YAEA2j7ndSq-3" value="`Z_0 = \frac{\rho_{im}^{\hat{}}}{\sigma_{\rho_{im}^{\hat{}}}^{\hat{}}}`" style="rounded=1;whiteSpace=wrap;html=1;strokeWidth=2;fillColor=#cce5ff;strokeColor=default;fontSize=18;arcSize=8;" parent="GmErV74D8YAEA2j7ndSq-2" vertex="1">
          <mxGeometry width="142" height="80" as="geometry" />
        </mxCell>
        <mxCell id="GmErV74D8YAEA2j7ndSq-4" value="`\rho_{im}^{\hat{}}&amp;nbsp;= \frac{1}{M+1} * \left[ \sum_{k=0}^{M} R_{i+km} \cdot R_{i+(k+1)m} \right] - 0.25&lt;br&gt;`" style="rounded=1;whiteSpace=wrap;html=1;strokeWidth=2;fillColor=#cce5ff;strokeColor=default;arcSize=8;fontSize=18;" parent="GmErV74D8YAEA2j7ndSq-2" vertex="1">
          <mxGeometry y="100" width="440" height="80" as="geometry" />
        </mxCell>
        <mxCell id="GmErV74D8YAEA2j7ndSq-5" value="`\sigma_{\rho_{im}^{\hat{}}}^{\hat{}}=frac{sqrt{13M + 7}}{12(M+1)}`" style="rounded=1;whiteSpace=wrap;html=1;strokeWidth=2;fillColor=#cce5ff;strokeColor=default;arcSize=8;fontSize=18;" parent="GmErV74D8YAEA2j7ndSq-2" vertex="1">
          <mxGeometry x="247" width="193" height="80" as="geometry" />
        </mxCell>
        <mxCell id="GmErV74D8YAEA2j7ndSq-6" value="`Z_{-alpha}&amp;lt;Z_0&amp;lt;Z_{alpha}` Accepted" style="rounded=1;whiteSpace=wrap;html=1;strokeWidth=2;fillColor=#cce5ff;strokeColor=default;arcSize=8;fontSize=18;fontFamily=Mali;fontSource=https%3A%2F%2Ffonts.googleapis.com%2Fcss%3Ffamily%3DMali;fontStyle=1" parent="pSk2kCXWLfOki3y-mZHg-6" vertex="1">
          <mxGeometry x="80" y="280" width="280" height="50" as="geometry" />
        </mxCell>
        <mxCell id="pSk2kCXWLfOki3y-mZHg-1" value="`M=i+(M+1) * m le N`" style="rounded=1;whiteSpace=wrap;html=1;hachureGap=4;strokeWidth=2;fillColor=#cce5ff;strokeColor=#000000;textShadow=0;align=center;spacing=7;verticalAlign=middle;spacingBottom=0;fontSize=16;" parent="pSk2kCXWLfOki3y-mZHg-6" vertex="1">
          <mxGeometry x="106" y="20" width="228" height="40" as="geometry" />
        </mxCell>
        <mxCell id="pSk2kCXWLfOki3y-mZHg-7" value="Auto Correlation" style="rounded=1;whiteSpace=wrap;html=1;hachureGap=4;strokeWidth=2;fillColor=#0050ef;strokeColor=default;textShadow=0;align=center;spacing=7;verticalAlign=middle;spacingBottom=0;fontSize=19;fontColor=#ffffff;fontFamily=Mali;fontSource=https%3A%2F%2Ffonts.googleapis.com%2Fcss%3Ffamily%3DMali;fontStyle=1" parent="pSk2kCXWLfOki3y-mZHg-8" vertex="1">
          <mxGeometry x="106" width="228" height="40" as="geometry" />
        </mxCell>
        <mxCell id="pSk2kCXWLfOki3y-mZHg-9" value="Testing Random Generators" style="shape=hexagon;perimeter=hexagonPerimeter2;whiteSpace=wrap;fixedSize=1;size=16;fillColor=#d80073;strokeColor=default;fontFamily=Mali;fontSize=29;strokeWidth=2;align=center;spacingLeft=0;spacingBottom=5;fillStyle=hachure;fontStyle=1;rounded=1;arcSize=14;fontSource=https%3A%2F%2Ffonts.googleapis.com%2Fcss%3Ffamily%3DMali;fontColor=#ffffff;" parent="1" vertex="1">
          <mxGeometry x="698" y="40" width="878.62" height="40" as="geometry" />
        </mxCell>
        <mxCell id="0JTFXIvz4OhJbL4BshzC-1" value="" style="endArrow=none;html=1;rounded=1;strokeWidth=3;startFill=0;edgeStyle=orthogonalEdgeStyle;curved=0;fillColor=#d0cee2;strokeColor=#56517e;sketch=1;curveFitting=1;jiggle=2;shape=link;" parent="1" edge="1">
          <mxGeometry width="50" height="50" relative="1" as="geometry">
            <mxPoint x="1688" y="750" as="sourcePoint" />
            <mxPoint x="1688" y="40" as="targetPoint" />
            <Array as="points">
              <mxPoint x="1688" y="620" />
              <mxPoint x="1688" y="620" />
            </Array>
          </mxGeometry>
        </mxCell>
        <mxCell id="5tuGqtoRHYsWDNf3iYkU-1" value="Pursuit" style="rounded=1;whiteSpace=wrap;html=1;hachureGap=4;fontFamily=Mali;strokeWidth=2;fillColor=#008a00;strokeColor=default;fontSize=22;fontStyle=1;labelBorderColor=none;textShadow=0;labelBackgroundColor=none;align=center;spacing=5;verticalAlign=middle;spacingTop=0;spacingRight=2;container=0;fontSource=https%3A%2F%2Ffonts.googleapis.com%2Fcss%3Ffamily%3DMali;fontColor=#ffffff;" parent="1" vertex="1">
          <mxGeometry x="1967.5" y="110" width="117" height="40" as="geometry" />
        </mxCell>
        <mxCell id="5tuGqtoRHYsWDNf3iYkU-2" value="" style="group" parent="1" vertex="1" connectable="0">
          <mxGeometry x="1708" y="170" width="636" height="113" as="geometry" />
        </mxCell>
        <UserObject label="`\&quot;Dist&quot; = sqrt{(X_B - X_F)^2 + (Y_B - Y_F)^2}`" id="0JTFXIvz4OhJbL4BshzC-2">
          <mxCell style="rounded=1;whiteSpace=wrap;html=1;arcSize=8;strokeWidth=2;fillColor=#cdeb8b;strokeColor=default;fontSize=14;" parent="5tuGqtoRHYsWDNf3iYkU-2" vertex="1">
            <mxGeometry width="280" height="46" as="geometry" />
          </mxCell>
        </UserObject>
        <UserObject label="`\sin(theta) = {Y_B - Y_F}/{&quot;Dist&quot;}`" id="0JTFXIvz4OhJbL4BshzC-3">
          <mxCell style="rounded=1;whiteSpace=wrap;html=1;arcSize=8;strokeWidth=2;fillColor=#cdeb8b;strokeColor=default;fontSize=14;" parent="5tuGqtoRHYsWDNf3iYkU-2" vertex="1">
            <mxGeometry x="292" width="160" height="46" as="geometry" />
          </mxCell>
        </UserObject>
        <UserObject label="`\cos(\theta) = {X_B - X_F}/{&quot;Dist&quot;}`" id="0JTFXIvz4OhJbL4BshzC-4">
          <mxCell style="rounded=1;whiteSpace=wrap;html=1;arcSize=8;strokeWidth=2;fillColor=#cdeb8b;strokeColor=default;align=center;fontSize=14;" parent="5tuGqtoRHYsWDNf3iYkU-2" vertex="1">
            <mxGeometry x="466.34000000000015" width="169.66" height="46" as="geometry" />
          </mxCell>
        </UserObject>
        <UserObject label="`X_F(t+1) = X_F(t) + V_F \cdot \cos(\theta)`" id="0JTFXIvz4OhJbL4BshzC-5">
          <mxCell style="rounded=1;whiteSpace=wrap;html=1;arcSize=8;strokeWidth=2;fillColor=#cdeb8b;strokeColor=default;fontSize=16;" parent="5tuGqtoRHYsWDNf3iYkU-2" vertex="1">
            <mxGeometry y="67" width="280" height="46" as="geometry" />
          </mxCell>
        </UserObject>
        <UserObject label="`Y_F(t+1) = Y_F(t) + V_F \cdot \sin(\theta)`" id="0JTFXIvz4OhJbL4BshzC-6">
          <mxCell style="rounded=1;whiteSpace=wrap;html=1;arcSize=8;strokeWidth=2;fillColor=#cdeb8b;strokeColor=default;fontSize=16;" parent="5tuGqtoRHYsWDNf3iYkU-2" vertex="1">
            <mxGeometry x="350" y="67" width="286" height="46" as="geometry" />
          </mxCell>
        </UserObject>
        <mxCell id="pYkuysZ8y8qRuuzU3zo_-9" value="Cake Shop" style="rounded=1;whiteSpace=wrap;html=1;hachureGap=4;fontFamily=Mali;strokeWidth=2;fillColor=#76608a;strokeColor=default;fontSize=22;fontStyle=1;labelBorderColor=none;textShadow=0;labelBackgroundColor=none;align=center;spacing=5;verticalAlign=middle;spacingTop=0;spacingRight=2;container=0;fontSource=https%3A%2F%2Ffonts.googleapis.com%2Fcss%3Ffamily%3DMali;fontColor=#ffffff;" parent="1" vertex="1">
          <mxGeometry x="1968.5" y="334" width="143" height="40" as="geometry" />
        </mxCell>
        <mxCell id="pYkuysZ8y8qRuuzU3zo_-10" value="" style="group" parent="1" vertex="1" connectable="0">
          <mxGeometry x="1748" y="385" width="584" height="102" as="geometry" />
        </mxCell>
        <mxCell id="pYkuysZ8y8qRuuzU3zo_-1" value="" style="group;flipH=1;" parent="pYkuysZ8y8qRuuzU3zo_-10" vertex="1" connectable="0">
          <mxGeometry x="234" width="350" height="100" as="geometry" />
        </mxCell>
        <mxCell id="pYkuysZ8y8qRuuzU3zo_-2" value="&lt;b&gt;`z=d(p-c)+(x-d)(s-c)`&lt;/b&gt;" style="rounded=1;whiteSpace=wrap;html=1;strokeWidth=2;fillColor=#e1d5e7;strokeColor=default;fontFamily=Mina;fontSize=22;fontStyle=0" parent="pYkuysZ8y8qRuuzU3zo_-1" vertex="1">
          <mxGeometry y="50" width="350" height="50" as="geometry" />
        </mxCell>
        <mxCell id="pYkuysZ8y8qRuuzU3zo_-3" value="&lt;span&gt;If `x gt d`&amp;nbsp;&lt;/span&gt;" style="rounded=1;whiteSpace=wrap;html=1;strokeWidth=2;fillColor=#76608a;strokeColor=default;fontFamily=Oxanium;fontSize=22;fontColor=#ffffff;fontSource=https%3A%2F%2Ffonts.googleapis.com%2Fcss%3Ffamily%3DOxanium;fontStyle=0" parent="pYkuysZ8y8qRuuzU3zo_-1" vertex="1">
          <mxGeometry x="160" width="110" height="50" as="geometry" />
        </mxCell>
        <mxCell id="pYkuysZ8y8qRuuzU3zo_-4" value="&lt;span&gt;2&lt;/span&gt;" style="rounded=1;whiteSpace=wrap;html=1;strokeWidth=2;fillColor=#76608a;strokeColor=default;fontFamily=Oxanium;fontSize=22;fontColor=#ffffff;fontSource=https%3A%2F%2Ffonts.googleapis.com%2Fcss%3Ffamily%3DOxanium;fontStyle=0" parent="pYkuysZ8y8qRuuzU3zo_-1" vertex="1">
          <mxGeometry x="270" width="50" height="50" as="geometry" />
        </mxCell>
        <mxCell id="pYkuysZ8y8qRuuzU3zo_-5" value="" style="group" parent="pYkuysZ8y8qRuuzU3zo_-10" vertex="1" connectable="0">
          <mxGeometry y="2" width="160" height="100" as="geometry" />
        </mxCell>
        <mxCell id="pYkuysZ8y8qRuuzU3zo_-6" value="&lt;b&gt;`z=x(p-c)`&lt;/b&gt;" style="rounded=1;whiteSpace=wrap;html=1;strokeWidth=2;fillColor=#e1d5e7;strokeColor=default;fontFamily=Mina;fontSize=22;fontStyle=2" parent="pYkuysZ8y8qRuuzU3zo_-5" vertex="1">
          <mxGeometry y="50" width="160" height="50" as="geometry" />
        </mxCell>
        <mxCell id="pYkuysZ8y8qRuuzU3zo_-7" value="&lt;span&gt;If `x le d`&amp;nbsp;&lt;/span&gt;" style="rounded=1;whiteSpace=wrap;html=1;strokeWidth=2;fillColor=#76608a;strokeColor=default;fontFamily=Oxanium;fontSize=22;fontColor=#ffffff;fontSource=https%3A%2F%2Ffonts.googleapis.com%2Fcss%3Ffamily%3DOxanium;fontStyle=0" parent="pYkuysZ8y8qRuuzU3zo_-5" vertex="1">
          <mxGeometry x="50" width="110" height="50" as="geometry" />
        </mxCell>
        <mxCell id="pYkuysZ8y8qRuuzU3zo_-8" value="&lt;span&gt;1&lt;/span&gt;" style="rounded=1;whiteSpace=wrap;html=1;strokeWidth=2;fillColor=#76608a;strokeColor=default;fontFamily=Oxanium;fontSize=22;fontColor=#ffffff;fontSource=https%3A%2F%2Ffonts.googleapis.com%2Fcss%3Ffamily%3DOxanium;fontStyle=0" parent="pYkuysZ8y8qRuuzU3zo_-5" vertex="1">
          <mxGeometry width="50" height="50" as="geometry" />
        </mxCell>
        <mxCell id="jlV43PNP7acwE_NsnFik-1" value="" style="group" parent="1" vertex="1" connectable="0">
          <mxGeometry x="772" y="850" width="768.12" height="248.20299999999997" as="geometry" />
        </mxCell>
        <mxCell id="jlV43PNP7acwE_NsnFik-2" value="\[ f(x) = \begin{cases} \frac{1}{b-a}, &amp;amp; a \le x \le b \\ 0, &amp;amp; \text{otherwise} \end{cases} \]" style="rounded=0;whiteSpace=wrap;html=1;strokeWidth=2;fillColor=#E6D0DE;strokeColor=#000000;container=0;fontSize=16;fontStyle=1;fontFamily=Mina;fontSource=https://fonts.googleapis.com/css?family=Mina;spacingLeft=2;spacingRight=2;align=left;" parent="jlV43PNP7acwE_NsnFik-1" vertex="1">
          <mxGeometry x="117" y="36.159999999999854" width="237.02" height="79.88" as="geometry" />
        </mxCell>
        <mxCell id="jlV43PNP7acwE_NsnFik-3" value="&lt;div style=&quot;direction: ltr;&quot;&gt;\[ f(x) = \begin{cases} \lambda e^{-\lambda x}, &amp;amp; x\ge 0 \\ 0, &amp;amp; \text{otherwise} \end{cases} \]&lt;/div&gt;" style="rounded=0;whiteSpace=wrap;html=1;strokeWidth=2;fillColor=#F8CECC;strokeColor=#000000;container=0;fontSize=16;fontStyle=1;fontFamily=Mina;fontSource=https://fonts.googleapis.com/css?family=Mina;spacingLeft=2;spacingRight=2;align=left;" parent="jlV43PNP7acwE_NsnFik-1" vertex="1">
          <mxGeometry x="117" y="116.11999999999989" width="237.02" height="70" as="geometry" />
        </mxCell>
        <mxCell id="jlV43PNP7acwE_NsnFik-4" value="\[ f(x)=\frac{1}{\sigma \sqrt{2 \pi}} \cdot e^{\frac{1}{2}(\frac{x-\mu}{\sigma})^2} \]" style="rounded=0;whiteSpace=wrap;html=1;strokeWidth=2;fillColor=#D5E8D4;strokeColor=#000000;container=0;fontSize=16;fontStyle=1;fontFamily=Mina;fontSource=https://fonts.googleapis.com/css?family=Mina;spacingLeft=2;spacingRight=2;align=left;" parent="jlV43PNP7acwE_NsnFik-1" vertex="1">
          <mxGeometry x="117" y="186.1199999999999" width="237.02" height="62.08" as="geometry" />
        </mxCell>
        <mxCell id="jlV43PNP7acwE_NsnFik-5" value="Uniform" style="rounded=0;whiteSpace=wrap;html=1;strokeWidth=2;fillColor=#E6D0DE;strokeColor=#000000;container=0;fontSize=16;fontStyle=1;fontFamily=Mina;fontSource=https://fonts.googleapis.com/css?family=Mina;align=center;spacingLeft=2;spacingRight=2;" parent="jlV43PNP7acwE_NsnFik-1" vertex="1">
          <mxGeometry x="37" y="36.159999999999854" width="80" height="79.88" as="geometry" />
        </mxCell>
        <mxCell id="jlV43PNP7acwE_NsnFik-6" value="Expo." style="rounded=0;whiteSpace=wrap;html=1;strokeWidth=2;fillColor=#F8CECC;strokeColor=#000000;container=0;fontSize=16;fontStyle=1;fontFamily=Mina;fontSource=https://fonts.googleapis.com/css?family=Mina;align=center;spacingLeft=2;spacingRight=2;horizontal=1;" parent="jlV43PNP7acwE_NsnFik-1" vertex="1">
          <mxGeometry x="36.999999999999986" y="116.11999999999989" width="80" height="70" as="geometry" />
        </mxCell>
        <mxCell id="jlV43PNP7acwE_NsnFik-7" value="Normal" style="rounded=0;whiteSpace=wrap;html=1;strokeWidth=2;fillColor=#D5E8D4;strokeColor=#000000;container=0;fontSize=16;fontStyle=1;fontFamily=Mina;fontSource=https://fonts.googleapis.com/css?family=Mina;align=center;spacingLeft=2;spacingRight=2;" parent="jlV43PNP7acwE_NsnFik-1" vertex="1">
          <mxGeometry x="36.999999999999986" y="186.1199999999999" width="80" height="62.08" as="geometry" />
        </mxCell>
        <mxCell id="jlV43PNP7acwE_NsnFik-8" value="`\frac{a+b}{2}`" style="rounded=0;whiteSpace=wrap;html=1;strokeWidth=2;fillColor=#E6D0DE;strokeColor=#000000;container=0;fontSize=16;fontStyle=1;fontFamily=Mina;fontSource=https://fonts.googleapis.com/css?family=Mina;spacingLeft=2;spacingRight=2;" parent="jlV43PNP7acwE_NsnFik-1" vertex="1">
          <mxGeometry x="591.08" y="36.039999999999964" width="90" height="80" as="geometry" />
        </mxCell>
        <mxCell id="jlV43PNP7acwE_NsnFik-9" value="`\frac{(b-a)^2}{12}`" style="rounded=0;whiteSpace=wrap;html=1;strokeWidth=2;fillColor=#E6D0DE;strokeColor=#000000;container=0;fontSize=16;fontStyle=1;fontFamily=Mina;fontSource=https://fonts.googleapis.com/css?family=Mina;spacingLeft=2;spacingRight=2;" parent="jlV43PNP7acwE_NsnFik-1" vertex="1">
          <mxGeometry x="681.12" y="36.039999999999964" width="87" height="80" as="geometry" />
        </mxCell>
        <mxCell id="jlV43PNP7acwE_NsnFik-10" value="`\frac{1}{\lambda}`" style="rounded=0;whiteSpace=wrap;html=1;strokeWidth=2;fillColor=#F8CECC;strokeColor=#000000;container=0;fontSize=16;fontStyle=1;fontFamily=Mina;fontSource=https://fonts.googleapis.com/css?family=Mina;spacingLeft=2;spacingRight=2;" parent="jlV43PNP7acwE_NsnFik-1" vertex="1">
          <mxGeometry x="591.0799999999999" y="116" width="90" height="70" as="geometry" />
        </mxCell>
        <mxCell id="jlV43PNP7acwE_NsnFik-11" value="\[-\]" style="rounded=0;whiteSpace=wrap;html=1;strokeWidth=2;fillColor=#D5E8D4;strokeColor=#000000;container=0;fontSize=16;fontStyle=1;fontFamily=Mina;fontSource=https://fonts.googleapis.com/css?family=Mina;spacingLeft=2;spacingRight=2;" parent="jlV43PNP7acwE_NsnFik-1" vertex="1">
          <mxGeometry x="591.0799999999999" y="186" width="90" height="62" as="geometry" />
        </mxCell>
        <mxCell id="jlV43PNP7acwE_NsnFik-12" value="`\frac{1}{\lambda^2}`" style="rounded=0;whiteSpace=wrap;html=1;strokeWidth=2;fillColor=#F8CECC;strokeColor=#000000;container=0;fontSize=16;fontStyle=1;fontFamily=Mina;fontSource=https://fonts.googleapis.com/css?family=Mina;spacingLeft=2;spacingRight=2;" parent="jlV43PNP7acwE_NsnFik-1" vertex="1">
          <mxGeometry x="681.0799999999999" y="116" width="87.04" height="70" as="geometry" />
        </mxCell>
        <mxCell id="jlV43PNP7acwE_NsnFik-13" value="\[-\]" style="rounded=0;whiteSpace=wrap;html=1;strokeWidth=2;fillColor=#D5E8D4;strokeColor=#000000;container=0;fontSize=16;fontStyle=1;fontFamily=Mina;fontSource=https://fonts.googleapis.com/css?family=Mina;spacingLeft=2;spacingRight=2;" parent="jlV43PNP7acwE_NsnFik-1" vertex="1">
          <mxGeometry x="681.0799999999999" y="186" width="87.04" height="62" as="geometry" />
        </mxCell>
        <mxCell id="jlV43PNP7acwE_NsnFik-14" value="Continuous" style="rounded=0;whiteSpace=wrap;html=1;strokeWidth=2;fillColor=#eeeeee;strokeColor=#000000;container=0;fontSize=22;fontStyle=1;fontFamily=Mina;fontSource=https://fonts.googleapis.com/css?family=Mina;align=center;spacingLeft=2;spacingRight=2;flipV=0;flipH=1;horizontal=0;" parent="jlV43PNP7acwE_NsnFik-1" vertex="1">
          <mxGeometry y="36.159999999999854" width="37" height="212.043" as="geometry" />
        </mxCell>
        <mxCell id="jlV43PNP7acwE_NsnFik-15" value="\[ F(x) = \begin{cases} 0, &amp;amp; x &amp;lt; a \\ \frac{x - a}{b-a}, &amp;amp; a \le x &amp;lt; b \\ 1, &amp;amp; x \ge b \end{cases} \]" style="rounded=0;whiteSpace=wrap;html=1;strokeWidth=2;fillColor=#E6D0DE;strokeColor=#000000;container=0;fontSize=16;fontStyle=1;fontFamily=Mina;fontSource=https://fonts.googleapis.com/css?family=Mina;spacingLeft=2;spacingRight=2;align=left;" parent="jlV43PNP7acwE_NsnFik-1" vertex="1">
          <mxGeometry x="354.06" y="36.039999999999964" width="237.02" height="80" as="geometry" />
        </mxCell>
        <mxCell id="jlV43PNP7acwE_NsnFik-16" value="&lt;div style=&quot;direction: ltr;&quot;&gt;\[ F(x) = \begin{cases} 0, &amp;amp; x &amp;lt; 0 \\ 1 - e^{-\lambda x}, &amp;amp; x\ge 0 \end{cases}\]&lt;/div&gt;" style="rounded=0;whiteSpace=wrap;html=1;strokeWidth=2;fillColor=#F8CECC;strokeColor=#000000;container=0;fontSize=16;fontStyle=1;fontFamily=Mina;fontSource=https://fonts.googleapis.com/css?family=Mina;spacingLeft=2;spacingRight=2;align=left;" parent="jlV43PNP7acwE_NsnFik-1" vertex="1">
          <mxGeometry x="354.06" y="116" width="237.02" height="70" as="geometry" />
        </mxCell>
        <mxCell id="jlV43PNP7acwE_NsnFik-17" value="\[-\]" style="rounded=0;whiteSpace=wrap;html=1;strokeWidth=2;fillColor=#D5E8D4;strokeColor=#000000;container=0;fontSize=16;fontStyle=1;fontFamily=Mina;fontSource=https://fonts.googleapis.com/css?family=Mina;spacingLeft=2;spacingRight=2;align=center;" parent="jlV43PNP7acwE_NsnFik-1" vertex="1">
          <mxGeometry x="354.06" y="186" width="237.02" height="62.08" as="geometry" />
        </mxCell>
        <mxCell id="jlV43PNP7acwE_NsnFik-18" value="&lt;span style=&quot;font-weight: 700;&quot;&gt;`P(x)`&lt;/span&gt;" style="rounded=0;whiteSpace=wrap;html=1;strokeWidth=2;container=0;fontSize=16;fontFamily=Mina;fontSource=https://fonts.googleapis.com/css?family=Mina;spacingLeft=2;spacingRight=2;fillColor=#eeeeee;strokeColor=#000000;" parent="jlV43PNP7acwE_NsnFik-1" vertex="1">
          <mxGeometry x="117" width="237" height="36.04" as="geometry" />
        </mxCell>
        <mxCell id="jlV43PNP7acwE_NsnFik-19" value="&lt;span style=&quot;font-size: 16px; font-weight: 700;&quot;&gt;Dist.&lt;/span&gt;" style="rounded=0;whiteSpace=wrap;html=1;strokeWidth=2;container=0;fontSize=16;fontFamily=Mina;fontSource=https://fonts.googleapis.com/css?family=Mina;align=center;spacingLeft=2;spacingRight=2;fillColor=#eeeeee;strokeColor=#000000;" parent="jlV43PNP7acwE_NsnFik-1" vertex="1">
          <mxGeometry x="36.999999999999986" width="80" height="36.04" as="geometry" />
        </mxCell>
        <mxCell id="jlV43PNP7acwE_NsnFik-20" value="&lt;span style=&quot;font-weight: 700;&quot;&gt;`E(x_i)=\mu`&lt;/span&gt;" style="rounded=0;whiteSpace=wrap;html=1;strokeWidth=2;container=0;fontSize=15;fontFamily=Mina;fontSource=https://fonts.googleapis.com/css?family=Mina;spacingLeft=2;spacingRight=2;fillColor=#eeeeee;strokeColor=#000000;" parent="jlV43PNP7acwE_NsnFik-1" vertex="1">
          <mxGeometry x="591.08" y="0.11999999999989086" width="90" height="36.04" as="geometry" />
        </mxCell>
        <mxCell id="jlV43PNP7acwE_NsnFik-21" value="&lt;b&gt;`V(x_i)`&lt;/b&gt;" style="rounded=0;whiteSpace=wrap;html=1;strokeWidth=2;container=0;fontSize=16;fontFamily=Mina;fontSource=https://fonts.googleapis.com/css?family=Mina;spacingLeft=2;spacingRight=2;fillColor=#eeeeee;strokeColor=#000000;" parent="jlV43PNP7acwE_NsnFik-1" vertex="1">
          <mxGeometry x="681.16" y="0.11999999999989086" width="86.96" height="36.04" as="geometry" />
        </mxCell>
        <mxCell id="jlV43PNP7acwE_NsnFik-22" value="&lt;span style=&quot;font-weight: 700;&quot;&gt;CDF `F(x)`&lt;/span&gt;" style="rounded=0;whiteSpace=wrap;html=1;strokeWidth=2;container=0;fontSize=16;fontFamily=Mina;fontSource=https://fonts.googleapis.com/css?family=Mina;spacingLeft=2;spacingRight=2;fillColor=#eeeeee;strokeColor=#000000;" parent="jlV43PNP7acwE_NsnFik-1" vertex="1">
          <mxGeometry x="354.08000000000004" y="0.11999999999989086" width="237" height="36.04" as="geometry" />
        </mxCell>
        <mxCell id="jlV43PNP7acwE_NsnFik-23" value="" style="group" parent="1" vertex="1" connectable="0">
          <mxGeometry x="82" y="850" width="637.04" height="294.0799999999999" as="geometry" />
        </mxCell>
        <mxCell id="jlV43PNP7acwE_NsnFik-24" value="\[ P(x_i) = \begin{cases} p, &amp;amp; x_i = 1 \\ q:=1-p, &amp;amp; x_i = 0 \end{cases} \]" style="rounded=0;whiteSpace=wrap;html=1;strokeWidth=2;fillColor=#FFF2CC;strokeColor=#000000;container=0;fontSize=16;fontStyle=1;fontFamily=Mina;fontSource=https://fonts.googleapis.com/css?family=Mina;spacingLeft=2;spacingRight=2;align=left;" parent="jlV43PNP7acwE_NsnFik-23" vertex="1">
          <mxGeometry x="117.00000000000001" y="36.039999999999964" width="343" height="63.96" as="geometry" />
        </mxCell>
        <mxCell id="jlV43PNP7acwE_NsnFik-25" value="&lt;div style=&quot;direction: ltr;&quot;&gt;&lt;span style=&quot;background-color: transparent; color: light-dark(rgb(0, 0, 0), rgb(255, 255, 255));&quot;&gt;\[ P(x) = \begin{cases} \binom{n}{x}\cdot p^x \cdot q^{n-x}, &amp;amp; x = 0,1,\cdots ,n \\ 0, &amp;amp; \text{otherwise} \end{cases} \]&lt;/span&gt;&lt;/div&gt;" style="rounded=0;whiteSpace=wrap;html=1;strokeWidth=2;fillColor=#D5E8D4;strokeColor=#000000;container=0;fontSize=16;fontStyle=1;fontFamily=Mina;fontSource=https://fonts.googleapis.com/css?family=Mina;spacingLeft=2;spacingRight=2;align=left;" parent="jlV43PNP7acwE_NsnFik-23" vertex="1">
          <mxGeometry x="117.00000000000001" y="100" width="343" height="70" as="geometry" />
        </mxCell>
        <mxCell id="jlV43PNP7acwE_NsnFik-26" value="\[ P(x) = \begin{cases} q^{x-1} \cdot p, &amp;amp; x = 0,1,\cdots ,n \\ 0, &amp;amp; \text{otherwise} \end{cases} \]" style="rounded=0;whiteSpace=wrap;html=1;strokeWidth=2;fillColor=#E1D5E7;strokeColor=#000000;container=0;fontSize=16;fontStyle=1;fontFamily=Mina;fontSource=https://fonts.googleapis.com/css?family=Mina;spacingLeft=2;spacingRight=2;align=left;" parent="jlV43PNP7acwE_NsnFik-23" vertex="1">
          <mxGeometry x="117.00000000000001" y="170" width="343" height="62.08" as="geometry" />
        </mxCell>
        <mxCell id="jlV43PNP7acwE_NsnFik-27" value="\[ P(x) = \begin{cases} \frac{\alpha^x}{x!} \cdot e^{-\alpha}, &amp;amp; x = 0,1,\cdots ,n \\ 0, &amp;amp; \text{otherwise} \end{cases} \]" style="rounded=0;whiteSpace=wrap;html=1;strokeWidth=2;fillColor=#D4E1F5;strokeColor=#000000;container=0;fontSize=16;fontStyle=1;fontFamily=Mina;fontSource=https://fonts.googleapis.com/css?family=Mina;spacingLeft=2;spacingRight=2;align=left;" parent="jlV43PNP7acwE_NsnFik-23" vertex="1">
          <mxGeometry x="117.00000000000001" y="232.07999999999993" width="343" height="62" as="geometry" />
        </mxCell>
        <mxCell id="jlV43PNP7acwE_NsnFik-28" value="&lt;span style=&quot;font-weight: 700;&quot;&gt;`P(x)`&lt;/span&gt;" style="rounded=0;whiteSpace=wrap;html=1;strokeWidth=2;container=0;fontSize=16;fontFamily=Mina;fontSource=https://fonts.googleapis.com/css?family=Mina;spacingLeft=2;spacingRight=2;fillColor=#eeeeee;strokeColor=#000000;" parent="jlV43PNP7acwE_NsnFik-23" vertex="1">
          <mxGeometry x="117.00000000000001" width="343" height="36.04" as="geometry" />
        </mxCell>
        <mxCell id="jlV43PNP7acwE_NsnFik-29" value="&lt;span style=&quot;font-size: 16px; font-weight: 700;&quot;&gt;Dist.&lt;/span&gt;" style="rounded=0;whiteSpace=wrap;html=1;strokeWidth=2;container=0;fontSize=16;fontFamily=Mina;fontSource=https://fonts.googleapis.com/css?family=Mina;align=center;spacingLeft=2;spacingRight=2;fillColor=#eeeeee;strokeColor=#000000;" parent="jlV43PNP7acwE_NsnFik-23" vertex="1">
          <mxGeometry x="37" width="80" height="36.04" as="geometry" />
        </mxCell>
        <mxCell id="jlV43PNP7acwE_NsnFik-30" value="Bernoulli" style="rounded=0;whiteSpace=wrap;html=1;strokeWidth=2;fillColor=#FFF2CC;strokeColor=#000000;container=0;fontSize=16;fontStyle=1;fontFamily=Mina;fontSource=https://fonts.googleapis.com/css?family=Mina;align=center;spacingLeft=2;spacingRight=2;" parent="jlV43PNP7acwE_NsnFik-23" vertex="1">
          <mxGeometry x="37" y="36.039999999999964" width="80" height="63.96" as="geometry" />
        </mxCell>
        <mxCell id="jlV43PNP7acwE_NsnFik-31" value="Binomial" style="rounded=0;whiteSpace=wrap;html=1;strokeWidth=2;fillColor=#D5E8D4;strokeColor=#000000;container=0;fontSize=16;fontStyle=1;fontFamily=Mina;fontSource=https://fonts.googleapis.com/css?family=Mina;align=center;spacingLeft=2;spacingRight=2;" parent="jlV43PNP7acwE_NsnFik-23" vertex="1">
          <mxGeometry x="37" y="100" width="80" height="70" as="geometry" />
        </mxCell>
        <mxCell id="jlV43PNP7acwE_NsnFik-32" value="Geometric" style="rounded=0;whiteSpace=wrap;html=1;strokeWidth=2;fillColor=#E1D5E7;strokeColor=#000000;container=0;fontSize=16;fontStyle=1;fontFamily=Mina;fontSource=https://fonts.googleapis.com/css?family=Mina;align=center;spacingLeft=2;spacingRight=2;" parent="jlV43PNP7acwE_NsnFik-23" vertex="1">
          <mxGeometry x="37" y="170" width="80" height="62.08" as="geometry" />
        </mxCell>
        <mxCell id="jlV43PNP7acwE_NsnFik-33" value="Poisson" style="rounded=0;whiteSpace=wrap;html=1;strokeWidth=2;fillColor=#D4E1F5;strokeColor=#000000;container=0;fontSize=16;fontStyle=1;fontFamily=Mina;fontSource=https://fonts.googleapis.com/css?family=Mina;align=center;spacingLeft=2;spacingRight=2;" parent="jlV43PNP7acwE_NsnFik-23" vertex="1">
          <mxGeometry x="37" y="232.07999999999993" width="80" height="61.92" as="geometry" />
        </mxCell>
        <mxCell id="jlV43PNP7acwE_NsnFik-34" value="&lt;span style=&quot;font-weight: 700;&quot;&gt;`E(x_i)=\mu`&lt;/span&gt;" style="rounded=0;whiteSpace=wrap;html=1;strokeWidth=2;container=0;fontSize=15;fontFamily=Mina;fontSource=https://fonts.googleapis.com/css?family=Mina;spacingLeft=2;spacingRight=2;fillColor=#eeeeee;strokeColor=#000000;" parent="jlV43PNP7acwE_NsnFik-23" vertex="1">
          <mxGeometry x="460" width="90" height="36.04" as="geometry" />
        </mxCell>
        <mxCell id="jlV43PNP7acwE_NsnFik-35" value="`p`" style="rounded=0;whiteSpace=wrap;html=1;strokeWidth=2;fillColor=#FFF2CC;strokeColor=#000000;container=0;fontSize=16;fontStyle=1;fontFamily=Mina;fontSource=https://fonts.googleapis.com/css?family=Mina;spacingLeft=2;spacingRight=2;" parent="jlV43PNP7acwE_NsnFik-23" vertex="1">
          <mxGeometry x="460" y="36.039999999999964" width="90" height="63.96" as="geometry" />
        </mxCell>
        <mxCell id="jlV43PNP7acwE_NsnFik-36" value="&lt;b&gt;`V(x_i)`&lt;/b&gt;" style="rounded=0;whiteSpace=wrap;html=1;strokeWidth=2;container=0;fontSize=16;fontFamily=Mina;fontSource=https://fonts.googleapis.com/css?family=Mina;spacingLeft=2;spacingRight=2;fillColor=#eeeeee;strokeColor=#000000;" parent="jlV43PNP7acwE_NsnFik-23" vertex="1">
          <mxGeometry x="550.0799999999999" width="86.96" height="36.04" as="geometry" />
        </mxCell>
        <mxCell id="jlV43PNP7acwE_NsnFik-37" value="`p \cdot q`" style="rounded=0;whiteSpace=wrap;html=1;strokeWidth=2;fillColor=#FFF2CC;strokeColor=#000000;container=0;fontSize=16;fontStyle=1;fontFamily=Mina;fontSource=https://fonts.googleapis.com/css?family=Mina;spacingLeft=2;spacingRight=2;" parent="jlV43PNP7acwE_NsnFik-23" vertex="1">
          <mxGeometry x="550.04" y="36.039999999999964" width="87" height="63.96" as="geometry" />
        </mxCell>
        <mxCell id="jlV43PNP7acwE_NsnFik-38" value="&lt;span style=&quot;font-size: 16px;&quot;&gt;`n \cdot p`&lt;/span&gt;" style="rounded=0;whiteSpace=wrap;html=1;strokeWidth=2;fillColor=#D5E8D4;strokeColor=#000000;container=0;fontSize=16;fontStyle=1;fontFamily=Mina;fontSource=https://fonts.googleapis.com/css?family=Mina;spacingLeft=2;spacingRight=2;" parent="jlV43PNP7acwE_NsnFik-23" vertex="1">
          <mxGeometry x="460" y="100" width="90" height="70" as="geometry" />
        </mxCell>
        <mxCell id="jlV43PNP7acwE_NsnFik-39" value="&lt;span style=&quot;font-size: 16px;&quot;&gt;`\frac{1}{p}`&lt;/span&gt;" style="rounded=0;whiteSpace=wrap;html=1;strokeWidth=2;fillColor=#E1D5E7;strokeColor=#000000;container=0;fontSize=16;fontStyle=1;fontFamily=Mina;fontSource=https://fonts.googleapis.com/css?family=Mina;spacingLeft=2;spacingRight=2;" parent="jlV43PNP7acwE_NsnFik-23" vertex="1">
          <mxGeometry x="460" y="170" width="90" height="62" as="geometry" />
        </mxCell>
        <mxCell id="jlV43PNP7acwE_NsnFik-40" value="&lt;span style=&quot;font-size: 16px;&quot;&gt;`\alpha = V(x)`&lt;/span&gt;" style="rounded=0;whiteSpace=wrap;html=1;strokeWidth=2;fillColor=#D4E1F5;strokeColor=#000000;container=0;fontSize=16;fontStyle=1;fontFamily=Mina;fontSource=https://fonts.googleapis.com/css?family=Mina;spacingLeft=2;spacingRight=2;" parent="jlV43PNP7acwE_NsnFik-23" vertex="1">
          <mxGeometry x="459.96000000000004" y="232.07999999999993" width="90.04" height="61.92" as="geometry" />
        </mxCell>
        <mxCell id="jlV43PNP7acwE_NsnFik-41" value="&lt;span style=&quot;font-size: 16px;&quot;&gt;`n\cdot p\cdot q`&lt;/span&gt;" style="rounded=0;whiteSpace=wrap;html=1;strokeWidth=2;fillColor=#D5E8D4;strokeColor=#000000;container=0;fontSize=16;fontStyle=1;fontFamily=Mina;fontSource=https://fonts.googleapis.com/css?family=Mina;spacingLeft=2;spacingRight=2;" parent="jlV43PNP7acwE_NsnFik-23" vertex="1">
          <mxGeometry x="550" y="100" width="87.04" height="70" as="geometry" />
        </mxCell>
        <mxCell id="jlV43PNP7acwE_NsnFik-42" value="&lt;span style=&quot;font-size: 16px;&quot;&gt;`\frac{q}{p^2}`&lt;/span&gt;" style="rounded=0;whiteSpace=wrap;html=1;strokeWidth=2;fillColor=#E1D5E7;strokeColor=#000000;container=0;fontSize=16;fontStyle=1;fontFamily=Mina;fontSource=https://fonts.googleapis.com/css?family=Mina;spacingLeft=2;spacingRight=2;" parent="jlV43PNP7acwE_NsnFik-23" vertex="1">
          <mxGeometry x="550" y="170" width="87.04" height="62" as="geometry" />
        </mxCell>
        <mxCell id="jlV43PNP7acwE_NsnFik-43" value="`\alpha = E(x)`" style="rounded=0;whiteSpace=wrap;html=1;strokeWidth=2;fillColor=#D4E1F5;strokeColor=#000000;container=0;fontSize=16;fontStyle=1;fontFamily=Mina;fontSource=https://fonts.googleapis.com/css?family=Mina;spacingLeft=2;spacingRight=2;" parent="jlV43PNP7acwE_NsnFik-23" vertex="1">
          <mxGeometry x="550.04" y="232" width="87" height="62" as="geometry" />
        </mxCell>
        <mxCell id="jlV43PNP7acwE_NsnFik-44" value="Discrete" style="rounded=0;whiteSpace=wrap;html=1;strokeWidth=2;fillColor=#eeeeee;strokeColor=#000000;container=0;fontSize=22;fontStyle=1;fontFamily=Mina;fontSource=https://fonts.googleapis.com/css?family=Mina;align=center;spacingLeft=2;spacingRight=2;flipV=0;flipH=1;horizontal=0;" parent="jlV43PNP7acwE_NsnFik-23" vertex="1">
          <mxGeometry y="36.039999999999964" width="37" height="257.96" as="geometry" />
        </mxCell>
        <mxCell id="jlV43PNP7acwE_NsnFik-45" value="" style="endArrow=none;html=1;rounded=1;strokeWidth=3;startFill=0;edgeStyle=orthogonalEdgeStyle;curved=0;fillColor=#d0cee2;strokeColor=#56517e;sketch=1;curveFitting=1;jiggle=2;shape=link;" parent="1" edge="1">
          <mxGeometry width="50" height="50" relative="1" as="geometry">
            <mxPoint x="1576.62" y="1460" as="sourcePoint" />
            <mxPoint x="1577" y="750" as="targetPoint" />
            <Array as="points">
              <mxPoint x="1576.62" y="1370" />
              <mxPoint x="1576.62" y="1370" />
            </Array>
          </mxGeometry>
        </mxCell>
        <mxCell id="jlV43PNP7acwE_NsnFik-46" value="Case Study" style="shape=hexagon;perimeter=hexagonPerimeter2;whiteSpace=wrap;fixedSize=1;size=16;fillColor=#6d8764;strokeColor=default;fontFamily=Mali;fontSize=29;strokeWidth=2;align=center;spacingLeft=0;spacingBottom=5;fillStyle=hachure;fontStyle=1;rounded=1;arcSize=14;fontSource=https%3A%2F%2Ffonts.googleapis.com%2Fcss%3Ffamily%3DMali;fontColor=#ffffff;" parent="1" vertex="1">
          <mxGeometry x="1915.31" y="40" width="221.38" height="40" as="geometry" />
        </mxCell>
        <mxCell id="jlV43PNP7acwE_NsnFik-47" value="Chapter 3" style="shape=hexagon;perimeter=hexagonPerimeter2;whiteSpace=wrap;fixedSize=1;size=16;fillColor=#76608a;strokeColor=default;fontFamily=Mali;fontSize=29;strokeWidth=2;align=center;spacingLeft=0;spacingBottom=5;fillStyle=hachure;fontStyle=1;rounded=1;arcSize=14;fontSource=https%3A%2F%2Ffonts.googleapis.com%2Fcss%3Ffamily%3DMali;fontColor=#ffffff;" parent="1" vertex="1">
          <mxGeometry x="662.53" y="780" width="221.38" height="40" as="geometry" />
        </mxCell>
        <mxCell id="X_Ddc8IOFwsxkR-Ea8JI-1" value="&lt;span style=&quot;color: rgb(0, 0, 255); font-family: Helvetica; font-style: normal; font-variant-ligatures: normal; font-variant-caps: normal; font-weight: 400; letter-spacing: normal; orphans: 2; text-align: center; text-indent: 0px; text-transform: none; widows: 2; word-spacing: 0px; -webkit-text-stroke-width: 0px; white-space: normal; background-color: rgb(236, 236, 236); text-decoration-thickness: initial; text-decoration-style: initial; text-decoration-color: initial; float: none; display: inline !important;&quot;&gt;\[ F(X)_{\text{Inspection Device}} = 1 - e^{-\frac{x}{2}} \]&lt;/span&gt;" style="text;whiteSpace=wrap;html=1;fontSize=19;verticalAlign=middle;" parent="1" vertex="1">
          <mxGeometry x="972.69" y="1126.04" width="340" height="40" as="geometry" />
        </mxCell>
        <mxCell id="92UsQD7GnCEBLW3Ykm6T-5" value="" style="group" parent="1" vertex="1" connectable="0">
          <mxGeometry x="1612" y="780" width="790" height="670" as="geometry" />
        </mxCell>
        <mxCell id="92UsQD7GnCEBLW3Ykm6T-1" value="&lt;font face=&quot;Mali&quot;&gt;True &amp;amp; False&lt;/font&gt;" style="rounded=1;whiteSpace=wrap;html=1;hachureGap=4;fontFamily=Mina;strokeWidth=2;fillColor=#000000;strokeColor=#000000;fontSize=22;fontStyle=1;labelBorderColor=none;textShadow=0;labelBackgroundColor=none;align=left;spacing=5;verticalAlign=middle;spacingTop=0;spacingRight=2;fontColor=#ffffff;container=0;spacingLeft=5;" parent="92UsQD7GnCEBLW3Ykm6T-5" vertex="1">
          <mxGeometry x="315" width="160" height="40" as="geometry" />
        </mxCell>
        <mxCell id="92UsQD7GnCEBLW3Ykm6T-2" value="&lt;div style=&quot;line-height: 115%;&quot;&gt;&lt;div&gt;&lt;div style=&quot;text-align: center;&quot;&gt;&lt;b&gt;&lt;u&gt;False Only&lt;/u&gt;&lt;/b&gt;&lt;/div&gt;&lt;span style=&quot;background-color: transparent;&quot;&gt;&lt;div style=&quot;text-align: center;&quot;&gt;&lt;br&gt;&lt;/div&gt;&lt;/span&gt;&lt;/div&gt;&lt;div&gt;16- Simulation is used when a problem can be solved mathematically &lt;b&gt;(False) Page 18&lt;/b&gt;&lt;/div&gt;&lt;div&gt;&lt;br&gt;&lt;/div&gt;&lt;div&gt;17- Simulation is appropriate when no (input) data is available, but simulations need data &lt;b&gt;(False) Page 19&lt;/b&gt;&lt;/div&gt;&lt;div&gt;&lt;br&gt;&lt;/div&gt;&lt;div&gt;19- We can use simulation when the system behavior is too complex or unknown &lt;b&gt;(False) Page 19&lt;/b&gt;&lt;/div&gt;&lt;div&gt;&lt;br&gt;&lt;/div&gt;&lt;div&gt;26- Simulation is useful when its results are difficult to interpret. &lt;b&gt;(False) Page 21&lt;/b&gt;&lt;/div&gt;&lt;div&gt;&lt;br&gt;&lt;/div&gt;&lt;div&gt;27- We use the simulation when model building requires training. &lt;b&gt;(False) Page 21&lt;/b&gt;&lt;/div&gt;&lt;div&gt;&lt;br&gt;&lt;/div&gt;&lt;div&gt;28- Application areas of simulation is related to deep learning system. &lt;b&gt;(False) Page 21&lt;/b&gt;&lt;/div&gt;&lt;div&gt;&lt;br&gt;&lt;/div&gt;&lt;div&gt;29- Application areas of simulation is related to health care and military only. &lt;b&gt;(False) Page 21&lt;br&gt;&lt;br&gt;&lt;/b&gt;&lt;/div&gt;&lt;div&gt;&lt;div&gt;&lt;span style=&quot;background-color: transparent; color: light-dark(rgb(0, 0, 0), rgb(255, 255, 255));&quot;&gt;35- System Exogenous are activities and events occurring within the system.&amp;nbsp;&lt;/span&gt;&lt;b style=&quot;background-color: transparent; color: light-dark(rgb(0, 0, 0), rgb(255, 255, 255));&quot;&gt;(False) Page 25&lt;/b&gt;&lt;/div&gt;&lt;div&gt;&lt;br&gt;&lt;/div&gt;&lt;div&gt;36- Head of water behind a dam and temperature are examples of discrete Systems.&amp;nbsp;&lt;b&gt;(False) Page 28&lt;/b&gt;&lt;/div&gt;&lt;div&gt;&lt;br&gt;&lt;/div&gt;&lt;div&gt;47- The reaction time is the time between user finishes request and system starts response.&amp;nbsp;&lt;b&gt;(False) Page 56&lt;/b&gt;&lt;/div&gt;&lt;div&gt;&lt;br&gt;&lt;/div&gt;&lt;div&gt;51- The steps in a simulation study can be classified into three phases: Discovery and orientation, Model building and data collection, and run the model.&amp;nbsp;&lt;b&gt;(False) Page 60&lt;br&gt;&lt;/b&gt;&lt;/div&gt;&lt;div style=&quot;text-align: center;&quot;&gt;&lt;font face=&quot;Oxanium&quot;&gt;&lt;b&gt;&lt;u&gt;&lt;br&gt;&lt;/u&gt;&lt;/b&gt;&lt;/font&gt;&lt;/div&gt;&lt;div&gt;52- The appropriate simulation tools can be classified into two alternative existences: Build Model in a general simulation language and use a special purpose simulation package.&amp;nbsp;&lt;b&gt;(False) Page 2&lt;/b&gt;&lt;/div&gt;&lt;div&gt;&lt;br&gt;&lt;/div&gt;&lt;div&gt;53- From disadvantages of building model in general purpose languages are portable and no additional software cost and training.&amp;nbsp;&lt;b&gt;(False) Page 3&lt;/b&gt;&lt;/div&gt;&lt;div&gt;&lt;br&gt;&lt;/div&gt;&lt;div&gt;54- The Modula and ADA are two examples for general simulation language.&amp;nbsp;&lt;b&gt;(False) Page 6: 8&lt;/b&gt;&lt;/div&gt;&lt;div&gt;&lt;br&gt;&lt;/div&gt;&lt;/div&gt;&lt;/div&gt;" style="rounded=1;whiteSpace=wrap;html=1;arcSize=3;strokeWidth=2;fillColor=#eeeeee;strokeColor=default;align=left;spacingLeft=10;fontFamily=Oxanium;fontSource=https%3A%2F%2Ffonts.googleapis.com%2Fcss%3Ffamily%3DOxanium;fontStyle=0;fontSize=15;spacingRight=5;fontColor=default;verticalAlign=top;spacingTop=2;" parent="92UsQD7GnCEBLW3Ykm6T-5" vertex="1">
          <mxGeometry y="60" width="790" height="610" as="geometry" />
        </mxCell>
        <mxCell id="ujhmzePnJQsyI2GIbawa-1" value="" style="group" vertex="1" connectable="0" parent="1">
          <mxGeometry x="372" y="1180" width="802.45" height="260" as="geometry" />
        </mxCell>
        <mxCell id="ujhmzePnJQsyI2GIbawa-2" style="rounded=1;orthogonalLoop=1;jettySize=auto;html=1;edgeStyle=orthogonalEdgeStyle;fillColor=#f5f5f5;strokeColor=#666666;endArrow=block;endFill=1;curved=0;" edge="1" parent="ujhmzePnJQsyI2GIbawa-1" source="ujhmzePnJQsyI2GIbawa-10" target="ujhmzePnJQsyI2GIbawa-11">
          <mxGeometry relative="1" as="geometry" />
        </mxCell>
        <mxCell id="ujhmzePnJQsyI2GIbawa-3" value="&lt;div style=&quot;line-height: 110%;&quot;&gt;&lt;font data-font-src=&quot;https://fonts.googleapis.com/css?family=Beiruti&quot; face=&quot;Beiruti&quot;&gt;هل انا عملت تجربة &lt;br&gt;واحدة بس؟&lt;/font&gt;&lt;/div&gt;" style="edgeLabel;html=1;align=center;verticalAlign=middle;resizable=0;points=[];fontSize=13;" vertex="1" connectable="0" parent="ujhmzePnJQsyI2GIbawa-2">
          <mxGeometry x="0.3192" relative="1" as="geometry">
            <mxPoint y="13" as="offset" />
          </mxGeometry>
        </mxCell>
        <mxCell id="ujhmzePnJQsyI2GIbawa-4" style="rounded=1;orthogonalLoop=1;jettySize=auto;html=1;edgeStyle=orthogonalEdgeStyle;fillColor=#f5f5f5;strokeColor=#666666;endArrow=block;endFill=1;curved=0;" edge="1" parent="ujhmzePnJQsyI2GIbawa-1" source="ujhmzePnJQsyI2GIbawa-10" target="ujhmzePnJQsyI2GIbawa-12">
          <mxGeometry relative="1" as="geometry">
            <Array as="points">
              <mxPoint x="241.19884393063583" y="130.00000000000003" />
              <mxPoint x="146.88391136801542" y="130.00000000000003" />
            </Array>
          </mxGeometry>
        </mxCell>
        <mxCell id="ujhmzePnJQsyI2GIbawa-5" value="&lt;div style=&quot;direction: rtl;&quot;&gt;&lt;span style=&quot;font-family: Beiruti; background-color: light-dark(#ffffff, var(--ge-dark-color, #121212)); color: light-dark(rgb(0, 0, 0), rgb(255, 255, 255));&quot;&gt;انا عملت تجربة علي مجموعة `n`&lt;br&gt;&amp;nbsp;و عايز&amp;nbsp; احتمالية نجاح حدث معين؟&lt;/span&gt;&lt;/div&gt;" style="edgeLabel;html=1;align=center;verticalAlign=middle;resizable=0;points=[];fontSize=13;" vertex="1" connectable="0" parent="ujhmzePnJQsyI2GIbawa-4">
          <mxGeometry x="0.4124" y="-1" relative="1" as="geometry">
            <mxPoint x="6" y="6" as="offset" />
          </mxGeometry>
        </mxCell>
        <mxCell id="ujhmzePnJQsyI2GIbawa-6" style="rounded=1;orthogonalLoop=1;jettySize=auto;html=1;edgeStyle=orthogonalEdgeStyle;fillColor=#f5f5f5;strokeColor=#666666;endArrow=block;endFill=1;curved=0;" edge="1" parent="ujhmzePnJQsyI2GIbawa-1" source="ujhmzePnJQsyI2GIbawa-10" target="ujhmzePnJQsyI2GIbawa-13">
          <mxGeometry relative="1" as="geometry">
            <Array as="points">
              <mxPoint x="241.19884393063583" y="130.00000000000003" />
              <mxPoint x="333.96763005780343" y="130.00000000000003" />
            </Array>
          </mxGeometry>
        </mxCell>
        <mxCell id="ujhmzePnJQsyI2GIbawa-7" value="&lt;font style=&quot;line-height: 130%;&quot; data-font-src=&quot;https://fonts.googleapis.com/css?family=Beiruti&quot; face=&quot;Beiruti&quot;&gt;هل انا مهتم بأول مرة&lt;br&gt;الحاجة دي تظهر؟&lt;/font&gt;" style="edgeLabel;html=1;align=center;verticalAlign=middle;resizable=0;points=[];fontSize=13;" vertex="1" connectable="0" parent="ujhmzePnJQsyI2GIbawa-6">
          <mxGeometry x="0.6613" y="-1" relative="1" as="geometry">
            <mxPoint x="1" y="-10" as="offset" />
          </mxGeometry>
        </mxCell>
        <mxCell id="ujhmzePnJQsyI2GIbawa-8" style="rounded=1;orthogonalLoop=1;jettySize=auto;html=1;edgeStyle=orthogonalEdgeStyle;fillColor=#f5f5f5;strokeColor=#666666;endArrow=block;endFill=1;curved=0;" edge="1" parent="ujhmzePnJQsyI2GIbawa-1" source="ujhmzePnJQsyI2GIbawa-10" target="ujhmzePnJQsyI2GIbawa-14">
          <mxGeometry relative="1" as="geometry" />
        </mxCell>
        <mxCell id="ujhmzePnJQsyI2GIbawa-9" value="&lt;font data-font-src=&quot;https://fonts.googleapis.com/css?family=Beiruti&quot; face=&quot;Beiruti&quot;&gt;هل انا مهتم بعدد مرات&lt;br&gt;&lt;/font&gt;&lt;div style=&quot;direction: rtl;&quot;&gt;&lt;span style=&quot;background-color: light-dark(#ffffff, var(--ge-dark-color, #121212)); color: light-dark(rgb(0, 0, 0), rgb(255, 255, 255));&quot;&gt;&lt;font data-font-src=&quot;https://fonts.googleapis.com/css?family=Beiruti&quot; face=&quot;Beiruti&quot;&gt;حدوث حاجة معينة؟&lt;/font&gt;&lt;/span&gt;&lt;/div&gt;" style="edgeLabel;html=1;align=center;verticalAlign=middle;resizable=0;points=[];fontSize=13;" vertex="1" connectable="0" parent="ujhmzePnJQsyI2GIbawa-8">
          <mxGeometry x="0.3161" y="1" relative="1" as="geometry">
            <mxPoint as="offset" />
          </mxGeometry>
        </mxCell>
        <mxCell id="ujhmzePnJQsyI2GIbawa-10" value="Discrete" style="text;html=1;align=center;verticalAlign=middle;whiteSpace=wrap;rounded=1;fontFamily=Mina;fontStyle=1;glass=0;sketch=1;curveFitting=1;jiggle=2;strokeColor=#666666;fillColor=#FFF2CC;fontColor=#333333;fontSize=19;" vertex="1" parent="ujhmzePnJQsyI2GIbawa-1">
          <mxGeometry x="187.08371868978807" y="81.25" width="108.23025048169556" height="32.50000000000001" as="geometry" />
        </mxCell>
        <mxCell id="ujhmzePnJQsyI2GIbawa-11" value="Bernoulli" style="text;html=1;align=center;verticalAlign=middle;whiteSpace=wrap;rounded=0;fontFamily=Mina;fontStyle=1;fillColor=none;fontSize=17;" vertex="1" parent="ujhmzePnJQsyI2GIbawa-1">
          <mxGeometry y="211.25000000000006" width="108.23025048169556" height="48.75" as="geometry" />
        </mxCell>
        <mxCell id="ujhmzePnJQsyI2GIbawa-12" value="Binomial" style="text;html=1;align=center;verticalAlign=middle;whiteSpace=wrap;rounded=0;fontFamily=Mina;fontStyle=1;fillColor=none;fontSize=17;" vertex="1" parent="ujhmzePnJQsyI2GIbawa-1">
          <mxGeometry x="92.76878612716763" y="211.25000000000006" width="108.23025048169556" height="48.75" as="geometry" />
        </mxCell>
        <mxCell id="ujhmzePnJQsyI2GIbawa-13" value="Geometric" style="text;html=1;align=center;verticalAlign=middle;whiteSpace=wrap;rounded=0;fontFamily=Mina;fontStyle=1;fillColor=none;fontSize=17;" vertex="1" parent="ujhmzePnJQsyI2GIbawa-1">
          <mxGeometry x="272.12177263969176" y="211.25000000000006" width="123.69171483622351" height="48.75" as="geometry" />
        </mxCell>
        <mxCell id="ujhmzePnJQsyI2GIbawa-14" value="Poisson" style="text;html=1;align=center;verticalAlign=middle;whiteSpace=wrap;rounded=0;fontFamily=Mina;fontStyle=1;fillColor=none;fontSize=17;" vertex="1" parent="ujhmzePnJQsyI2GIbawa-1">
          <mxGeometry x="372.6212909441233" y="211.25000000000006" width="108.23025048169556" height="48.75" as="geometry" />
        </mxCell>
        <mxCell id="ujhmzePnJQsyI2GIbawa-15" style="rounded=1;orthogonalLoop=1;jettySize=auto;html=1;edgeStyle=orthogonalEdgeStyle;fillColor=#f5f5f5;strokeColor=#666666;endArrow=block;endFill=1;curved=0;" edge="1" parent="ujhmzePnJQsyI2GIbawa-1" source="ujhmzePnJQsyI2GIbawa-21" target="ujhmzePnJQsyI2GIbawa-22">
          <mxGeometry relative="1" as="geometry" />
        </mxCell>
        <mxCell id="ujhmzePnJQsyI2GIbawa-16" value="&lt;div style=&quot;direction: rtl;&quot;&gt;&lt;span style=&quot;font-family: Beiruti; color: light-dark(rgb(0, 0, 0), rgb(255, 255, 255));&quot;&gt;هل كل القيم في &lt;br&gt;الـRange ده ليها &lt;br&gt;نفس الاحتمال؟&lt;/span&gt;&lt;/div&gt;" style="edgeLabel;html=1;align=center;verticalAlign=middle;resizable=0;points=[];labelBackgroundColor=default;fontStyle=0;fontSize=13;" vertex="1" connectable="0" parent="ujhmzePnJQsyI2GIbawa-15">
          <mxGeometry x="0.1924" y="-1" relative="1" as="geometry">
            <mxPoint x="1" as="offset" />
          </mxGeometry>
        </mxCell>
        <mxCell id="ujhmzePnJQsyI2GIbawa-17" style="rounded=0;orthogonalLoop=1;jettySize=auto;html=1;edgeStyle=orthogonalEdgeStyle;fillColor=#f5f5f5;strokeColor=#666666;endArrow=block;endFill=1;" edge="1" parent="ujhmzePnJQsyI2GIbawa-1" source="ujhmzePnJQsyI2GIbawa-21" target="ujhmzePnJQsyI2GIbawa-23">
          <mxGeometry relative="1" as="geometry">
            <Array as="points">
              <mxPoint x="647.8353564547207" y="130.00000000000003" />
              <mxPoint x="647.8353564547207" y="130.00000000000003" />
            </Array>
          </mxGeometry>
        </mxCell>
        <mxCell id="ujhmzePnJQsyI2GIbawa-18" value="&lt;div style=&quot;direction: rtl;&quot;&gt;&lt;span style=&quot;font-family: Beiruti; color: light-dark(rgb(0, 0, 0), rgb(255, 255, 255));&quot;&gt;هل انا مهتم بالوقت &lt;br&gt;لحد ما يحصل حدث معين؟&lt;/span&gt;&lt;/div&gt;" style="edgeLabel;html=1;align=center;verticalAlign=middle;resizable=0;points=[];labelBackgroundColor=default;fontStyle=0;fontSize=13;" vertex="1" connectable="0" parent="ujhmzePnJQsyI2GIbawa-17">
          <mxGeometry x="-0.4047" relative="1" as="geometry">
            <mxPoint y="12" as="offset" />
          </mxGeometry>
        </mxCell>
        <mxCell id="ujhmzePnJQsyI2GIbawa-19" style="rounded=1;orthogonalLoop=1;jettySize=auto;html=1;edgeStyle=orthogonalEdgeStyle;fillColor=#f5f5f5;strokeColor=#666666;endArrow=block;endFill=1;curved=0;" edge="1" parent="ujhmzePnJQsyI2GIbawa-1" source="ujhmzePnJQsyI2GIbawa-21" target="ujhmzePnJQsyI2GIbawa-24">
          <mxGeometry relative="1" as="geometry">
            <Array as="points">
              <mxPoint x="756.0656069364162" y="97.5" />
            </Array>
          </mxGeometry>
        </mxCell>
        <mxCell id="ujhmzePnJQsyI2GIbawa-20" value="&lt;div style=&quot;direction: rtl;&quot;&gt;&lt;span style=&quot;font-family: Beiruti; color: light-dark(rgb(0, 0, 0), rgb(255, 255, 255));&quot;&gt;هل توزيع القيم&amp;nbsp; &lt;br&gt;متماثل حوالين الـ Mean؟&lt;/span&gt;&lt;/div&gt;" style="edgeLabel;html=1;align=center;verticalAlign=middle;resizable=0;points=[];labelBackgroundColor=default;fontStyle=0;fontSize=13;" vertex="1" connectable="0" parent="ujhmzePnJQsyI2GIbawa-19">
          <mxGeometry x="0.1014" relative="1" as="geometry">
            <mxPoint as="offset" />
          </mxGeometry>
        </mxCell>
        <mxCell id="ujhmzePnJQsyI2GIbawa-21" value="Continuous" style="text;html=1;align=center;verticalAlign=middle;whiteSpace=wrap;rounded=1;fontFamily=Mina;fontStyle=1;glass=0;sketch=1;curveFitting=1;jiggle=2;strokeColor=#666666;fillColor=#D5E8D4;fontColor=#333333;fontSize=19;" vertex="1" parent="ujhmzePnJQsyI2GIbawa-1">
          <mxGeometry x="601.4509633911368" y="81.25" width="108.23025048169556" height="32.50000000000001" as="geometry" />
        </mxCell>
        <mxCell id="ujhmzePnJQsyI2GIbawa-22" value="Uniform" style="text;html=1;align=center;verticalAlign=middle;whiteSpace=wrap;rounded=0;fontFamily=Mina;fontStyle=1;fillColor=none;fontSize=17;" vertex="1" parent="ujhmzePnJQsyI2GIbawa-1">
          <mxGeometry x="480.85154142581894" y="211.25000000000006" width="108.23025048169556" height="48.75" as="geometry" />
        </mxCell>
        <mxCell id="ujhmzePnJQsyI2GIbawa-23" value="Expo." style="text;html=1;align=center;verticalAlign=middle;whiteSpace=wrap;rounded=0;fontFamily=Mina;fontStyle=1;fillColor=none;fontSize=17;" vertex="1" parent="ujhmzePnJQsyI2GIbawa-1">
          <mxGeometry x="616.9124277456648" y="211.25000000000006" width="77.3073217726397" height="48.75" as="geometry" />
        </mxCell>
        <mxCell id="ujhmzePnJQsyI2GIbawa-24" value="Normal" style="text;html=1;align=center;verticalAlign=middle;whiteSpace=wrap;rounded=0;fontFamily=Mina;fontStyle=1;fillColor=none;fontSize=17;" vertex="1" parent="ujhmzePnJQsyI2GIbawa-1">
          <mxGeometry x="709.6812138728324" y="211.25000000000006" width="92.76878612716763" height="48.75" as="geometry" />
        </mxCell>
        <mxCell id="ujhmzePnJQsyI2GIbawa-25" style="edgeStyle=orthogonalEdgeStyle;rounded=1;orthogonalLoop=1;jettySize=auto;html=1;curved=0;" edge="1" parent="ujhmzePnJQsyI2GIbawa-1" source="ujhmzePnJQsyI2GIbawa-29" target="ujhmzePnJQsyI2GIbawa-10">
          <mxGeometry relative="1" as="geometry" />
        </mxCell>
        <mxCell id="ujhmzePnJQsyI2GIbawa-26" value="&amp;nbsp;أيوة&amp;nbsp;" style="edgeLabel;html=1;align=center;verticalAlign=middle;resizable=0;points=[];labelBackgroundColor=#B9E0A5;labelBorderColor=default;textShadow=0;spacing=7;fontSize=14;fontFamily=Cairo;fontSource=https%3A%2F%2Ffonts.googleapis.com%2Fcss%3Ffamily%3DCairo;" vertex="1" connectable="0" parent="ujhmzePnJQsyI2GIbawa-25">
          <mxGeometry x="-0.4632" y="-3" relative="1" as="geometry">
            <mxPoint y="3" as="offset" />
          </mxGeometry>
        </mxCell>
        <mxCell id="ujhmzePnJQsyI2GIbawa-27" style="edgeStyle=orthogonalEdgeStyle;rounded=1;orthogonalLoop=1;jettySize=auto;html=1;curved=0;" edge="1" parent="ujhmzePnJQsyI2GIbawa-1" source="ujhmzePnJQsyI2GIbawa-29" target="ujhmzePnJQsyI2GIbawa-21">
          <mxGeometry relative="1" as="geometry" />
        </mxCell>
        <mxCell id="ujhmzePnJQsyI2GIbawa-28" value="&amp;nbsp;لأ&amp;nbsp;" style="edgeLabel;html=1;align=center;verticalAlign=middle;resizable=0;points=[];labelBackgroundColor=#F19C99;labelBorderColor=default;textShadow=0;spacing=7;fontFamily=Cairo;fontSource=https%3A%2F%2Ffonts.googleapis.com%2Fcss%3Ffamily%3DCairo;fontSize=14;" vertex="1" connectable="0" parent="ujhmzePnJQsyI2GIbawa-27">
          <mxGeometry x="-0.5997" y="-1" relative="1" as="geometry">
            <mxPoint y="-1" as="offset" />
          </mxGeometry>
        </mxCell>
        <mxCell id="ujhmzePnJQsyI2GIbawa-29" value="هل حاجة أقدر أعدها؟" style="text;html=1;align=center;verticalAlign=middle;whiteSpace=wrap;rounded=1;fontFamily=Beiruti;fontStyle=1;glass=0;sketch=1;curveFitting=1;jiggle=2;strokeColor=none;fillColor=#f5f5f5;fontColor=#333333;fontSource=https%3A%2F%2Ffonts.googleapis.com%2Fcss%3Ffamily%3DBeiruti;fontSize=18;" vertex="1" parent="ujhmzePnJQsyI2GIbawa-1">
          <mxGeometry x="354.5416017988031" width="168.52996146435453" height="32.50000000000001" as="geometry" />
        </mxCell>
        <mxCell id="ujhmzePnJQsyI2GIbawa-32" value="" style="endArrow=none;html=1;rounded=1;strokeWidth=3;startFill=0;edgeStyle=orthogonalEdgeStyle;curved=0;fillColor=#d0cee2;strokeColor=#56517e;sketch=1;curveFitting=1;jiggle=2;shape=link;" edge="1" parent="1">
          <mxGeometry width="50" height="50" relative="1" as="geometry">
            <mxPoint x="30" y="750" as="sourcePoint" />
            <mxPoint x="2420" y="750" as="targetPoint" />
            <Array as="points">
              <mxPoint x="1658" y="750" />
            </Array>
          </mxGeometry>
        </mxCell>
      </root>
    </mxGraphModel>
  </diagram>
  <diagram name="Copy of Page-18" id="jhMud8RJ46AACfWbtz4C">
    <mxGraphModel dx="983" dy="616" grid="1" gridSize="10" guides="1" tooltips="1" connect="1" arrows="1" fold="1" page="1" pageScale="1" pageWidth="2450" pageHeight="1500" math="1" shadow="0">
      <root>
        <mxCell id="SOEZawQHsMuqZ4AcCndQ-0" />
        <mxCell id="SOEZawQHsMuqZ4AcCndQ-1" parent="SOEZawQHsMuqZ4AcCndQ-0" />
        <mxCell id="SOEZawQHsMuqZ4AcCndQ-2" value="" style="endArrow=none;html=1;rounded=1;strokeWidth=3;startFill=0;edgeStyle=orthogonalEdgeStyle;curved=0;fillColor=#d0cee2;strokeColor=#56517e;sketch=1;curveFitting=1;jiggle=2;shape=link;" edge="1" parent="SOEZawQHsMuqZ4AcCndQ-1">
          <mxGeometry width="50" height="50" relative="1" as="geometry">
            <mxPoint x="548" y="750" as="sourcePoint" />
            <mxPoint x="548" y="40" as="targetPoint" />
            <Array as="points">
              <mxPoint x="548" y="620" />
              <mxPoint x="548" y="620" />
            </Array>
          </mxGeometry>
        </mxCell>
        <mxCell id="SOEZawQHsMuqZ4AcCndQ-3" value="" style="group" vertex="1" connectable="0" parent="SOEZawQHsMuqZ4AcCndQ-1">
          <mxGeometry x="578" y="110" width="279.5" height="191" as="geometry" />
        </mxCell>
        <mxCell id="SOEZawQHsMuqZ4AcCndQ-4" value="Accepted" style="text;html=1;align=center;verticalAlign=middle;whiteSpace=wrap;rounded=0;fontFamily=Mina;fontStyle=1" vertex="1" parent="SOEZawQHsMuqZ4AcCndQ-3">
          <mxGeometry x="108.31999999999994" y="170" width="62.86" height="21" as="geometry" />
        </mxCell>
        <mxCell id="SOEZawQHsMuqZ4AcCndQ-5" value="`D+ = i / N - R`" style="rounded=1;whiteSpace=wrap;html=1;hachureGap=4;fontFamily=Mina;strokeWidth=2;fillColor=#b1ddf0;strokeColor=default;fontSize=13;fontStyle=1;labelBorderColor=none;textShadow=0;labelBackgroundColor=none;align=left;spacing=7;verticalAlign=middle;" vertex="1" parent="SOEZawQHsMuqZ4AcCndQ-3">
          <mxGeometry y="50" width="128" height="51.22" as="geometry" />
        </mxCell>
        <mxCell id="SOEZawQHsMuqZ4AcCndQ-6" value="`D- = R - {i - 1}/N`" style="rounded=1;whiteSpace=wrap;html=1;hachureGap=4;fontFamily=Mina;strokeWidth=2;fillColor=#d0cee2;strokeColor=default;fontSize=13;fontStyle=1;labelBorderColor=none;textShadow=0;labelBackgroundColor=none;align=left;spacing=7;verticalAlign=middle;" vertex="1" parent="SOEZawQHsMuqZ4AcCndQ-3">
          <mxGeometry x="150" y="50" width="129.5" height="51.22" as="geometry" />
        </mxCell>
        <mxCell id="SOEZawQHsMuqZ4AcCndQ-7" value="`D = max(D+, D-)`" style="rounded=1;whiteSpace=wrap;html=1;hachureGap=4;fontFamily=Mina;strokeWidth=2;fillColor=#e1d5e7;strokeColor=#000000;fontSize=14;fontStyle=1;labelBorderColor=none;textShadow=0;labelBackgroundColor=none;align=left;spacing=7;verticalAlign=middle;" vertex="1" parent="SOEZawQHsMuqZ4AcCndQ-3">
          <mxGeometry y="121.22000000000003" width="160" height="40" as="geometry" />
        </mxCell>
        <mxCell id="SOEZawQHsMuqZ4AcCndQ-8" value="`D &amp;lt; D_\alpha`&amp;nbsp;" style="rounded=1;whiteSpace=wrap;html=1;hachureGap=4;fontFamily=Mina;strokeWidth=2;fillColor=#e1d5e7;strokeColor=#000000;fontSize=18;fontStyle=1;labelBorderColor=none;textShadow=0;labelBackgroundColor=none;align=left;spacing=7;verticalAlign=middle;textDirection=ltr;" vertex="1" parent="SOEZawQHsMuqZ4AcCndQ-3">
          <mxGeometry x="180" y="121.22" width="99.5" height="40" as="geometry" />
        </mxCell>
        <mxCell id="SOEZawQHsMuqZ4AcCndQ-9" value="KST" style="rounded=1;whiteSpace=wrap;html=1;hachureGap=4;fontFamily=Mali;strokeWidth=2;fillColor=#2F2CB7;strokeColor=default;fontSize=22;fontStyle=1;labelBorderColor=none;textShadow=0;labelBackgroundColor=none;align=center;spacing=5;verticalAlign=middle;spacingTop=0;spacingRight=2;container=0;fontSource=https%3A%2F%2Ffonts.googleapis.com%2Fcss%3Ffamily%3DMali;fontColor=#FAFAF9;" vertex="1" parent="SOEZawQHsMuqZ4AcCndQ-3">
          <mxGeometry x="109.25" width="61" height="40" as="geometry" />
        </mxCell>
        <mxCell id="SOEZawQHsMuqZ4AcCndQ-10" value="" style="group" vertex="1" connectable="0" parent="SOEZawQHsMuqZ4AcCndQ-1">
          <mxGeometry x="148" y="100" width="281" height="80" as="geometry" />
        </mxCell>
        <mxCell id="SOEZawQHsMuqZ4AcCndQ-11" value="LCM" style="rounded=1;whiteSpace=wrap;html=1;hachureGap=4;fontFamily=Mali;strokeWidth=2;fillColor=#76608a;strokeColor=default;fontSize=22;fontStyle=1;labelBorderColor=none;textShadow=0;labelBackgroundColor=none;align=center;spacing=5;verticalAlign=middle;spacingTop=0;spacingRight=2;fontColor=#ffffff;container=0;fontSource=https%3A%2F%2Ffonts.googleapis.com%2Fcss%3Ffamily%3DMali;" vertex="1" parent="SOEZawQHsMuqZ4AcCndQ-10">
          <mxGeometry x="101" width="79" height="40" as="geometry" />
        </mxCell>
        <mxCell id="SOEZawQHsMuqZ4AcCndQ-12" value="" style="group" vertex="1" connectable="0" parent="SOEZawQHsMuqZ4AcCndQ-10">
          <mxGeometry y="40" width="281" height="40" as="geometry" />
        </mxCell>
        <mxCell id="SOEZawQHsMuqZ4AcCndQ-13" value="&lt;font face=&quot;Mali&quot;&gt;`X_1 = (a \cdot X_\circ + c) % m`&lt;/font&gt;" style="rounded=1;whiteSpace=wrap;html=1;hachureGap=4;fontFamily=Mina;strokeWidth=2;fillColor=#e1d5e7;strokeColor=default;fontSize=16;fontStyle=1;labelBorderColor=none;textShadow=0;labelBackgroundColor=none;align=left;spacing=7;verticalAlign=middle;" vertex="1" parent="SOEZawQHsMuqZ4AcCndQ-12">
          <mxGeometry width="181" height="40" as="geometry" />
        </mxCell>
        <mxCell id="SOEZawQHsMuqZ4AcCndQ-14" value="&lt;font face=&quot;Mali&quot;&gt;`R_1 = X_1/m`&lt;/font&gt;" style="rounded=1;whiteSpace=wrap;html=1;hachureGap=4;fontFamily=Mina;strokeWidth=2;fillColor=#e1d5e7;strokeColor=default;fontSize=14;fontStyle=1;labelBorderColor=none;textShadow=0;labelBackgroundColor=none;align=left;spacing=7;verticalAlign=middle;" vertex="1" parent="SOEZawQHsMuqZ4AcCndQ-12">
          <mxGeometry x="181" width="100" height="40" as="geometry" />
        </mxCell>
        <mxCell id="SOEZawQHsMuqZ4AcCndQ-15" value="Random Numbers Generator" style="shape=hexagon;perimeter=hexagonPerimeter2;whiteSpace=wrap;fixedSize=1;size=16;fillColor=#90D2D8;strokeColor=default;fontFamily=Mali;fontSize=20;strokeWidth=2;align=center;spacingLeft=0;spacingBottom=5;fillStyle=hachure;fontStyle=1;rounded=1;arcSize=14;fontSource=https%3A%2F%2Ffonts.googleapis.com%2Fcss%3Ffamily%3DMali;" vertex="1" parent="SOEZawQHsMuqZ4AcCndQ-1">
          <mxGeometry x="118" y="40" width="320" height="40" as="geometry" />
        </mxCell>
        <mxCell id="SOEZawQHsMuqZ4AcCndQ-16" value="" style="group" vertex="1" connectable="0" parent="SOEZawQHsMuqZ4AcCndQ-1">
          <mxGeometry x="48" y="210" width="480" height="300" as="geometry" />
        </mxCell>
        <mxCell id="SOEZawQHsMuqZ4AcCndQ-17" value="CLCM" style="rounded=1;whiteSpace=wrap;html=1;hachureGap=4;fontFamily=Mali;strokeWidth=2;fillColor=#647687;strokeColor=#314354;fontSize=22;fontStyle=1;labelBorderColor=none;textShadow=0;labelBackgroundColor=none;align=center;spacing=5;verticalAlign=middle;spacingTop=0;spacingRight=2;fontColor=#ffffff;container=0;fontSource=https%3A%2F%2Ffonts.googleapis.com%2Fcss%3Ffamily%3DMali;" vertex="1" parent="SOEZawQHsMuqZ4AcCndQ-16">
          <mxGeometry x="200.5" width="79" height="40" as="geometry" />
        </mxCell>
        <mxCell id="SOEZawQHsMuqZ4AcCndQ-18" value="Period = `\frac{(m_1 - 1)(m_2 - 1) \cdots}{2^{k-1}}`" style="text;html=1;align=center;verticalAlign=middle;whiteSpace=wrap;rounded=1;fontFamily=Mina;fontStyle=1;fontSize=18;fillColor=#f8cecc;strokeColor=#000000;strokeWidth=2;" vertex="1" parent="SOEZawQHsMuqZ4AcCndQ-16">
          <mxGeometry x="90.81" y="230" width="298.38" height="70" as="geometry" />
        </mxCell>
        <mxCell id="SOEZawQHsMuqZ4AcCndQ-19" value="&lt;font face=&quot;Mali&quot;&gt;`X_{1,j} = (a_j \cdot X_{\circ,j} + c_j) % m_j`&lt;/font&gt;" style="rounded=1;whiteSpace=wrap;html=1;hachureGap=4;fontFamily=Mina;strokeWidth=2;fillColor=#e1d5e7;strokeColor=default;fontSize=16;fontStyle=1;labelBorderColor=none;textShadow=0;labelBackgroundColor=none;align=left;spacing=7;verticalAlign=middle;" vertex="1" parent="SOEZawQHsMuqZ4AcCndQ-16">
          <mxGeometry x="125" y="60" width="230" height="40" as="geometry" />
        </mxCell>
        <mxCell id="SOEZawQHsMuqZ4AcCndQ-20" value="&lt;font face=&quot;Mali&quot;&gt;\[ R_{i+1} = \begin{cases} \frac{X_{i+1}}{m_1}, &amp;amp; x &amp;gt; 0 \\ \frac{m_1 - 1} {m_1}, &amp;amp; x=0 \end{cases} \]&lt;/font&gt;" style="rounded=1;whiteSpace=wrap;html=1;hachureGap=4;fontFamily=Mina;strokeWidth=2;fillColor=#fff2cc;strokeColor=default;fontSize=18;fontStyle=1;labelBorderColor=none;textShadow=0;labelBackgroundColor=none;align=left;spacing=7;verticalAlign=middle;" vertex="1" parent="SOEZawQHsMuqZ4AcCndQ-16">
          <mxGeometry x="250" y="119" width="230" height="90" as="geometry" />
        </mxCell>
        <mxCell id="SOEZawQHsMuqZ4AcCndQ-21" value="&lt;font face=&quot;Mali&quot;&gt;`X_{i+1} =`&lt;br&gt;`(x_{i+1, 1} - x_{i + 1,2} \cdots) mod m_1 -1`&lt;/font&gt;" style="rounded=1;whiteSpace=wrap;html=1;hachureGap=4;fontFamily=Mina;strokeWidth=2;fillColor=#d5e8d4;strokeColor=default;fontSize=14;fontStyle=1;labelBorderColor=none;textShadow=0;labelBackgroundColor=none;align=left;spacing=7;verticalAlign=middle;" vertex="1" parent="SOEZawQHsMuqZ4AcCndQ-16">
          <mxGeometry y="119" width="230" height="90" as="geometry" />
        </mxCell>
        <mxCell id="SOEZawQHsMuqZ4AcCndQ-22" value="" style="group" vertex="1" connectable="0" parent="SOEZawQHsMuqZ4AcCndQ-1">
          <mxGeometry x="918" y="120" width="240.03999999999996" height="155" as="geometry" />
        </mxCell>
        <mxCell id="SOEZawQHsMuqZ4AcCndQ-23" value="`\chi_{\circ}^2 = \sum_{i=1}^k {(O_i - E_i)^2}/E_i`" style="rounded=1;whiteSpace=wrap;html=1;hachureGap=4;fontFamily=Mina;strokeWidth=2;fillColor=#ECE1F9;strokeColor=default;fontSize=13;fontStyle=1;labelBorderColor=none;textShadow=0;labelBackgroundColor=none;align=left;spacing=7;verticalAlign=middle;" vertex="1" parent="SOEZawQHsMuqZ4AcCndQ-22">
          <mxGeometry y="47.72000000000003" width="152" height="54.55" as="geometry" />
        </mxCell>
        <mxCell id="SOEZawQHsMuqZ4AcCndQ-24" value="`E = N / n`" style="rounded=1;whiteSpace=wrap;html=1;hachureGap=4;fontFamily=Mina;strokeWidth=2;fillColor=#B7DED2;strokeColor=default;fontSize=13;fontStyle=1;labelBorderColor=none;textShadow=0;labelBackgroundColor=none;align=left;spacing=7;verticalAlign=middle;" vertex="1" parent="SOEZawQHsMuqZ4AcCndQ-22">
          <mxGeometry x="170.03999999999996" y="47.72000000000003" width="70" height="54.55" as="geometry" />
        </mxCell>
        <mxCell id="SOEZawQHsMuqZ4AcCndQ-25" value="Chi-Test" style="rounded=1;whiteSpace=wrap;html=1;hachureGap=4;fontFamily=Mali;strokeWidth=2;fillColor=#6d8764;strokeColor=default;fontSize=22;fontStyle=1;labelBorderColor=none;textShadow=0;labelBackgroundColor=none;align=center;spacing=5;verticalAlign=middle;spacingTop=0;spacingRight=2;container=0;fontSource=https%3A%2F%2Ffonts.googleapis.com%2Fcss%3Ffamily%3DMali;fontColor=#ffffff;" vertex="1" parent="SOEZawQHsMuqZ4AcCndQ-22">
          <mxGeometry x="61.51999999999998" width="117" height="40" as="geometry" />
        </mxCell>
        <mxCell id="SOEZawQHsMuqZ4AcCndQ-26" value="`\chi_{\circ}^2 &amp;lt; \chi_{\alpha}^2` Accepted" style="rounded=1;whiteSpace=wrap;html=1;hachureGap=4;fontFamily=Mina;strokeWidth=2;fillColor=#ACF3E4;strokeColor=default;fontSize=18;fontStyle=1;labelBorderColor=none;textShadow=0;labelBackgroundColor=none;align=center;spacing=7;verticalAlign=middle;textDirection=ltr;" vertex="1" parent="SOEZawQHsMuqZ4AcCndQ-22">
          <mxGeometry y="115" width="240" height="40" as="geometry" />
        </mxCell>
        <mxCell id="SOEZawQHsMuqZ4AcCndQ-27" value="" style="group" vertex="1" connectable="0" parent="SOEZawQHsMuqZ4AcCndQ-1">
          <mxGeometry x="628" y="300" width="502.75" height="184" as="geometry" />
        </mxCell>
        <mxCell id="SOEZawQHsMuqZ4AcCndQ-28" value="Gap" style="rounded=1;whiteSpace=wrap;html=1;hachureGap=4;fontFamily=Mali;strokeWidth=2;fillColor=#a0522d;strokeColor=default;fontSize=22;fontStyle=1;labelBorderColor=none;textShadow=0;labelBackgroundColor=none;align=center;spacing=5;verticalAlign=middle;spacingTop=0;spacingRight=2;fontColor=#ffffff;container=0;fontSource=https%3A%2F%2Ffonts.googleapis.com%2Fcss%3Ffamily%3DMali;" vertex="1" parent="SOEZawQHsMuqZ4AcCndQ-27">
          <mxGeometry x="211.87" width="79" height="40" as="geometry" />
        </mxCell>
        <mxCell id="SOEZawQHsMuqZ4AcCndQ-29" value="" style="group" vertex="1" connectable="0" parent="SOEZawQHsMuqZ4AcCndQ-27">
          <mxGeometry y="60" width="502.75" height="124" as="geometry" />
        </mxCell>
        <mxCell id="SOEZawQHsMuqZ4AcCndQ-30" value="&lt;font&gt;&lt;span&gt;`D = max |F(x)-S_n(x)|`&lt;/span&gt;&lt;/font&gt;" style="rounded=1;whiteSpace=wrap;html=1;strokeWidth=2;fillColor=#ffcc99;strokeColor=default;fontSize=18;fontFamily=Mali;fontSource=https://fonts.googleapis.com/css?family=Mali;fontStyle=0;fontColor=default;" vertex="1" parent="SOEZawQHsMuqZ4AcCndQ-29">
          <mxGeometry y="79" width="230" height="45" as="geometry" />
        </mxCell>
        <mxCell id="SOEZawQHsMuqZ4AcCndQ-31" value="`F(x) = 0.1 - \sum_{n=0}^{x} (0.9)^n `" style="rounded=1;whiteSpace=wrap;html=1;strokeWidth=2;fillColor=#ffcc99;strokeColor=default;fontSize=16;" vertex="1" parent="SOEZawQHsMuqZ4AcCndQ-29">
          <mxGeometry x="280" width="222.75" height="70" as="geometry" />
        </mxCell>
        <mxCell id="SOEZawQHsMuqZ4AcCndQ-32" value="&lt;b&gt;`P (&quot;Gap of X&quot;) =(0.9)^{x}*(0.1)`&amp;nbsp;&lt;/b&gt;" style="rounded=1;whiteSpace=wrap;html=1;strokeWidth=2;fillColor=#ffcc99;strokeColor=default;fontFamily=Mina;fontSize=16;" vertex="1" parent="SOEZawQHsMuqZ4AcCndQ-29">
          <mxGeometry width="256" height="43.75" as="geometry" />
        </mxCell>
        <mxCell id="SOEZawQHsMuqZ4AcCndQ-33" style="edgeStyle=orthogonalEdgeStyle;rounded=1;orthogonalLoop=1;jettySize=auto;html=1;curved=0;" edge="1" parent="SOEZawQHsMuqZ4AcCndQ-29" source="SOEZawQHsMuqZ4AcCndQ-34">
          <mxGeometry relative="1" as="geometry">
            <mxPoint x="188" y="90.05084745762724" as="targetPoint" />
            <Array as="points">
              <mxPoint x="188" y="69" />
            </Array>
          </mxGeometry>
        </mxCell>
        <mxCell id="SOEZawQHsMuqZ4AcCndQ-34" value="Com. Freq." style="text;html=1;align=center;verticalAlign=middle;whiteSpace=wrap;rounded=0;fontFamily=Mina;fontStyle=1" vertex="1" parent="SOEZawQHsMuqZ4AcCndQ-29">
          <mxGeometry x="240" y="59" width="30" height="25" as="geometry" />
        </mxCell>
        <mxCell id="SOEZawQHsMuqZ4AcCndQ-35" value="&lt;span style=&quot;font-family: Mali; font-size: 18px;&quot;&gt;Accepted `D_{alpha}gt D`&lt;/span&gt;" style="rounded=1;whiteSpace=wrap;html=1;strokeWidth=2;fillColor=#ffcc99;strokeColor=default;fontSize=16;" vertex="1" parent="SOEZawQHsMuqZ4AcCndQ-29">
          <mxGeometry x="280" y="84" width="222.75" height="40" as="geometry" />
        </mxCell>
        <mxCell id="SOEZawQHsMuqZ4AcCndQ-36" value="" style="group" vertex="1" connectable="0" parent="SOEZawQHsMuqZ4AcCndQ-1">
          <mxGeometry x="808" y="510" width="357.9499999999998" height="200" as="geometry" />
        </mxCell>
        <mxCell id="SOEZawQHsMuqZ4AcCndQ-37" value="&lt;b&gt;`Z_0=frac{a-mu_a}{sigma_a}`&lt;/b&gt;" style="rounded=1;whiteSpace=wrap;html=1;strokeWidth=2;fillColor=#ffff88;strokeColor=default;fontFamily=Mina;fontSize=16;arcSize=9;" vertex="1" parent="SOEZawQHsMuqZ4AcCndQ-36">
          <mxGeometry x="113.97000000000003" y="140" width="130" height="60" as="geometry" />
        </mxCell>
        <mxCell id="SOEZawQHsMuqZ4AcCndQ-38" value="Run Test" style="rounded=1;whiteSpace=wrap;html=1;hachureGap=4;fontFamily=Mali;strokeWidth=2;fillColor=#BDA700;strokeColor=default;fontSize=22;fontStyle=1;labelBorderColor=none;textShadow=0;labelBackgroundColor=none;align=center;spacing=5;verticalAlign=middle;spacingTop=0;spacingRight=2;fontColor=#000000;container=0;fontSource=https%3A%2F%2Ffonts.googleapis.com%2Fcss%3Ffamily%3DMali;" vertex="1" parent="SOEZawQHsMuqZ4AcCndQ-36">
          <mxGeometry x="120.34000000000003" width="117.26" height="40" as="geometry" />
        </mxCell>
        <mxCell id="SOEZawQHsMuqZ4AcCndQ-39" value="" style="group" vertex="1" connectable="0" parent="SOEZawQHsMuqZ4AcCndQ-36">
          <mxGeometry y="60" width="357.9499999999998" height="60" as="geometry" />
        </mxCell>
        <mxCell id="SOEZawQHsMuqZ4AcCndQ-40" value="&lt;b&gt;`mu_a = {2N-1}/{3}`&lt;/b&gt;" style="rounded=1;whiteSpace=wrap;html=1;strokeWidth=2;fillColor=#ffff88;strokeColor=default;fontFamily=Mina;fontSize=16;arcSize=9;" vertex="1" parent="SOEZawQHsMuqZ4AcCndQ-39">
          <mxGeometry width="144" height="60" as="geometry" />
        </mxCell>
        <mxCell id="SOEZawQHsMuqZ4AcCndQ-41" value="&lt;b&gt;`sigma_a =sqrt{ frac{16N-29}{90}}`&lt;/b&gt;" style="rounded=1;whiteSpace=wrap;html=1;strokeWidth=2;fillColor=#ffff88;strokeColor=default;fontFamily=Mina;fontSize=16;arcSize=9;" vertex="1" parent="SOEZawQHsMuqZ4AcCndQ-39">
          <mxGeometry x="164.2299999999999" width="193.72" height="60" as="geometry" />
        </mxCell>
        <mxCell id="SOEZawQHsMuqZ4AcCndQ-42" value="" style="group" vertex="1" connectable="0" parent="SOEZawQHsMuqZ4AcCndQ-1">
          <mxGeometry x="598" y="510" width="170" height="167.2800000000002" as="geometry" />
        </mxCell>
        <mxCell id="SOEZawQHsMuqZ4AcCndQ-43" value="`\x_{circ} = \sum_{i=1}^k {(O_i - E_i)^2}/E_i`" style="rounded=1;whiteSpace=wrap;html=1;hachureGap=4;fontFamily=Mina;strokeWidth=2;fillColor=#ECE1F9;strokeColor=default;fontSize=13;fontStyle=1;labelBorderColor=none;textShadow=0;labelBackgroundColor=none;align=center;spacing=7;verticalAlign=middle;" vertex="1" parent="SOEZawQHsMuqZ4AcCndQ-42">
          <mxGeometry y="60" width="170" height="54.55" as="geometry" />
        </mxCell>
        <mxCell id="SOEZawQHsMuqZ4AcCndQ-44" value="Poker" style="rounded=1;whiteSpace=wrap;html=1;hachureGap=4;fontFamily=Mali;strokeWidth=2;fillColor=#647687;strokeColor=default;fontSize=22;fontStyle=1;labelBorderColor=none;textShadow=0;labelBackgroundColor=none;align=center;spacing=5;verticalAlign=middle;spacingTop=0;spacingRight=2;container=0;fontSource=https%3A%2F%2Ffonts.googleapis.com%2Fcss%3Ffamily%3DMali;fontColor=#ffffff;" vertex="1" parent="SOEZawQHsMuqZ4AcCndQ-42">
          <mxGeometry x="26.5" width="117" height="40" as="geometry" />
        </mxCell>
        <mxCell id="SOEZawQHsMuqZ4AcCndQ-45" value="`\x_{\circ} &amp;lt; \x_{\alpha}` Accepted" style="rounded=1;whiteSpace=wrap;html=1;hachureGap=4;fontFamily=Mina;strokeWidth=2;fillColor=#ACF3E4;strokeColor=default;fontSize=18;fontStyle=1;labelBorderColor=none;textShadow=0;labelBackgroundColor=none;align=center;spacing=7;verticalAlign=middle;textDirection=ltr;" vertex="1" parent="SOEZawQHsMuqZ4AcCndQ-42">
          <mxGeometry y="127.2800000000002" width="170" height="40" as="geometry" />
        </mxCell>
        <mxCell id="SOEZawQHsMuqZ4AcCndQ-46" value="" style="group" vertex="1" connectable="0" parent="SOEZawQHsMuqZ4AcCndQ-1">
          <mxGeometry x="1218" y="130" width="440" height="400" as="geometry" />
        </mxCell>
        <mxCell id="SOEZawQHsMuqZ4AcCndQ-47" value="" style="group" vertex="1" connectable="0" parent="SOEZawQHsMuqZ4AcCndQ-46">
          <mxGeometry y="50" width="440" height="350" as="geometry" />
        </mxCell>
        <mxCell id="SOEZawQHsMuqZ4AcCndQ-48" value="" style="group" vertex="1" connectable="0" parent="SOEZawQHsMuqZ4AcCndQ-47">
          <mxGeometry y="70" width="440" height="180" as="geometry" />
        </mxCell>
        <mxCell id="SOEZawQHsMuqZ4AcCndQ-49" value="`Z_0 = \frac{\rho_{im}^{\hat{}}}{\sigma_{\rho_{im}^{\hat{}}}^{\hat{}}}`" style="rounded=1;whiteSpace=wrap;html=1;strokeWidth=2;fillColor=#cce5ff;strokeColor=default;fontSize=18;arcSize=8;" vertex="1" parent="SOEZawQHsMuqZ4AcCndQ-48">
          <mxGeometry width="142" height="80" as="geometry" />
        </mxCell>
        <mxCell id="SOEZawQHsMuqZ4AcCndQ-50" value="`\rho_{im}^{\hat{}}&amp;nbsp;= \frac{1}{M+1} * \left[ \sum_{k=0}^{M} R_{i+km} \cdot R_{i+(k+1)m} \right] - 0.25&lt;br&gt;`" style="rounded=1;whiteSpace=wrap;html=1;strokeWidth=2;fillColor=#cce5ff;strokeColor=default;arcSize=8;fontSize=18;" vertex="1" parent="SOEZawQHsMuqZ4AcCndQ-48">
          <mxGeometry y="100" width="440" height="80" as="geometry" />
        </mxCell>
        <mxCell id="SOEZawQHsMuqZ4AcCndQ-51" value="`\sigma_{\rho_{im}^{\hat{}}}^{\hat{}}=frac{sqrt{13M + 7}}{12(M+1)}`" style="rounded=1;whiteSpace=wrap;html=1;strokeWidth=2;fillColor=#cce5ff;strokeColor=default;arcSize=8;fontSize=18;" vertex="1" parent="SOEZawQHsMuqZ4AcCndQ-48">
          <mxGeometry x="247" width="193" height="80" as="geometry" />
        </mxCell>
        <mxCell id="SOEZawQHsMuqZ4AcCndQ-52" value="`Z_{-alpha}&amp;lt;Z_0&amp;lt;Z_{alpha}` Accepted" style="rounded=1;whiteSpace=wrap;html=1;strokeWidth=2;fillColor=#cce5ff;strokeColor=default;arcSize=8;fontSize=18;fontFamily=Mali;fontSource=https%3A%2F%2Ffonts.googleapis.com%2Fcss%3Ffamily%3DMali;fontStyle=1" vertex="1" parent="SOEZawQHsMuqZ4AcCndQ-47">
          <mxGeometry x="80" y="280" width="280" height="50" as="geometry" />
        </mxCell>
        <mxCell id="SOEZawQHsMuqZ4AcCndQ-53" value="`M=i+(M+1) * m le N`" style="rounded=1;whiteSpace=wrap;html=1;hachureGap=4;strokeWidth=2;fillColor=#cce5ff;strokeColor=#000000;textShadow=0;align=center;spacing=7;verticalAlign=middle;spacingBottom=0;fontSize=16;" vertex="1" parent="SOEZawQHsMuqZ4AcCndQ-47">
          <mxGeometry x="106" y="20" width="228" height="40" as="geometry" />
        </mxCell>
        <mxCell id="SOEZawQHsMuqZ4AcCndQ-54" value="Auto Correlation" style="rounded=1;whiteSpace=wrap;html=1;hachureGap=4;strokeWidth=2;fillColor=#0050ef;strokeColor=default;textShadow=0;align=center;spacing=7;verticalAlign=middle;spacingBottom=0;fontSize=19;fontColor=#ffffff;fontFamily=Mali;fontSource=https%3A%2F%2Ffonts.googleapis.com%2Fcss%3Ffamily%3DMali;fontStyle=1" vertex="1" parent="SOEZawQHsMuqZ4AcCndQ-46">
          <mxGeometry x="106" width="228" height="40" as="geometry" />
        </mxCell>
        <mxCell id="SOEZawQHsMuqZ4AcCndQ-55" value="Testing Random Generators" style="shape=hexagon;perimeter=hexagonPerimeter2;whiteSpace=wrap;fixedSize=1;size=16;fillColor=#d80073;strokeColor=default;fontFamily=Mali;fontSize=29;strokeWidth=2;align=center;spacingLeft=0;spacingBottom=5;fillStyle=hachure;fontStyle=1;rounded=1;arcSize=14;fontSource=https%3A%2F%2Ffonts.googleapis.com%2Fcss%3Ffamily%3DMali;fontColor=#ffffff;" vertex="1" parent="SOEZawQHsMuqZ4AcCndQ-1">
          <mxGeometry x="698" y="40" width="878.62" height="40" as="geometry" />
        </mxCell>
        <mxCell id="SOEZawQHsMuqZ4AcCndQ-56" value="" style="endArrow=none;html=1;rounded=1;strokeWidth=3;startFill=0;edgeStyle=orthogonalEdgeStyle;curved=0;fillColor=#d0cee2;strokeColor=#56517e;sketch=1;curveFitting=1;jiggle=2;shape=link;" edge="1" parent="SOEZawQHsMuqZ4AcCndQ-1">
          <mxGeometry width="50" height="50" relative="1" as="geometry">
            <mxPoint x="1688" y="750" as="sourcePoint" />
            <mxPoint x="1688" y="40" as="targetPoint" />
            <Array as="points">
              <mxPoint x="1688" y="620" />
              <mxPoint x="1688" y="620" />
            </Array>
          </mxGeometry>
        </mxCell>
        <mxCell id="SOEZawQHsMuqZ4AcCndQ-57" value="Pursuit" style="rounded=1;whiteSpace=wrap;html=1;hachureGap=4;fontFamily=Mali;strokeWidth=2;fillColor=#008a00;strokeColor=default;fontSize=22;fontStyle=1;labelBorderColor=none;textShadow=0;labelBackgroundColor=none;align=center;spacing=5;verticalAlign=middle;spacingTop=0;spacingRight=2;container=0;fontSource=https%3A%2F%2Ffonts.googleapis.com%2Fcss%3Ffamily%3DMali;fontColor=#ffffff;" vertex="1" parent="SOEZawQHsMuqZ4AcCndQ-1">
          <mxGeometry x="1967.5" y="110" width="117" height="40" as="geometry" />
        </mxCell>
        <mxCell id="SOEZawQHsMuqZ4AcCndQ-58" value="" style="group" vertex="1" connectable="0" parent="SOEZawQHsMuqZ4AcCndQ-1">
          <mxGeometry x="1708" y="170" width="636" height="113" as="geometry" />
        </mxCell>
        <UserObject label="`\&quot;Dist&quot; = sqrt{(X_B - X_F)^2 + (Y_B - Y_F)^2}`" id="SOEZawQHsMuqZ4AcCndQ-59">
          <mxCell style="rounded=1;whiteSpace=wrap;html=1;arcSize=8;strokeWidth=2;fillColor=#cdeb8b;strokeColor=default;fontSize=14;" vertex="1" parent="SOEZawQHsMuqZ4AcCndQ-58">
            <mxGeometry width="280" height="46" as="geometry" />
          </mxCell>
        </UserObject>
        <UserObject label="`\sin(theta) = {Y_B - Y_F}/{&quot;Dist&quot;}`" id="SOEZawQHsMuqZ4AcCndQ-60">
          <mxCell style="rounded=1;whiteSpace=wrap;html=1;arcSize=8;strokeWidth=2;fillColor=#cdeb8b;strokeColor=default;fontSize=14;" vertex="1" parent="SOEZawQHsMuqZ4AcCndQ-58">
            <mxGeometry x="292" width="160" height="46" as="geometry" />
          </mxCell>
        </UserObject>
        <UserObject label="`\cos(\theta) = {X_B - X_F}/{&quot;Dist&quot;}`" id="SOEZawQHsMuqZ4AcCndQ-61">
          <mxCell style="rounded=1;whiteSpace=wrap;html=1;arcSize=8;strokeWidth=2;fillColor=#cdeb8b;strokeColor=default;align=center;fontSize=14;" vertex="1" parent="SOEZawQHsMuqZ4AcCndQ-58">
            <mxGeometry x="466.34000000000015" width="169.66" height="46" as="geometry" />
          </mxCell>
        </UserObject>
        <UserObject label="`X_F(t+1) = X_F(t) + V_F \cdot \cos(\theta)`" id="SOEZawQHsMuqZ4AcCndQ-62">
          <mxCell style="rounded=1;whiteSpace=wrap;html=1;arcSize=8;strokeWidth=2;fillColor=#cdeb8b;strokeColor=default;fontSize=16;" vertex="1" parent="SOEZawQHsMuqZ4AcCndQ-58">
            <mxGeometry y="67" width="280" height="46" as="geometry" />
          </mxCell>
        </UserObject>
        <UserObject label="`Y_F(t+1) = Y_F(t) + V_F \cdot \sin(\theta)`" id="SOEZawQHsMuqZ4AcCndQ-63">
          <mxCell style="rounded=1;whiteSpace=wrap;html=1;arcSize=8;strokeWidth=2;fillColor=#cdeb8b;strokeColor=default;fontSize=16;" vertex="1" parent="SOEZawQHsMuqZ4AcCndQ-58">
            <mxGeometry x="350" y="67" width="286" height="46" as="geometry" />
          </mxCell>
        </UserObject>
        <mxCell id="SOEZawQHsMuqZ4AcCndQ-64" value="Cake Shop" style="rounded=1;whiteSpace=wrap;html=1;hachureGap=4;fontFamily=Mali;strokeWidth=2;fillColor=#76608a;strokeColor=default;fontSize=22;fontStyle=1;labelBorderColor=none;textShadow=0;labelBackgroundColor=none;align=center;spacing=5;verticalAlign=middle;spacingTop=0;spacingRight=2;container=0;fontSource=https%3A%2F%2Ffonts.googleapis.com%2Fcss%3Ffamily%3DMali;fontColor=#ffffff;" vertex="1" parent="SOEZawQHsMuqZ4AcCndQ-1">
          <mxGeometry x="1968.5" y="334" width="143" height="40" as="geometry" />
        </mxCell>
        <mxCell id="SOEZawQHsMuqZ4AcCndQ-65" value="" style="group" vertex="1" connectable="0" parent="SOEZawQHsMuqZ4AcCndQ-1">
          <mxGeometry x="1748" y="385" width="584" height="102" as="geometry" />
        </mxCell>
        <mxCell id="SOEZawQHsMuqZ4AcCndQ-66" value="" style="group;flipH=1;" vertex="1" connectable="0" parent="SOEZawQHsMuqZ4AcCndQ-65">
          <mxGeometry x="234" width="350" height="100" as="geometry" />
        </mxCell>
        <mxCell id="SOEZawQHsMuqZ4AcCndQ-67" value="&lt;b&gt;`z=d(p-c)+(x-d)(s-c)`&lt;/b&gt;" style="rounded=1;whiteSpace=wrap;html=1;strokeWidth=2;fillColor=#e1d5e7;strokeColor=default;fontFamily=Mina;fontSize=22;fontStyle=0" vertex="1" parent="SOEZawQHsMuqZ4AcCndQ-66">
          <mxGeometry y="50" width="350" height="50" as="geometry" />
        </mxCell>
        <mxCell id="SOEZawQHsMuqZ4AcCndQ-68" value="&lt;span&gt;If `x gt d`&amp;nbsp;&lt;/span&gt;" style="rounded=1;whiteSpace=wrap;html=1;strokeWidth=2;fillColor=#76608a;strokeColor=default;fontFamily=Oxanium;fontSize=22;fontColor=#ffffff;fontSource=https%3A%2F%2Ffonts.googleapis.com%2Fcss%3Ffamily%3DOxanium;fontStyle=0" vertex="1" parent="SOEZawQHsMuqZ4AcCndQ-66">
          <mxGeometry x="160" width="110" height="50" as="geometry" />
        </mxCell>
        <mxCell id="SOEZawQHsMuqZ4AcCndQ-69" value="&lt;span&gt;2&lt;/span&gt;" style="rounded=1;whiteSpace=wrap;html=1;strokeWidth=2;fillColor=#76608a;strokeColor=default;fontFamily=Oxanium;fontSize=22;fontColor=#ffffff;fontSource=https%3A%2F%2Ffonts.googleapis.com%2Fcss%3Ffamily%3DOxanium;fontStyle=0" vertex="1" parent="SOEZawQHsMuqZ4AcCndQ-66">
          <mxGeometry x="270" width="50" height="50" as="geometry" />
        </mxCell>
        <mxCell id="SOEZawQHsMuqZ4AcCndQ-70" value="" style="group" vertex="1" connectable="0" parent="SOEZawQHsMuqZ4AcCndQ-65">
          <mxGeometry y="2" width="160" height="100" as="geometry" />
        </mxCell>
        <mxCell id="SOEZawQHsMuqZ4AcCndQ-71" value="&lt;b&gt;`z=x(p-c)`&lt;/b&gt;" style="rounded=1;whiteSpace=wrap;html=1;strokeWidth=2;fillColor=#e1d5e7;strokeColor=default;fontFamily=Mina;fontSize=22;fontStyle=2" vertex="1" parent="SOEZawQHsMuqZ4AcCndQ-70">
          <mxGeometry y="50" width="160" height="50" as="geometry" />
        </mxCell>
        <mxCell id="SOEZawQHsMuqZ4AcCndQ-72" value="&lt;span&gt;If `x le d`&amp;nbsp;&lt;/span&gt;" style="rounded=1;whiteSpace=wrap;html=1;strokeWidth=2;fillColor=#76608a;strokeColor=default;fontFamily=Oxanium;fontSize=22;fontColor=#ffffff;fontSource=https%3A%2F%2Ffonts.googleapis.com%2Fcss%3Ffamily%3DOxanium;fontStyle=0" vertex="1" parent="SOEZawQHsMuqZ4AcCndQ-70">
          <mxGeometry x="50" width="110" height="50" as="geometry" />
        </mxCell>
        <mxCell id="SOEZawQHsMuqZ4AcCndQ-73" value="&lt;span&gt;1&lt;/span&gt;" style="rounded=1;whiteSpace=wrap;html=1;strokeWidth=2;fillColor=#76608a;strokeColor=default;fontFamily=Oxanium;fontSize=22;fontColor=#ffffff;fontSource=https%3A%2F%2Ffonts.googleapis.com%2Fcss%3Ffamily%3DOxanium;fontStyle=0" vertex="1" parent="SOEZawQHsMuqZ4AcCndQ-70">
          <mxGeometry width="50" height="50" as="geometry" />
        </mxCell>
        <mxCell id="SOEZawQHsMuqZ4AcCndQ-74" value="" style="group" vertex="1" connectable="0" parent="SOEZawQHsMuqZ4AcCndQ-1">
          <mxGeometry x="772" y="850" width="768.12" height="248.20299999999997" as="geometry" />
        </mxCell>
        <mxCell id="SOEZawQHsMuqZ4AcCndQ-75" value="\[ f(x) = \begin{cases} \frac{1}{b-a}, &amp;amp; a \le x \le b \\ 0, &amp;amp; \text{otherwise} \end{cases} \]" style="rounded=0;whiteSpace=wrap;html=1;strokeWidth=2;fillColor=#E6D0DE;strokeColor=#000000;container=0;fontSize=16;fontStyle=1;fontFamily=Mina;fontSource=https://fonts.googleapis.com/css?family=Mina;spacingLeft=2;spacingRight=2;align=left;" vertex="1" parent="SOEZawQHsMuqZ4AcCndQ-74">
          <mxGeometry x="117" y="36.159999999999854" width="237.02" height="79.88" as="geometry" />
        </mxCell>
        <mxCell id="SOEZawQHsMuqZ4AcCndQ-76" value="&lt;div style=&quot;direction: ltr;&quot;&gt;\[ f(x) = \begin{cases} \lambda e^{-\lambda x}, &amp;amp; x\ge 0 \\ 0, &amp;amp; \text{otherwise} \end{cases} \]&lt;/div&gt;" style="rounded=0;whiteSpace=wrap;html=1;strokeWidth=2;fillColor=#F8CECC;strokeColor=#000000;container=0;fontSize=16;fontStyle=1;fontFamily=Mina;fontSource=https://fonts.googleapis.com/css?family=Mina;spacingLeft=2;spacingRight=2;align=left;" vertex="1" parent="SOEZawQHsMuqZ4AcCndQ-74">
          <mxGeometry x="117" y="116.11999999999989" width="237.02" height="70" as="geometry" />
        </mxCell>
        <mxCell id="SOEZawQHsMuqZ4AcCndQ-77" value="\[ f(x)=\frac{1}{\sigma \sqrt{2 \pi}} \cdot e^{\frac{1}{2}(\frac{x-\mu}{\sigma})^2} \]" style="rounded=0;whiteSpace=wrap;html=1;strokeWidth=2;fillColor=#D5E8D4;strokeColor=#000000;container=0;fontSize=16;fontStyle=1;fontFamily=Mina;fontSource=https://fonts.googleapis.com/css?family=Mina;spacingLeft=2;spacingRight=2;align=left;" vertex="1" parent="SOEZawQHsMuqZ4AcCndQ-74">
          <mxGeometry x="117" y="186.1199999999999" width="237.02" height="62.08" as="geometry" />
        </mxCell>
        <mxCell id="SOEZawQHsMuqZ4AcCndQ-78" value="Uniform" style="rounded=0;whiteSpace=wrap;html=1;strokeWidth=2;fillColor=#E6D0DE;strokeColor=#000000;container=0;fontSize=16;fontStyle=1;fontFamily=Mina;fontSource=https://fonts.googleapis.com/css?family=Mina;align=center;spacingLeft=2;spacingRight=2;" vertex="1" parent="SOEZawQHsMuqZ4AcCndQ-74">
          <mxGeometry x="37" y="36.159999999999854" width="80" height="79.88" as="geometry" />
        </mxCell>
        <mxCell id="SOEZawQHsMuqZ4AcCndQ-79" value="Expo." style="rounded=0;whiteSpace=wrap;html=1;strokeWidth=2;fillColor=#F8CECC;strokeColor=#000000;container=0;fontSize=16;fontStyle=1;fontFamily=Mina;fontSource=https://fonts.googleapis.com/css?family=Mina;align=center;spacingLeft=2;spacingRight=2;horizontal=1;" vertex="1" parent="SOEZawQHsMuqZ4AcCndQ-74">
          <mxGeometry x="36.999999999999986" y="116.11999999999989" width="80" height="70" as="geometry" />
        </mxCell>
        <mxCell id="SOEZawQHsMuqZ4AcCndQ-80" value="Normal" style="rounded=0;whiteSpace=wrap;html=1;strokeWidth=2;fillColor=#D5E8D4;strokeColor=#000000;container=0;fontSize=16;fontStyle=1;fontFamily=Mina;fontSource=https://fonts.googleapis.com/css?family=Mina;align=center;spacingLeft=2;spacingRight=2;" vertex="1" parent="SOEZawQHsMuqZ4AcCndQ-74">
          <mxGeometry x="36.999999999999986" y="186.1199999999999" width="80" height="62.08" as="geometry" />
        </mxCell>
        <mxCell id="SOEZawQHsMuqZ4AcCndQ-81" value="`\frac{a+b}{2}`" style="rounded=0;whiteSpace=wrap;html=1;strokeWidth=2;fillColor=#E6D0DE;strokeColor=#000000;container=0;fontSize=16;fontStyle=1;fontFamily=Mina;fontSource=https://fonts.googleapis.com/css?family=Mina;spacingLeft=2;spacingRight=2;" vertex="1" parent="SOEZawQHsMuqZ4AcCndQ-74">
          <mxGeometry x="591.08" y="36.039999999999964" width="90" height="80" as="geometry" />
        </mxCell>
        <mxCell id="SOEZawQHsMuqZ4AcCndQ-82" value="`\frac{(b-a)^2}{12}`" style="rounded=0;whiteSpace=wrap;html=1;strokeWidth=2;fillColor=#E6D0DE;strokeColor=#000000;container=0;fontSize=16;fontStyle=1;fontFamily=Mina;fontSource=https://fonts.googleapis.com/css?family=Mina;spacingLeft=2;spacingRight=2;" vertex="1" parent="SOEZawQHsMuqZ4AcCndQ-74">
          <mxGeometry x="681.12" y="36.039999999999964" width="87" height="80" as="geometry" />
        </mxCell>
        <mxCell id="SOEZawQHsMuqZ4AcCndQ-83" value="`\frac{1}{\lambda}`" style="rounded=0;whiteSpace=wrap;html=1;strokeWidth=2;fillColor=#F8CECC;strokeColor=#000000;container=0;fontSize=16;fontStyle=1;fontFamily=Mina;fontSource=https://fonts.googleapis.com/css?family=Mina;spacingLeft=2;spacingRight=2;" vertex="1" parent="SOEZawQHsMuqZ4AcCndQ-74">
          <mxGeometry x="591.0799999999999" y="116" width="90" height="70" as="geometry" />
        </mxCell>
        <mxCell id="SOEZawQHsMuqZ4AcCndQ-84" value="\[-\]" style="rounded=0;whiteSpace=wrap;html=1;strokeWidth=2;fillColor=#D5E8D4;strokeColor=#000000;container=0;fontSize=16;fontStyle=1;fontFamily=Mina;fontSource=https://fonts.googleapis.com/css?family=Mina;spacingLeft=2;spacingRight=2;" vertex="1" parent="SOEZawQHsMuqZ4AcCndQ-74">
          <mxGeometry x="591.0799999999999" y="186" width="90" height="62" as="geometry" />
        </mxCell>
        <mxCell id="SOEZawQHsMuqZ4AcCndQ-85" value="`\frac{1}{\lambda^2}`" style="rounded=0;whiteSpace=wrap;html=1;strokeWidth=2;fillColor=#F8CECC;strokeColor=#000000;container=0;fontSize=16;fontStyle=1;fontFamily=Mina;fontSource=https://fonts.googleapis.com/css?family=Mina;spacingLeft=2;spacingRight=2;" vertex="1" parent="SOEZawQHsMuqZ4AcCndQ-74">
          <mxGeometry x="681.0799999999999" y="116" width="87.04" height="70" as="geometry" />
        </mxCell>
        <mxCell id="SOEZawQHsMuqZ4AcCndQ-86" value="\[-\]" style="rounded=0;whiteSpace=wrap;html=1;strokeWidth=2;fillColor=#D5E8D4;strokeColor=#000000;container=0;fontSize=16;fontStyle=1;fontFamily=Mina;fontSource=https://fonts.googleapis.com/css?family=Mina;spacingLeft=2;spacingRight=2;" vertex="1" parent="SOEZawQHsMuqZ4AcCndQ-74">
          <mxGeometry x="681.0799999999999" y="186" width="87.04" height="62" as="geometry" />
        </mxCell>
        <mxCell id="SOEZawQHsMuqZ4AcCndQ-87" value="Continuous" style="rounded=0;whiteSpace=wrap;html=1;strokeWidth=2;fillColor=#eeeeee;strokeColor=#000000;container=0;fontSize=22;fontStyle=1;fontFamily=Mina;fontSource=https://fonts.googleapis.com/css?family=Mina;align=center;spacingLeft=2;spacingRight=2;flipV=0;flipH=1;horizontal=0;" vertex="1" parent="SOEZawQHsMuqZ4AcCndQ-74">
          <mxGeometry y="36.159999999999854" width="37" height="212.043" as="geometry" />
        </mxCell>
        <mxCell id="SOEZawQHsMuqZ4AcCndQ-88" value="\[ F(x) = \begin{cases} 0, &amp;amp; x &amp;lt; a \\ \frac{x - a}{b-a}, &amp;amp; a \le x &amp;lt; b \\ 1, &amp;amp; x \ge b \end{cases} \]" style="rounded=0;whiteSpace=wrap;html=1;strokeWidth=2;fillColor=#E6D0DE;strokeColor=#000000;container=0;fontSize=16;fontStyle=1;fontFamily=Mina;fontSource=https://fonts.googleapis.com/css?family=Mina;spacingLeft=2;spacingRight=2;align=left;" vertex="1" parent="SOEZawQHsMuqZ4AcCndQ-74">
          <mxGeometry x="354.06" y="36.039999999999964" width="237.02" height="80" as="geometry" />
        </mxCell>
        <mxCell id="SOEZawQHsMuqZ4AcCndQ-89" value="&lt;div style=&quot;direction: ltr;&quot;&gt;\[ F(x) = \begin{cases} 0, &amp;amp; x &amp;lt; 0 \\ 1 - e^{-\lambda x}, &amp;amp; x\ge 0 \end{cases}\]&lt;/div&gt;" style="rounded=0;whiteSpace=wrap;html=1;strokeWidth=2;fillColor=#F8CECC;strokeColor=#000000;container=0;fontSize=16;fontStyle=1;fontFamily=Mina;fontSource=https://fonts.googleapis.com/css?family=Mina;spacingLeft=2;spacingRight=2;align=left;" vertex="1" parent="SOEZawQHsMuqZ4AcCndQ-74">
          <mxGeometry x="354.06" y="116" width="237.02" height="70" as="geometry" />
        </mxCell>
        <mxCell id="SOEZawQHsMuqZ4AcCndQ-90" value="\[-\]" style="rounded=0;whiteSpace=wrap;html=1;strokeWidth=2;fillColor=#D5E8D4;strokeColor=#000000;container=0;fontSize=16;fontStyle=1;fontFamily=Mina;fontSource=https://fonts.googleapis.com/css?family=Mina;spacingLeft=2;spacingRight=2;align=center;" vertex="1" parent="SOEZawQHsMuqZ4AcCndQ-74">
          <mxGeometry x="354.06" y="186" width="237.02" height="62.08" as="geometry" />
        </mxCell>
        <mxCell id="SOEZawQHsMuqZ4AcCndQ-91" value="&lt;span style=&quot;font-weight: 700;&quot;&gt;`P(x)`&lt;/span&gt;" style="rounded=0;whiteSpace=wrap;html=1;strokeWidth=2;container=0;fontSize=16;fontFamily=Mina;fontSource=https://fonts.googleapis.com/css?family=Mina;spacingLeft=2;spacingRight=2;fillColor=#eeeeee;strokeColor=#000000;" vertex="1" parent="SOEZawQHsMuqZ4AcCndQ-74">
          <mxGeometry x="117" width="237" height="36.04" as="geometry" />
        </mxCell>
        <mxCell id="SOEZawQHsMuqZ4AcCndQ-92" value="&lt;span style=&quot;font-size: 16px; font-weight: 700;&quot;&gt;Dist.&lt;/span&gt;" style="rounded=0;whiteSpace=wrap;html=1;strokeWidth=2;container=0;fontSize=16;fontFamily=Mina;fontSource=https://fonts.googleapis.com/css?family=Mina;align=center;spacingLeft=2;spacingRight=2;fillColor=#eeeeee;strokeColor=#000000;" vertex="1" parent="SOEZawQHsMuqZ4AcCndQ-74">
          <mxGeometry x="36.999999999999986" width="80" height="36.04" as="geometry" />
        </mxCell>
        <mxCell id="SOEZawQHsMuqZ4AcCndQ-93" value="&lt;span style=&quot;font-weight: 700;&quot;&gt;`E(x_i)=\mu`&lt;/span&gt;" style="rounded=0;whiteSpace=wrap;html=1;strokeWidth=2;container=0;fontSize=15;fontFamily=Mina;fontSource=https://fonts.googleapis.com/css?family=Mina;spacingLeft=2;spacingRight=2;fillColor=#eeeeee;strokeColor=#000000;" vertex="1" parent="SOEZawQHsMuqZ4AcCndQ-74">
          <mxGeometry x="591.08" y="0.11999999999989086" width="90" height="36.04" as="geometry" />
        </mxCell>
        <mxCell id="SOEZawQHsMuqZ4AcCndQ-94" value="&lt;b&gt;`V(x_i)`&lt;/b&gt;" style="rounded=0;whiteSpace=wrap;html=1;strokeWidth=2;container=0;fontSize=16;fontFamily=Mina;fontSource=https://fonts.googleapis.com/css?family=Mina;spacingLeft=2;spacingRight=2;fillColor=#eeeeee;strokeColor=#000000;" vertex="1" parent="SOEZawQHsMuqZ4AcCndQ-74">
          <mxGeometry x="681.16" y="0.11999999999989086" width="86.96" height="36.04" as="geometry" />
        </mxCell>
        <mxCell id="SOEZawQHsMuqZ4AcCndQ-95" value="&lt;span style=&quot;font-weight: 700;&quot;&gt;CDF `F(x)`&lt;/span&gt;" style="rounded=0;whiteSpace=wrap;html=1;strokeWidth=2;container=0;fontSize=16;fontFamily=Mina;fontSource=https://fonts.googleapis.com/css?family=Mina;spacingLeft=2;spacingRight=2;fillColor=#eeeeee;strokeColor=#000000;" vertex="1" parent="SOEZawQHsMuqZ4AcCndQ-74">
          <mxGeometry x="354.08000000000004" y="0.11999999999989086" width="237" height="36.04" as="geometry" />
        </mxCell>
        <mxCell id="SOEZawQHsMuqZ4AcCndQ-96" value="" style="group" vertex="1" connectable="0" parent="SOEZawQHsMuqZ4AcCndQ-1">
          <mxGeometry x="82" y="850" width="637.04" height="294.0799999999999" as="geometry" />
        </mxCell>
        <mxCell id="SOEZawQHsMuqZ4AcCndQ-97" value="\[ P(x_i) = \begin{cases} p, &amp;amp; x_i = 1 \\ q:=1-p, &amp;amp; x_i = 0 \end{cases} \]" style="rounded=0;whiteSpace=wrap;html=1;strokeWidth=2;fillColor=#FFF2CC;strokeColor=#000000;container=0;fontSize=16;fontStyle=1;fontFamily=Mina;fontSource=https://fonts.googleapis.com/css?family=Mina;spacingLeft=2;spacingRight=2;align=left;" vertex="1" parent="SOEZawQHsMuqZ4AcCndQ-96">
          <mxGeometry x="117.00000000000001" y="36.039999999999964" width="343" height="63.96" as="geometry" />
        </mxCell>
        <mxCell id="SOEZawQHsMuqZ4AcCndQ-98" value="&lt;div style=&quot;direction: ltr;&quot;&gt;&lt;span style=&quot;background-color: transparent; color: light-dark(rgb(0, 0, 0), rgb(255, 255, 255));&quot;&gt;\[ P(x) = \begin{cases} \binom{n}{x}\cdot p^x \cdot q^{n-x}, &amp;amp; x = 0,1,\cdots ,n \\ 0, &amp;amp; \text{otherwise} \end{cases} \]&lt;/span&gt;&lt;/div&gt;" style="rounded=0;whiteSpace=wrap;html=1;strokeWidth=2;fillColor=#D5E8D4;strokeColor=#000000;container=0;fontSize=16;fontStyle=1;fontFamily=Mina;fontSource=https://fonts.googleapis.com/css?family=Mina;spacingLeft=2;spacingRight=2;align=left;" vertex="1" parent="SOEZawQHsMuqZ4AcCndQ-96">
          <mxGeometry x="117.00000000000001" y="100" width="343" height="70" as="geometry" />
        </mxCell>
        <mxCell id="SOEZawQHsMuqZ4AcCndQ-99" value="\[ P(x) = \begin{cases} q^{x-1} \cdot p, &amp;amp; x = 0,1,\cdots ,n \\ 0, &amp;amp; \text{otherwise} \end{cases} \]" style="rounded=0;whiteSpace=wrap;html=1;strokeWidth=2;fillColor=#E1D5E7;strokeColor=#000000;container=0;fontSize=16;fontStyle=1;fontFamily=Mina;fontSource=https://fonts.googleapis.com/css?family=Mina;spacingLeft=2;spacingRight=2;align=left;" vertex="1" parent="SOEZawQHsMuqZ4AcCndQ-96">
          <mxGeometry x="117.00000000000001" y="170" width="343" height="62.08" as="geometry" />
        </mxCell>
        <mxCell id="SOEZawQHsMuqZ4AcCndQ-100" value="\[ P(x) = \begin{cases} \frac{\alpha^x}{x!} \cdot e^{-\alpha}, &amp;amp; x = 0,1,\cdots ,n \\ 0, &amp;amp; \text{otherwise} \end{cases} \]" style="rounded=0;whiteSpace=wrap;html=1;strokeWidth=2;fillColor=#D4E1F5;strokeColor=#000000;container=0;fontSize=16;fontStyle=1;fontFamily=Mina;fontSource=https://fonts.googleapis.com/css?family=Mina;spacingLeft=2;spacingRight=2;align=left;" vertex="1" parent="SOEZawQHsMuqZ4AcCndQ-96">
          <mxGeometry x="117.00000000000001" y="232.07999999999993" width="343" height="62" as="geometry" />
        </mxCell>
        <mxCell id="SOEZawQHsMuqZ4AcCndQ-101" value="&lt;span style=&quot;font-weight: 700;&quot;&gt;`P(x)`&lt;/span&gt;" style="rounded=0;whiteSpace=wrap;html=1;strokeWidth=2;container=0;fontSize=16;fontFamily=Mina;fontSource=https://fonts.googleapis.com/css?family=Mina;spacingLeft=2;spacingRight=2;fillColor=#eeeeee;strokeColor=#000000;" vertex="1" parent="SOEZawQHsMuqZ4AcCndQ-96">
          <mxGeometry x="117.00000000000001" width="343" height="36.04" as="geometry" />
        </mxCell>
        <mxCell id="SOEZawQHsMuqZ4AcCndQ-102" value="&lt;span style=&quot;font-size: 16px; font-weight: 700;&quot;&gt;Dist.&lt;/span&gt;" style="rounded=0;whiteSpace=wrap;html=1;strokeWidth=2;container=0;fontSize=16;fontFamily=Mina;fontSource=https://fonts.googleapis.com/css?family=Mina;align=center;spacingLeft=2;spacingRight=2;fillColor=#eeeeee;strokeColor=#000000;" vertex="1" parent="SOEZawQHsMuqZ4AcCndQ-96">
          <mxGeometry x="37" width="80" height="36.04" as="geometry" />
        </mxCell>
        <mxCell id="SOEZawQHsMuqZ4AcCndQ-103" value="Bernoulli" style="rounded=0;whiteSpace=wrap;html=1;strokeWidth=2;fillColor=#FFF2CC;strokeColor=#000000;container=0;fontSize=16;fontStyle=1;fontFamily=Mina;fontSource=https://fonts.googleapis.com/css?family=Mina;align=center;spacingLeft=2;spacingRight=2;" vertex="1" parent="SOEZawQHsMuqZ4AcCndQ-96">
          <mxGeometry x="37" y="36.039999999999964" width="80" height="63.96" as="geometry" />
        </mxCell>
        <mxCell id="SOEZawQHsMuqZ4AcCndQ-104" value="Binomial" style="rounded=0;whiteSpace=wrap;html=1;strokeWidth=2;fillColor=#D5E8D4;strokeColor=#000000;container=0;fontSize=16;fontStyle=1;fontFamily=Mina;fontSource=https://fonts.googleapis.com/css?family=Mina;align=center;spacingLeft=2;spacingRight=2;" vertex="1" parent="SOEZawQHsMuqZ4AcCndQ-96">
          <mxGeometry x="37" y="100" width="80" height="70" as="geometry" />
        </mxCell>
        <mxCell id="SOEZawQHsMuqZ4AcCndQ-105" value="Geometric" style="rounded=0;whiteSpace=wrap;html=1;strokeWidth=2;fillColor=#E1D5E7;strokeColor=#000000;container=0;fontSize=16;fontStyle=1;fontFamily=Mina;fontSource=https://fonts.googleapis.com/css?family=Mina;align=center;spacingLeft=2;spacingRight=2;" vertex="1" parent="SOEZawQHsMuqZ4AcCndQ-96">
          <mxGeometry x="37" y="170" width="80" height="62.08" as="geometry" />
        </mxCell>
        <mxCell id="SOEZawQHsMuqZ4AcCndQ-106" value="Poisson" style="rounded=0;whiteSpace=wrap;html=1;strokeWidth=2;fillColor=#D4E1F5;strokeColor=#000000;container=0;fontSize=16;fontStyle=1;fontFamily=Mina;fontSource=https://fonts.googleapis.com/css?family=Mina;align=center;spacingLeft=2;spacingRight=2;" vertex="1" parent="SOEZawQHsMuqZ4AcCndQ-96">
          <mxGeometry x="37" y="232.07999999999993" width="80" height="61.92" as="geometry" />
        </mxCell>
        <mxCell id="SOEZawQHsMuqZ4AcCndQ-107" value="&lt;span style=&quot;font-weight: 700;&quot;&gt;`E(x_i)=\mu`&lt;/span&gt;" style="rounded=0;whiteSpace=wrap;html=1;strokeWidth=2;container=0;fontSize=15;fontFamily=Mina;fontSource=https://fonts.googleapis.com/css?family=Mina;spacingLeft=2;spacingRight=2;fillColor=#eeeeee;strokeColor=#000000;" vertex="1" parent="SOEZawQHsMuqZ4AcCndQ-96">
          <mxGeometry x="460" width="90" height="36.04" as="geometry" />
        </mxCell>
        <mxCell id="SOEZawQHsMuqZ4AcCndQ-108" value="`p`" style="rounded=0;whiteSpace=wrap;html=1;strokeWidth=2;fillColor=#FFF2CC;strokeColor=#000000;container=0;fontSize=16;fontStyle=1;fontFamily=Mina;fontSource=https://fonts.googleapis.com/css?family=Mina;spacingLeft=2;spacingRight=2;" vertex="1" parent="SOEZawQHsMuqZ4AcCndQ-96">
          <mxGeometry x="460" y="36.039999999999964" width="90" height="63.96" as="geometry" />
        </mxCell>
        <mxCell id="SOEZawQHsMuqZ4AcCndQ-109" value="&lt;b&gt;`V(x_i)`&lt;/b&gt;" style="rounded=0;whiteSpace=wrap;html=1;strokeWidth=2;container=0;fontSize=16;fontFamily=Mina;fontSource=https://fonts.googleapis.com/css?family=Mina;spacingLeft=2;spacingRight=2;fillColor=#eeeeee;strokeColor=#000000;" vertex="1" parent="SOEZawQHsMuqZ4AcCndQ-96">
          <mxGeometry x="550.0799999999999" width="86.96" height="36.04" as="geometry" />
        </mxCell>
        <mxCell id="SOEZawQHsMuqZ4AcCndQ-110" value="`p \cdot q`" style="rounded=0;whiteSpace=wrap;html=1;strokeWidth=2;fillColor=#FFF2CC;strokeColor=#000000;container=0;fontSize=16;fontStyle=1;fontFamily=Mina;fontSource=https://fonts.googleapis.com/css?family=Mina;spacingLeft=2;spacingRight=2;" vertex="1" parent="SOEZawQHsMuqZ4AcCndQ-96">
          <mxGeometry x="550.04" y="36.039999999999964" width="87" height="63.96" as="geometry" />
        </mxCell>
        <mxCell id="SOEZawQHsMuqZ4AcCndQ-111" value="&lt;span style=&quot;font-size: 16px;&quot;&gt;`n \cdot p`&lt;/span&gt;" style="rounded=0;whiteSpace=wrap;html=1;strokeWidth=2;fillColor=#D5E8D4;strokeColor=#000000;container=0;fontSize=16;fontStyle=1;fontFamily=Mina;fontSource=https://fonts.googleapis.com/css?family=Mina;spacingLeft=2;spacingRight=2;" vertex="1" parent="SOEZawQHsMuqZ4AcCndQ-96">
          <mxGeometry x="460" y="100" width="90" height="70" as="geometry" />
        </mxCell>
        <mxCell id="SOEZawQHsMuqZ4AcCndQ-112" value="&lt;span style=&quot;font-size: 16px;&quot;&gt;`\frac{1}{p}`&lt;/span&gt;" style="rounded=0;whiteSpace=wrap;html=1;strokeWidth=2;fillColor=#E1D5E7;strokeColor=#000000;container=0;fontSize=16;fontStyle=1;fontFamily=Mina;fontSource=https://fonts.googleapis.com/css?family=Mina;spacingLeft=2;spacingRight=2;" vertex="1" parent="SOEZawQHsMuqZ4AcCndQ-96">
          <mxGeometry x="460" y="170" width="90" height="62" as="geometry" />
        </mxCell>
        <mxCell id="SOEZawQHsMuqZ4AcCndQ-113" value="&lt;span style=&quot;font-size: 16px;&quot;&gt;`\alpha = V(x)`&lt;/span&gt;" style="rounded=0;whiteSpace=wrap;html=1;strokeWidth=2;fillColor=#D4E1F5;strokeColor=#000000;container=0;fontSize=16;fontStyle=1;fontFamily=Mina;fontSource=https://fonts.googleapis.com/css?family=Mina;spacingLeft=2;spacingRight=2;" vertex="1" parent="SOEZawQHsMuqZ4AcCndQ-96">
          <mxGeometry x="459.96000000000004" y="232.07999999999993" width="90.04" height="61.92" as="geometry" />
        </mxCell>
        <mxCell id="SOEZawQHsMuqZ4AcCndQ-114" value="&lt;span style=&quot;font-size: 16px;&quot;&gt;`n\cdot p\cdot q`&lt;/span&gt;" style="rounded=0;whiteSpace=wrap;html=1;strokeWidth=2;fillColor=#D5E8D4;strokeColor=#000000;container=0;fontSize=16;fontStyle=1;fontFamily=Mina;fontSource=https://fonts.googleapis.com/css?family=Mina;spacingLeft=2;spacingRight=2;" vertex="1" parent="SOEZawQHsMuqZ4AcCndQ-96">
          <mxGeometry x="550" y="100" width="87.04" height="70" as="geometry" />
        </mxCell>
        <mxCell id="SOEZawQHsMuqZ4AcCndQ-115" value="&lt;span style=&quot;font-size: 16px;&quot;&gt;`\frac{q}{p^2}`&lt;/span&gt;" style="rounded=0;whiteSpace=wrap;html=1;strokeWidth=2;fillColor=#E1D5E7;strokeColor=#000000;container=0;fontSize=16;fontStyle=1;fontFamily=Mina;fontSource=https://fonts.googleapis.com/css?family=Mina;spacingLeft=2;spacingRight=2;" vertex="1" parent="SOEZawQHsMuqZ4AcCndQ-96">
          <mxGeometry x="550" y="170" width="87.04" height="62" as="geometry" />
        </mxCell>
        <mxCell id="SOEZawQHsMuqZ4AcCndQ-116" value="`\alpha = E(x)`" style="rounded=0;whiteSpace=wrap;html=1;strokeWidth=2;fillColor=#D4E1F5;strokeColor=#000000;container=0;fontSize=16;fontStyle=1;fontFamily=Mina;fontSource=https://fonts.googleapis.com/css?family=Mina;spacingLeft=2;spacingRight=2;" vertex="1" parent="SOEZawQHsMuqZ4AcCndQ-96">
          <mxGeometry x="550.04" y="232" width="87" height="62" as="geometry" />
        </mxCell>
        <mxCell id="SOEZawQHsMuqZ4AcCndQ-117" value="Discrete" style="rounded=0;whiteSpace=wrap;html=1;strokeWidth=2;fillColor=#eeeeee;strokeColor=#000000;container=0;fontSize=22;fontStyle=1;fontFamily=Mina;fontSource=https://fonts.googleapis.com/css?family=Mina;align=center;spacingLeft=2;spacingRight=2;flipV=0;flipH=1;horizontal=0;" vertex="1" parent="SOEZawQHsMuqZ4AcCndQ-96">
          <mxGeometry y="36.039999999999964" width="37" height="257.96" as="geometry" />
        </mxCell>
        <mxCell id="SOEZawQHsMuqZ4AcCndQ-118" value="" style="endArrow=none;html=1;rounded=1;strokeWidth=3;startFill=0;edgeStyle=orthogonalEdgeStyle;curved=0;fillColor=#d0cee2;strokeColor=#56517e;sketch=1;curveFitting=1;jiggle=2;shape=link;" edge="1" parent="SOEZawQHsMuqZ4AcCndQ-1">
          <mxGeometry width="50" height="50" relative="1" as="geometry">
            <mxPoint x="1576.62" y="1460" as="sourcePoint" />
            <mxPoint x="1577" y="750" as="targetPoint" />
            <Array as="points">
              <mxPoint x="1576.62" y="1370" />
              <mxPoint x="1576.62" y="1370" />
            </Array>
          </mxGeometry>
        </mxCell>
        <mxCell id="SOEZawQHsMuqZ4AcCndQ-119" value="Case Study" style="shape=hexagon;perimeter=hexagonPerimeter2;whiteSpace=wrap;fixedSize=1;size=16;fillColor=#6d8764;strokeColor=default;fontFamily=Mali;fontSize=29;strokeWidth=2;align=center;spacingLeft=0;spacingBottom=5;fillStyle=hachure;fontStyle=1;rounded=1;arcSize=14;fontSource=https%3A%2F%2Ffonts.googleapis.com%2Fcss%3Ffamily%3DMali;fontColor=#ffffff;" vertex="1" parent="SOEZawQHsMuqZ4AcCndQ-1">
          <mxGeometry x="1915.31" y="40" width="221.38" height="40" as="geometry" />
        </mxCell>
        <mxCell id="SOEZawQHsMuqZ4AcCndQ-120" value="Chapter 3" style="shape=hexagon;perimeter=hexagonPerimeter2;whiteSpace=wrap;fixedSize=1;size=16;fillColor=#76608a;strokeColor=default;fontFamily=Mali;fontSize=29;strokeWidth=2;align=center;spacingLeft=0;spacingBottom=5;fillStyle=hachure;fontStyle=1;rounded=1;arcSize=14;fontSource=https%3A%2F%2Ffonts.googleapis.com%2Fcss%3Ffamily%3DMali;fontColor=#ffffff;" vertex="1" parent="SOEZawQHsMuqZ4AcCndQ-1">
          <mxGeometry x="662.53" y="780" width="221.38" height="40" as="geometry" />
        </mxCell>
        <mxCell id="SOEZawQHsMuqZ4AcCndQ-121" value="&lt;span style=&quot;color: rgb(0, 0, 255); font-family: Helvetica; font-style: normal; font-variant-ligatures: normal; font-variant-caps: normal; font-weight: 400; letter-spacing: normal; orphans: 2; text-align: center; text-indent: 0px; text-transform: none; widows: 2; word-spacing: 0px; -webkit-text-stroke-width: 0px; white-space: normal; background-color: rgb(236, 236, 236); text-decoration-thickness: initial; text-decoration-style: initial; text-decoration-color: initial; float: none; display: inline !important;&quot;&gt;\[ F(X)_{\text{Inspection Device}} = 1 - e^{-\frac{x}{2}} \]&lt;/span&gt;" style="text;whiteSpace=wrap;html=1;fontSize=19;verticalAlign=middle;" vertex="1" parent="SOEZawQHsMuqZ4AcCndQ-1">
          <mxGeometry x="972.69" y="1126.04" width="340" height="40" as="geometry" />
        </mxCell>
        <mxCell id="SOEZawQHsMuqZ4AcCndQ-122" value="" style="group" vertex="1" connectable="0" parent="SOEZawQHsMuqZ4AcCndQ-1">
          <mxGeometry x="1612" y="780" width="790" height="670" as="geometry" />
        </mxCell>
        <mxCell id="SOEZawQHsMuqZ4AcCndQ-123" value="&lt;font face=&quot;Mali&quot;&gt;True &amp;amp; False&lt;/font&gt;" style="rounded=1;whiteSpace=wrap;html=1;hachureGap=4;fontFamily=Mina;strokeWidth=2;fillColor=#000000;strokeColor=#000000;fontSize=22;fontStyle=1;labelBorderColor=none;textShadow=0;labelBackgroundColor=none;align=left;spacing=5;verticalAlign=middle;spacingTop=0;spacingRight=2;fontColor=#ffffff;container=0;spacingLeft=5;" vertex="1" parent="SOEZawQHsMuqZ4AcCndQ-122">
          <mxGeometry x="315" width="160" height="40" as="geometry" />
        </mxCell>
        <mxCell id="SOEZawQHsMuqZ4AcCndQ-124" value="&lt;div style=&quot;line-height: 115%;&quot;&gt;&lt;div&gt;&lt;div style=&quot;text-align: center;&quot;&gt;&lt;b&gt;&lt;u&gt;False Only&lt;/u&gt;&lt;/b&gt;&lt;/div&gt;&lt;span style=&quot;background-color: transparent;&quot;&gt;&lt;div style=&quot;text-align: center;&quot;&gt;&lt;br&gt;&lt;/div&gt;&lt;/span&gt;&lt;/div&gt;&lt;div&gt;16- Simulation is used when a problem can be solved mathematically &lt;b&gt;(False) Page 18&lt;/b&gt;&lt;/div&gt;&lt;div&gt;&lt;br&gt;&lt;/div&gt;&lt;div&gt;17- Simulation is appropriate when no (input) data is available, but simulations need data &lt;b&gt;(False) Page 19&lt;/b&gt;&lt;/div&gt;&lt;div&gt;&lt;br&gt;&lt;/div&gt;&lt;div&gt;19- We can use simulation when the system behavior is too complex or unknown &lt;b&gt;(False) Page 19&lt;/b&gt;&lt;/div&gt;&lt;div&gt;&lt;br&gt;&lt;/div&gt;&lt;div&gt;26- Simulation is useful when its results are difficult to interpret. &lt;b&gt;(False) Page 21&lt;/b&gt;&lt;/div&gt;&lt;div&gt;&lt;br&gt;&lt;/div&gt;&lt;div&gt;27- We use the simulation when model building requires training. &lt;b&gt;(False) Page 21&lt;/b&gt;&lt;/div&gt;&lt;div&gt;&lt;br&gt;&lt;/div&gt;&lt;div&gt;28- Application areas of simulation is related to deep learning system. &lt;b&gt;(False) Page 21&lt;/b&gt;&lt;/div&gt;&lt;div&gt;&lt;br&gt;&lt;/div&gt;&lt;div&gt;29- Application areas of simulation is related to health care and military only. &lt;b&gt;(False) Page 21&lt;br&gt;&lt;br&gt;&lt;/b&gt;&lt;/div&gt;&lt;div&gt;&lt;div&gt;&lt;span style=&quot;background-color: transparent; color: light-dark(rgb(0, 0, 0), rgb(255, 255, 255));&quot;&gt;35- System Exogenous are activities and events occurring within the system.&amp;nbsp;&lt;/span&gt;&lt;b style=&quot;background-color: transparent; color: light-dark(rgb(0, 0, 0), rgb(255, 255, 255));&quot;&gt;(False) Page 25&lt;/b&gt;&lt;/div&gt;&lt;div&gt;&lt;br&gt;&lt;/div&gt;&lt;div&gt;36- Head of water behind a dam and temperature are examples of discrete Systems.&amp;nbsp;&lt;b&gt;(False) Page 28&lt;/b&gt;&lt;/div&gt;&lt;div&gt;&lt;br&gt;&lt;/div&gt;&lt;div&gt;47- The reaction time is the time between user finishes request and system starts response.&amp;nbsp;&lt;b&gt;(False) Page 56&lt;/b&gt;&lt;/div&gt;&lt;div&gt;&lt;br&gt;&lt;/div&gt;&lt;div&gt;51- The steps in a simulation study can be classified into three phases: Discovery and orientation, Model building and data collection, and run the model.&amp;nbsp;&lt;b&gt;(False) Page 60&lt;br&gt;&lt;/b&gt;&lt;/div&gt;&lt;div style=&quot;text-align: center;&quot;&gt;&lt;font face=&quot;Oxanium&quot;&gt;&lt;b&gt;&lt;u&gt;&lt;br&gt;&lt;/u&gt;&lt;/b&gt;&lt;/font&gt;&lt;/div&gt;&lt;div&gt;52- The appropriate simulation tools can be classified into two alternative existences: Build Model in a general simulation language and use a special purpose simulation package.&amp;nbsp;&lt;b&gt;(False) Page 2&lt;/b&gt;&lt;/div&gt;&lt;div&gt;&lt;br&gt;&lt;/div&gt;&lt;div&gt;53- From disadvantages of building model in general purpose languages are portable and no additional software cost and training.&amp;nbsp;&lt;b&gt;(False) Page 3&lt;/b&gt;&lt;/div&gt;&lt;div&gt;&lt;br&gt;&lt;/div&gt;&lt;div&gt;54- The Modula and ADA are two examples for general simulation language.&amp;nbsp;&lt;b&gt;(False) Page 6: 8&lt;/b&gt;&lt;/div&gt;&lt;div&gt;&lt;br&gt;&lt;/div&gt;&lt;/div&gt;&lt;/div&gt;" style="rounded=1;whiteSpace=wrap;html=1;arcSize=3;strokeWidth=2;fillColor=#eeeeee;strokeColor=default;align=left;spacingLeft=10;fontFamily=Oxanium;fontSource=https%3A%2F%2Ffonts.googleapis.com%2Fcss%3Ffamily%3DOxanium;fontStyle=0;fontSize=15;spacingRight=5;fontColor=default;verticalAlign=top;spacingTop=2;" vertex="1" parent="SOEZawQHsMuqZ4AcCndQ-122">
          <mxGeometry y="60" width="790" height="610" as="geometry" />
        </mxCell>
        <mxCell id="SOEZawQHsMuqZ4AcCndQ-125" value="" style="group" vertex="1" connectable="0" parent="SOEZawQHsMuqZ4AcCndQ-1">
          <mxGeometry x="372" y="1180" width="802.45" height="260" as="geometry" />
        </mxCell>
        <mxCell id="SOEZawQHsMuqZ4AcCndQ-126" style="rounded=1;orthogonalLoop=1;jettySize=auto;html=1;edgeStyle=orthogonalEdgeStyle;fillColor=#f5f5f5;strokeColor=#666666;endArrow=block;endFill=1;curved=0;" edge="1" parent="SOEZawQHsMuqZ4AcCndQ-125" source="SOEZawQHsMuqZ4AcCndQ-134" target="SOEZawQHsMuqZ4AcCndQ-135">
          <mxGeometry relative="1" as="geometry" />
        </mxCell>
        <mxCell id="SOEZawQHsMuqZ4AcCndQ-127" value="&lt;div style=&quot;line-height: 110%;&quot;&gt;&lt;font data-font-src=&quot;https://fonts.googleapis.com/css?family=Beiruti&quot; face=&quot;Beiruti&quot;&gt;هل انا عملت تجربة &lt;br&gt;واحدة بس؟&lt;/font&gt;&lt;/div&gt;" style="edgeLabel;html=1;align=center;verticalAlign=middle;resizable=0;points=[];fontSize=13;" vertex="1" connectable="0" parent="SOEZawQHsMuqZ4AcCndQ-126">
          <mxGeometry x="0.3192" relative="1" as="geometry">
            <mxPoint y="13" as="offset" />
          </mxGeometry>
        </mxCell>
        <mxCell id="SOEZawQHsMuqZ4AcCndQ-128" style="rounded=1;orthogonalLoop=1;jettySize=auto;html=1;edgeStyle=orthogonalEdgeStyle;fillColor=#f5f5f5;strokeColor=#666666;endArrow=block;endFill=1;curved=0;" edge="1" parent="SOEZawQHsMuqZ4AcCndQ-125" source="SOEZawQHsMuqZ4AcCndQ-134" target="SOEZawQHsMuqZ4AcCndQ-136">
          <mxGeometry relative="1" as="geometry">
            <Array as="points">
              <mxPoint x="241.19884393063583" y="130.00000000000003" />
              <mxPoint x="146.88391136801542" y="130.00000000000003" />
            </Array>
          </mxGeometry>
        </mxCell>
        <mxCell id="SOEZawQHsMuqZ4AcCndQ-129" value="&lt;div style=&quot;direction: rtl;&quot;&gt;&lt;span style=&quot;font-family: Beiruti; background-color: light-dark(#ffffff, var(--ge-dark-color, #121212)); color: light-dark(rgb(0, 0, 0), rgb(255, 255, 255));&quot;&gt;انا عملت تجربة علي مجموعة `n`&lt;br&gt;&amp;nbsp;و عايز&amp;nbsp; احتمالية نجاح حدث معين؟&lt;/span&gt;&lt;/div&gt;" style="edgeLabel;html=1;align=center;verticalAlign=middle;resizable=0;points=[];fontSize=13;" vertex="1" connectable="0" parent="SOEZawQHsMuqZ4AcCndQ-128">
          <mxGeometry x="0.4124" y="-1" relative="1" as="geometry">
            <mxPoint x="6" y="6" as="offset" />
          </mxGeometry>
        </mxCell>
        <mxCell id="SOEZawQHsMuqZ4AcCndQ-130" style="rounded=1;orthogonalLoop=1;jettySize=auto;html=1;edgeStyle=orthogonalEdgeStyle;fillColor=#f5f5f5;strokeColor=#666666;endArrow=block;endFill=1;curved=0;" edge="1" parent="SOEZawQHsMuqZ4AcCndQ-125" source="SOEZawQHsMuqZ4AcCndQ-134" target="SOEZawQHsMuqZ4AcCndQ-137">
          <mxGeometry relative="1" as="geometry">
            <Array as="points">
              <mxPoint x="241.19884393063583" y="130.00000000000003" />
              <mxPoint x="333.96763005780343" y="130.00000000000003" />
            </Array>
          </mxGeometry>
        </mxCell>
        <mxCell id="SOEZawQHsMuqZ4AcCndQ-131" value="&lt;font style=&quot;line-height: 130%;&quot; data-font-src=&quot;https://fonts.googleapis.com/css?family=Beiruti&quot; face=&quot;Beiruti&quot;&gt;هل انا مهتم بأول مرة&lt;br&gt;الحاجة دي تظهر؟&lt;/font&gt;" style="edgeLabel;html=1;align=center;verticalAlign=middle;resizable=0;points=[];fontSize=13;" vertex="1" connectable="0" parent="SOEZawQHsMuqZ4AcCndQ-130">
          <mxGeometry x="0.6613" y="-1" relative="1" as="geometry">
            <mxPoint x="1" y="-10" as="offset" />
          </mxGeometry>
        </mxCell>
        <mxCell id="SOEZawQHsMuqZ4AcCndQ-132" style="rounded=1;orthogonalLoop=1;jettySize=auto;html=1;edgeStyle=orthogonalEdgeStyle;fillColor=#f5f5f5;strokeColor=#666666;endArrow=block;endFill=1;curved=0;" edge="1" parent="SOEZawQHsMuqZ4AcCndQ-125" source="SOEZawQHsMuqZ4AcCndQ-134" target="SOEZawQHsMuqZ4AcCndQ-138">
          <mxGeometry relative="1" as="geometry" />
        </mxCell>
        <mxCell id="SOEZawQHsMuqZ4AcCndQ-133" value="&lt;font data-font-src=&quot;https://fonts.googleapis.com/css?family=Beiruti&quot; face=&quot;Beiruti&quot;&gt;هل انا مهتم بعدد مرات&lt;br&gt;&lt;/font&gt;&lt;div style=&quot;direction: rtl;&quot;&gt;&lt;span style=&quot;background-color: light-dark(#ffffff, var(--ge-dark-color, #121212)); color: light-dark(rgb(0, 0, 0), rgb(255, 255, 255));&quot;&gt;&lt;font data-font-src=&quot;https://fonts.googleapis.com/css?family=Beiruti&quot; face=&quot;Beiruti&quot;&gt;حدوث حاجة معينة؟&lt;/font&gt;&lt;/span&gt;&lt;/div&gt;" style="edgeLabel;html=1;align=center;verticalAlign=middle;resizable=0;points=[];fontSize=13;" vertex="1" connectable="0" parent="SOEZawQHsMuqZ4AcCndQ-132">
          <mxGeometry x="0.3161" y="1" relative="1" as="geometry">
            <mxPoint as="offset" />
          </mxGeometry>
        </mxCell>
        <mxCell id="SOEZawQHsMuqZ4AcCndQ-134" value="Discrete" style="text;html=1;align=center;verticalAlign=middle;whiteSpace=wrap;rounded=1;fontFamily=Mina;fontStyle=1;glass=0;sketch=1;curveFitting=1;jiggle=2;strokeColor=#666666;fillColor=#FFF2CC;fontColor=#333333;fontSize=19;" vertex="1" parent="SOEZawQHsMuqZ4AcCndQ-125">
          <mxGeometry x="187.08371868978807" y="81.25" width="108.23025048169556" height="32.50000000000001" as="geometry" />
        </mxCell>
        <mxCell id="SOEZawQHsMuqZ4AcCndQ-135" value="Bernoulli" style="text;html=1;align=center;verticalAlign=middle;whiteSpace=wrap;rounded=0;fontFamily=Mina;fontStyle=1;fillColor=none;fontSize=17;" vertex="1" parent="SOEZawQHsMuqZ4AcCndQ-125">
          <mxGeometry y="211.25000000000006" width="108.23025048169556" height="48.75" as="geometry" />
        </mxCell>
        <mxCell id="SOEZawQHsMuqZ4AcCndQ-136" value="Binomial" style="text;html=1;align=center;verticalAlign=middle;whiteSpace=wrap;rounded=0;fontFamily=Mina;fontStyle=1;fillColor=none;fontSize=17;" vertex="1" parent="SOEZawQHsMuqZ4AcCndQ-125">
          <mxGeometry x="92.76878612716763" y="211.25000000000006" width="108.23025048169556" height="48.75" as="geometry" />
        </mxCell>
        <mxCell id="SOEZawQHsMuqZ4AcCndQ-137" value="Geometric" style="text;html=1;align=center;verticalAlign=middle;whiteSpace=wrap;rounded=0;fontFamily=Mina;fontStyle=1;fillColor=none;fontSize=17;" vertex="1" parent="SOEZawQHsMuqZ4AcCndQ-125">
          <mxGeometry x="272.12177263969176" y="211.25000000000006" width="123.69171483622351" height="48.75" as="geometry" />
        </mxCell>
        <mxCell id="SOEZawQHsMuqZ4AcCndQ-138" value="Poisson" style="text;html=1;align=center;verticalAlign=middle;whiteSpace=wrap;rounded=0;fontFamily=Mina;fontStyle=1;fillColor=none;fontSize=17;" vertex="1" parent="SOEZawQHsMuqZ4AcCndQ-125">
          <mxGeometry x="372.6212909441233" y="211.25000000000006" width="108.23025048169556" height="48.75" as="geometry" />
        </mxCell>
        <mxCell id="SOEZawQHsMuqZ4AcCndQ-139" style="rounded=1;orthogonalLoop=1;jettySize=auto;html=1;edgeStyle=orthogonalEdgeStyle;fillColor=#f5f5f5;strokeColor=#666666;endArrow=block;endFill=1;curved=0;" edge="1" parent="SOEZawQHsMuqZ4AcCndQ-125" source="SOEZawQHsMuqZ4AcCndQ-145" target="SOEZawQHsMuqZ4AcCndQ-146">
          <mxGeometry relative="1" as="geometry" />
        </mxCell>
        <mxCell id="SOEZawQHsMuqZ4AcCndQ-140" value="&lt;div style=&quot;direction: rtl;&quot;&gt;&lt;span style=&quot;font-family: Beiruti; color: light-dark(rgb(0, 0, 0), rgb(255, 255, 255));&quot;&gt;هل كل القيم في &lt;br&gt;الـRange ده ليها &lt;br&gt;نفس الاحتمال؟&lt;/span&gt;&lt;/div&gt;" style="edgeLabel;html=1;align=center;verticalAlign=middle;resizable=0;points=[];labelBackgroundColor=default;fontStyle=0;fontSize=13;" vertex="1" connectable="0" parent="SOEZawQHsMuqZ4AcCndQ-139">
          <mxGeometry x="0.1924" y="-1" relative="1" as="geometry">
            <mxPoint x="1" as="offset" />
          </mxGeometry>
        </mxCell>
        <mxCell id="SOEZawQHsMuqZ4AcCndQ-141" style="rounded=0;orthogonalLoop=1;jettySize=auto;html=1;edgeStyle=orthogonalEdgeStyle;fillColor=#f5f5f5;strokeColor=#666666;endArrow=block;endFill=1;" edge="1" parent="SOEZawQHsMuqZ4AcCndQ-125" source="SOEZawQHsMuqZ4AcCndQ-145" target="SOEZawQHsMuqZ4AcCndQ-147">
          <mxGeometry relative="1" as="geometry">
            <Array as="points">
              <mxPoint x="647.8353564547207" y="130.00000000000003" />
              <mxPoint x="647.8353564547207" y="130.00000000000003" />
            </Array>
          </mxGeometry>
        </mxCell>
        <mxCell id="SOEZawQHsMuqZ4AcCndQ-142" value="&lt;div style=&quot;direction: rtl;&quot;&gt;&lt;span style=&quot;font-family: Beiruti; color: light-dark(rgb(0, 0, 0), rgb(255, 255, 255));&quot;&gt;هل انا مهتم بالوقت &lt;br&gt;لحد ما يحصل حدث معين؟&lt;/span&gt;&lt;/div&gt;" style="edgeLabel;html=1;align=center;verticalAlign=middle;resizable=0;points=[];labelBackgroundColor=default;fontStyle=0;fontSize=13;" vertex="1" connectable="0" parent="SOEZawQHsMuqZ4AcCndQ-141">
          <mxGeometry x="-0.4047" relative="1" as="geometry">
            <mxPoint y="12" as="offset" />
          </mxGeometry>
        </mxCell>
        <mxCell id="SOEZawQHsMuqZ4AcCndQ-143" style="rounded=1;orthogonalLoop=1;jettySize=auto;html=1;edgeStyle=orthogonalEdgeStyle;fillColor=#f5f5f5;strokeColor=#666666;endArrow=block;endFill=1;curved=0;" edge="1" parent="SOEZawQHsMuqZ4AcCndQ-125" source="SOEZawQHsMuqZ4AcCndQ-145" target="SOEZawQHsMuqZ4AcCndQ-148">
          <mxGeometry relative="1" as="geometry">
            <Array as="points">
              <mxPoint x="756.0656069364162" y="97.5" />
            </Array>
          </mxGeometry>
        </mxCell>
        <mxCell id="SOEZawQHsMuqZ4AcCndQ-144" value="&lt;div style=&quot;direction: rtl;&quot;&gt;&lt;span style=&quot;font-family: Beiruti; color: light-dark(rgb(0, 0, 0), rgb(255, 255, 255));&quot;&gt;هل توزيع القيم&amp;nbsp; &lt;br&gt;متماثل حوالين الـ Mean؟&lt;/span&gt;&lt;/div&gt;" style="edgeLabel;html=1;align=center;verticalAlign=middle;resizable=0;points=[];labelBackgroundColor=default;fontStyle=0;fontSize=13;" vertex="1" connectable="0" parent="SOEZawQHsMuqZ4AcCndQ-143">
          <mxGeometry x="0.1014" relative="1" as="geometry">
            <mxPoint as="offset" />
          </mxGeometry>
        </mxCell>
        <mxCell id="SOEZawQHsMuqZ4AcCndQ-145" value="Continuous" style="text;html=1;align=center;verticalAlign=middle;whiteSpace=wrap;rounded=1;fontFamily=Mina;fontStyle=1;glass=0;sketch=1;curveFitting=1;jiggle=2;strokeColor=#666666;fillColor=#D5E8D4;fontColor=#333333;fontSize=19;" vertex="1" parent="SOEZawQHsMuqZ4AcCndQ-125">
          <mxGeometry x="601.4509633911368" y="81.25" width="108.23025048169556" height="32.50000000000001" as="geometry" />
        </mxCell>
        <mxCell id="SOEZawQHsMuqZ4AcCndQ-146" value="Uniform" style="text;html=1;align=center;verticalAlign=middle;whiteSpace=wrap;rounded=0;fontFamily=Mina;fontStyle=1;fillColor=none;fontSize=17;" vertex="1" parent="SOEZawQHsMuqZ4AcCndQ-125">
          <mxGeometry x="480.85154142581894" y="211.25000000000006" width="108.23025048169556" height="48.75" as="geometry" />
        </mxCell>
        <mxCell id="SOEZawQHsMuqZ4AcCndQ-147" value="Expo." style="text;html=1;align=center;verticalAlign=middle;whiteSpace=wrap;rounded=0;fontFamily=Mina;fontStyle=1;fillColor=none;fontSize=17;" vertex="1" parent="SOEZawQHsMuqZ4AcCndQ-125">
          <mxGeometry x="616.9124277456648" y="211.25000000000006" width="77.3073217726397" height="48.75" as="geometry" />
        </mxCell>
        <mxCell id="SOEZawQHsMuqZ4AcCndQ-148" value="Normal" style="text;html=1;align=center;verticalAlign=middle;whiteSpace=wrap;rounded=0;fontFamily=Mina;fontStyle=1;fillColor=none;fontSize=17;" vertex="1" parent="SOEZawQHsMuqZ4AcCndQ-125">
          <mxGeometry x="709.6812138728324" y="211.25000000000006" width="92.76878612716763" height="48.75" as="geometry" />
        </mxCell>
        <mxCell id="SOEZawQHsMuqZ4AcCndQ-149" style="edgeStyle=orthogonalEdgeStyle;rounded=1;orthogonalLoop=1;jettySize=auto;html=1;curved=0;" edge="1" parent="SOEZawQHsMuqZ4AcCndQ-125" source="SOEZawQHsMuqZ4AcCndQ-153" target="SOEZawQHsMuqZ4AcCndQ-134">
          <mxGeometry relative="1" as="geometry" />
        </mxCell>
        <mxCell id="SOEZawQHsMuqZ4AcCndQ-150" value="&amp;nbsp;أيوة&amp;nbsp;" style="edgeLabel;html=1;align=center;verticalAlign=middle;resizable=0;points=[];labelBackgroundColor=#B9E0A5;labelBorderColor=default;textShadow=0;spacing=7;fontSize=14;fontFamily=Cairo;fontSource=https%3A%2F%2Ffonts.googleapis.com%2Fcss%3Ffamily%3DCairo;" vertex="1" connectable="0" parent="SOEZawQHsMuqZ4AcCndQ-149">
          <mxGeometry x="-0.4632" y="-3" relative="1" as="geometry">
            <mxPoint y="3" as="offset" />
          </mxGeometry>
        </mxCell>
        <mxCell id="SOEZawQHsMuqZ4AcCndQ-151" style="edgeStyle=orthogonalEdgeStyle;rounded=1;orthogonalLoop=1;jettySize=auto;html=1;curved=0;" edge="1" parent="SOEZawQHsMuqZ4AcCndQ-125" source="SOEZawQHsMuqZ4AcCndQ-153" target="SOEZawQHsMuqZ4AcCndQ-145">
          <mxGeometry relative="1" as="geometry" />
        </mxCell>
        <mxCell id="SOEZawQHsMuqZ4AcCndQ-152" value="&amp;nbsp;لأ&amp;nbsp;" style="edgeLabel;html=1;align=center;verticalAlign=middle;resizable=0;points=[];labelBackgroundColor=#F19C99;labelBorderColor=default;textShadow=0;spacing=7;fontFamily=Cairo;fontSource=https%3A%2F%2Ffonts.googleapis.com%2Fcss%3Ffamily%3DCairo;fontSize=14;" vertex="1" connectable="0" parent="SOEZawQHsMuqZ4AcCndQ-151">
          <mxGeometry x="-0.5997" y="-1" relative="1" as="geometry">
            <mxPoint y="-1" as="offset" />
          </mxGeometry>
        </mxCell>
        <mxCell id="SOEZawQHsMuqZ4AcCndQ-153" value="هل حاجة أقدر أعدها؟" style="text;html=1;align=center;verticalAlign=middle;whiteSpace=wrap;rounded=1;fontFamily=Beiruti;fontStyle=1;glass=0;sketch=1;curveFitting=1;jiggle=2;strokeColor=none;fillColor=#f5f5f5;fontColor=#333333;fontSource=https%3A%2F%2Ffonts.googleapis.com%2Fcss%3Ffamily%3DBeiruti;fontSize=18;" vertex="1" parent="SOEZawQHsMuqZ4AcCndQ-125">
          <mxGeometry x="354.5416017988031" width="168.52996146435453" height="32.50000000000001" as="geometry" />
        </mxCell>
        <mxCell id="SOEZawQHsMuqZ4AcCndQ-154" value="" style="endArrow=none;html=1;rounded=1;strokeWidth=3;startFill=0;edgeStyle=orthogonalEdgeStyle;curved=0;fillColor=#d0cee2;strokeColor=#56517e;sketch=1;curveFitting=1;jiggle=2;shape=link;" edge="1" parent="SOEZawQHsMuqZ4AcCndQ-1">
          <mxGeometry width="50" height="50" relative="1" as="geometry">
            <mxPoint x="30" y="750" as="sourcePoint" />
            <mxPoint x="2420" y="750" as="targetPoint" />
            <Array as="points">
              <mxPoint x="1658" y="750" />
            </Array>
          </mxGeometry>
        </mxCell>
        <mxCell id="k951agevIATn72oqbPnN-1" value="" style="shape=stencil(lZvJkhs3EES/Zq4I7MvZy38owrI1YVlyyPL29y54okl2Fvlo32ZBshtAVVZWAnwp3/z24d2v719y/O3rl88/v//z9YevH17Kty85v3768P7L61f76aV891K++fHzl/c/ffn8+6cf3n7/9d0euX/65fMf+xP+esOlGGrbqBz/fvvLHKHlf//y/Rvg4+unW0AJJSqgRwD0sJYD9MeAnEJzr1QrAHroDhDXY0BJYc0zwD6CACOkoYAMc6j2hKaAAnOoPSQHWLAPdYWRddID9qHlMGTSM7QBgBZaOQNWyAkAM8ShgApz6DG06gCwrD2HFR0AXqm3ELubwwSARU5TQCoAmC6WLn+5CxgxTAeYDQD5CIQbwIBoHe1445s5RNjpMUKZbllpDstl3AoLwnumMNMJsGLosKyzHP++ABLm9LRJLwUQa1i65K6AAZO2Ve9TAR3C26YY3RwoWvfnDV2lSE/wodGP6LoPqCFJApVQITRWC1ly+pK09wGOyCwc8Qn9WJMDYDm4aJW6rlLnjTPAPO9D66ExQHa6Ms3sOZxjyQrAYEA5b1wpYUE+GEBiKU8OPsuHM7fmcizDfUDRkmWFmEjgmpAHIE18wibG806ncfDIfYCt0vmVTEy0J6xx3ofUkFunI2MDJKhAY2p4pxoa7PSOfgHYPhB75zCrAgrVh3i8wA2A6rSVLGG+lI+9vw9wOW2ADiTQixZFA0QQJ5bBogQS031zZdeUbIGNs5TPZ+ZbKPma8aKOTyR+bBdE5oZGCvGi1q7jIwnEGobw6sHMjxSojO+oustFhFzHk+4pLiYaFnTjt7FkfIOYM40uAqAh3+WLYrmOHzTeNI9+/oT9tX+npOPh/bOlVNf1hP3K8WCFm/2C9TSuXecqOLBEGdUmkQqo/o0Hsyg25OpNUuf3sYSkMm4JXh0LUQYsreL2yAQ7PA/ZccPUCTL+0gLeFJtKDVXI8j7raI3vZ6SOtxChymG17LwBe4cpw7Tgb0lBEaeSvGZs5K1/PH++UVimDFCCsw4UM0BFVxsHZT8aLzKQa4zTyn0dbc+D/ZKGYnD8GB9IQnZkrKkEZ10VNSy7wEmXFrGEWT5laa8T6l5LEO2WbUkph23OWQHUwBsL5amASYDlJn3Ji0c8Krx7FYX3AeWo0zcAqtwGUEOrcOmobg4VZawBhIqsuyW9ZQCJve2A8RO8p0DleD/hDNitKb9Sc/04ydjNj9KPZ7TMdj/TFLCIALyky2jV5Kwi0wBUNDcnJZ00mXIGkA7HlrVCThtAyvL2dmiVPGBg2fGvZG1YpHzIB83dhPczaeRyetGki1oEO0UZIKGxSYA2zgWfzSFzeHeR7xc98B8TyJb1Scb5FH2ScUoCi4msOkMroovniczyIdIcHFUaYDwhY8mHghXo/wOczrZXmnR+sQ5VcQPIVHaH2uBGAhmEgFVRcS1sHwYpAWfVrIhSxrT2ck8gLbYOM+o2lMhB1mZkcvfbnTJhrefcYEtPFCZqJwzu3m29RYs17K6jbnHv6PdFjaGeUJu78W1gr+PHJ2TUi6180fIdJUxUq68mPCWMur+FyS6qWbF7Hcox7R237KOC4Cyyhs1p1fVMCZVCU89uYXhO1dkd/TdnbXQMBntXZ81QLTM6kdlWbOySq0wFj5dS104zo8eaplpFCee7Kf38/vGZwlk6nvxSb/1EbjSdtRRZQK0j1q/jEwTbtsaajCdlXYpKj4iNvuVq1vF0NlGmxkNC48S4Q50cdMRrPVrEa/xUmO+2Vs/jL9bII+u263gqXq2os1SO8vrQehb2ZKt6ObZF0dSTc1qwePWq/NCxWeyuWnOx6PPo267WZIHP3wcYam3TfO8ciOMp6fAXGUKhE5ipTt3E5mFGd9kDPQ3rRfTqBl71sEah6tECycN9Y8G9z5NjZ7V6iZ9NYUvDlyI6Y/sQWQ5rEp9FXs5nb71bmsLU0x2T7ZPM5EuBvnBKP47GHwHE3y6Zj6mXatDKZckAQtN14hlYil72VWT2/Qg5ZIh8irxUeF/J4BFAWvWRnm2E2NaWfmSj21ZX6R0qXulZ484VN/JNLVyXb+AoXOvRHF0AxtjUXhV3WWVwQiR1BHd40So5hX8TLfdZYx4W480jBp2dD5VFO0eIl5rrpHmr992UrstEPuh0h4aLlbW1hWofdNSCY2gtXxcP/FHxUTegoUXuq9umT1glf6HsevfjUX1WW7Nhu+Ivxa2KFW5fu3MASrmenStTscHcVwezAgrdZpzuMlZFld3cxY1V0NZs7kDKABnmUB25bsebzvS73t7avMBKe1UFkGFXhjv1jdj4lqx1dN9xI0vQ3a0yALr2yZGrrRJ5P+7C8cpY5PyV5g3AwutCIyPfGyC7OTx5gu505lt0zhHMLJi0BduRhIfvwwcSvo+0JPtcgzSluw2zuCDq+zy5m+zmu8sdWi4q6Seyhd8wK49UF3xI7HOZ/xV0z27qPwfYD9cvBvz4+vHj2/cKbv+vXySwP719CaF89w8=);lineShape=1;strokeColor=#BA01FF;" vertex="1" parent="SOEZawQHsMuqZ4AcCndQ-1">
          <mxGeometry x="1979.4286962661577" y="873.9484995801006" width="128.5394226852541" height="37.16265474429026" as="geometry" />
        </mxCell>
        <mxCell id="k951agevIATn72oqbPnN-2" value="" style="shape=stencil(rVrbbls3EPwavRK8k/ucpv8RIE4t1LUDx22Tv++wCo/JXWnsAn2zZY6419kLfUofvt1/+np3iv7by/PT73d/nz+/3J/SL6cYz4/3d8/nF/x0Sh9P6cOXp+e7356f/nz8fPn966dxcvz0x9Nf4xu+X3DelTJA0f+4fBBcqP9+8Ovl+MP5cTkenOzHvQvx9vHkSlfHvb99vLiSt+PRtXT7eHNt//bmaiGyexf9rmtymYgTout1lwfWaQRQXFYKdKpwaE52QIquym0ADJjDDqguE4fBhEV2QHeBiBTzNOIC6MQLsbqymzWJ8wxwCLCKRMwaRcdFatSsybuudCiukRtg9Z9hfAAyjaWUXFQ3IJaI4/B9fQ/WFJxnIlUX9htgBk88DZvIHhqvCXId0LWVAEiZAMT13XHwvRCRcnDVACIJjQwj7n4AJ1SiQ87TrwcAn5DQyEVnHEiqEcdlGLFqgBDOyzBr1iIlEktZNI8NABGpBBej0YGYtYAEggZ4IlKBAF0DMlG6WOaDlRjVVwPItJSUNr9vuaEwHWSG2gGILhGRKrhVAWBokqI1zOhfAIXdkOb3LTpEBsgmp0ELJB9qNTkt85PrgD6DealAP4PletENk9wXQCOOa8lwa6A53YrzWesghJdaNSTQJnleB3QXVXgXF1inIa6q0EDwkdDo3jgOwUeoskddFEfwERLoySWltHeVOK7n6aYFwPKhI9SCBrA63dF/mRtYUexI0aqt1AlAwqz7a4NFRJI4e5elX2I5LbDSnkCoGIU4TtD+7EqDbVnGiWl/SneNhLfI7PAmoEZKlQCoFq7y+gBA3z1deQIBILtZW6Q93wDsbWhr3EoGgPj1JLytSIiuzhyHP++OG75nwQez7n6Qg0duOm5P0SEkCz7RvDTu5Df43UrSZl29FXxqgBPet4rpZnqnLdwA7OENaossWrv2A/icTShDh/2GxmlGRJesWmZ03fTDfgMSiPXew9MK8GY+qLEMAOGeVm0odGBj2Qhv0VaizCdTgANQpu9vzNNes3EPdB4YV+xKoGS84Qg1gSNcWVUcZtqZDAmROG2UPTZGynFyTXtCLHb4vxBN2wnUxHpdFKEk2rCNqZ11/MF1kbnu2Esc0cGnGvE6S9FqMpFGM6CKUKFK23YD7XIhrrMNDQCsCNmWCQBWSG1TBgBbz4y2T4mUaNUajaUSiRNHs81AnIa+1RwnJVKgIzXoWvVYoz9h3XTRVQueZg3NGCGUWTudLtuxW1n6k/afxiBoxXaDdtBqfD1jR7nOt5t2WOyFJpAdR5EhmQHMwDtSijC+HamRUpVN+WZohw5sDLJrgc6bMrt4wA2sT7SrDQBY92CXJwCwFLXrGQDY0G4XQJ0TmV0xDQBbxJklFgCs8No1WecpahdxuIHRjF31gTxZn2iXiUgg1hzbdWU/ni/euRAFgE35duUKAGM+u9RtfD1j18ZjbmI7WrOYBtuyzZ1dfaOwRyaSWa4Peiaetut70DPTwT4QoHVlfrBPEFX4q0iePLcAqA5xCrBUoMIeOfzkuWWk9iRaQ9Oersfr2XVA0TcMembvX1GnKKiN5UPwM5iXXQhjjabbJeRsYntpzayvCXU99PRzIs4zjjGvlePdiMhvHkORr2xNbh/jeMfq5+xynM9vfH8wb0aV5IHXfRUyidURr+fiyIutmffwCetIzPlQ6X7cyIOQZdxl9O308dSY83hvfqe36NO4CYYw10XvizX+8P7mcfzw+sb/5fzwcPkXgfXv+n8C8NHl/wnSx38A);lineShape=1;strokeColor=#BA01FF;" vertex="1" parent="SOEZawQHsMuqZ4AcCndQ-1">
          <mxGeometry x="1869.7934707352028" y="940.1675817454923" width="182.9995612302107" height="5.771362360873637" as="geometry" />
        </mxCell>
        <mxCell id="k951agevIATn72oqbPnN-3" value="" style="shape=stencil(lVjbclshDPwav2q4CATPafofmYnTeJrGGce9/X116oEedMy6eXNOVoCEdiWxi3fvzw9v+11w7+fT8ev+5+Hx/LyLn3YhHF6f96fDWX/t4v0u3j0dT/svp+P318fL328PC3L59e34Y1nh18XOUY2LUXC/Lx+8p8R/v3y+4F8Oryt8IHYDPkRKaY5nijzgYyYuc3wmCQOeC9U6x1eSMuBToeTmeB8p+MEgByoBGAj5ZA0q8Dh4KjIaeApghyDkxh1Sj8JVgxgojTtwJQeCFAs5E1VHHkSJNUrjtQUNK9hBb8nnMY+Eqp8bpEB5vLhKCeEzlTq6QA7gs2vb9wNRFoBnyuP6rn24ji8UxeADyGvxVNngPTi/JIrR4B3gpRQSb/Fg/RLIFYsHGVH0PJv1Eb4QG2FpAbjO486RzhrKGeAjZXO/TAxIU5NNONUypFxVKI4nusGBWimOKRQxLdUgG1r69mVmUEanOcMsUgOTdanf+3W1c/1aV4Ja8ZnqGNecGlWnTozMkQCpowYyHkmEGHvN45GKI0FXXSmMyVo81Pjai9Jqh4J8UHpm60PGO6Rqo5SR08U6nTMFoHiLgSk7tXF8eqQx+zSZGPuQx7BqusKLK60UrwhRIrw4UzqVch45rS6OuaS1UfAOadxBSydqkJZsNQbcpHBKIENq/YJ9MMmnxfGGMBmDrOoJxHt7JNHqhtS4btI7YT5oWI1Bl4XpxY2poRQt2Acn1oBxlD5oIE3de1gF9gxagnjTrAaUGpHYNHraZyEx9rZZ1WxFIrCUacOHBGVm2wfE2ArrfzYaiwGI0raTUQP5UKu0GABdki7uKwMkM0uzZ3zg1lHPuklTstSAAYHyZg7Te2BwcUp564NAH1SrDUW1yY9gB021YOqDMg6NetHOejopoZ5bpdebws6wPujgYwpKwbkUNhRVhqDRahnejIHOYkDut+Oh6ohHHVbcTEoOt9K1NQqrIxWUS5vup8AJN9oGTrAq+dYP9mvm5tJVvLPn4a60E7yhMwskmyrcmEWMR0Nnc4L7CjP8hpoFr2+472GT3ge1PmdkioBnztapgJskd2U0R5WzD7KryQo9qbjNpBdu+Gs6W+/aI84EL5YwsN356JPWbbz++Pd+9nR4ebk8v63/b9/b9NPlrS7e/wE=);lineShape=1;strokeColor=#BA01FF;" vertex="1" parent="SOEZawQHsMuqZ4AcCndQ-1">
          <mxGeometry x="1929.7810483597668" y="1005.8963916591442" width="143.29262117868046" height="5.121226516373632" as="geometry" />
        </mxCell>
        <mxCell id="k951agevIATn72oqbPnN-4" value="" style="shape=stencil(lVrJbhw3FPyauRLcl7Pj/IcBy9EgimTIcpa/TxEDtpvF6WrpJssskW+rV3zsS/j04/HL94eLtz/eXl/+fPjn+vXt8RJ+u3h/fX58eL2+4adL+HwJn769vD788fry8/nr7d/fv/SV/ae/Xv7uf+HfG84abzvI2/9uv/DZlNtvfr+tf7o+T+trmta7aGI9Xu+N9dP6bII7Xh5MmpcH4/zx8mTCfBpvglheTLT010M+Xt5MDnR2H46XO2favL6ZKk4Dz4U2+zKYXAQgmxpnQDFZ7dCMm3dA/KKw2DsT3Qzwpgqbf3lwA0TTVD4k4+oMSKaJjIDT6+zVkxTydTlSNkmkdA/TUgMySZ2xZAPyVrg1eOPnI7lqchMAuLXMAG+asCFETm2UsTLhg5UTMltgjVXnKZx5VqZFqMbN54+mqPM0Y8lBYCaxQbQcMxSHsjiuQS7GC5dGP6hqY5ckySuGxWYEOQpAZDKNTSYqAG3eISXj1Q7JlLnYEkhQAVBacxyyH5l4HwAOnhMjI9JqhzoYawMkU5XRzSSibRxSAJJlozMiLXg4uZHLO0BLAhC4enIdh7wPiCZFBjRBGIhrmes5t5G/9wGg1bLsIOKQyh2AIr1UTakMkEdCqll2axJuzSjRuVsh0qq9ITcteQk9WBwph8Fyu3oIwkv4e372EtIxChJAMts5NUALRRmduFuBOxXz9eyfd+jkL9IbXqfmE06OVFkUokOqmi52adGbVfcBbiivnS4JCgAypo7bpK4tIOM5l3qLVjaEUfI7gBM1XdLS04vM1pJHC9zvIOJQFm7tRotIlzqSeXPrSeC2frOTe1bYUC1rXEQ6CSKrjhsK2q5K7+qHiVvyWanqKwJH9RD0DomVANRNFnGo2djZaIiJIFKjFuYlNGIrWlYtnHy9r4pI14WMOy+pHRrHAV3PidRoEHgE0NzaQMakNSAyhVsBoLaLrqeaYgMZewYo2d3SiOseILzUELjIAHXXaHU4cQewInCt8QUdblVUCUBcbFDpDUAmtzaZfABUUjNhNIAjAKUGxIm68zlrue+CDJUU6FvMfkWZn/i1zkzWS0TlRhuZsN3ut5ZxBCC+R3olHQhqQQAoSYZkokAg450aaGwtbQNYyQIAUEfpZKi8VPkeih6jWtAdgD/dgS4Q0L4fMjrbUSLvdGvSM7E1cKjRJkTfmhr9XnZSo7RDkZJsTe+uffUOVECQgYpn7tVolDfqlQagDpqK3EI0vVHqHYjKmht/4p1kiQqSLWWh45Y/yN9ngKVDgAUkMS09CAA51ly6XNNTgbWPAqCkbu/Uhd2qFBPCRNkHcpXiwS70jdgr1YdIz2qj6hqtC21AaUqJVfhiBrWsZqeQiXRt6opfaeNtUrrjSjUK6SbSZKPJAkLTpAlzJ1dltB/MuNMCigS6vl+ISc2w+g2C7uxuVPnRHYUqrgPEDuhQlN5oEKqNIkyZdGUeCX949VuUq5r/9MvlAoj6NupWbawvyIHUd5H6HlfwSD2rjew6uuTzOGfLrvtjhLYMjIo0uk+s5v6APeWwZbs/bwAnlWvOTDNlG+UdTWdoWtnzV3gpx3Ej2SkspY3hRD8DQMbSrd44IuOmActYbdfr3zm5QxdT5LrOBgEIar65TB/R9lR+r/NNAJI60jJBbUWOydYZLQBKV65TYACqMnqZM595yfLE6CQOfVZOV4420utwGr8AlFyPhekbR1ITo5h5YtQ09cW0aDinHwgijzbQieUOgWsUPUYJ1+j5RaGcvOy4hfqSlOtxebNAhSgNFxrbgNirYWKoPFfDIZ1+8qs0JouSXPsb4ZxLwcpvCULmnuWrNnobxuwAquJwYiKy4PSRAj824ZBR8H3wLAX6Q6Mo0eD4PoD8Vffd9TkbJaV4aX0wB0A9XK5P8qjBs0f/wgA1XPebiNwbrXZwfKPuNSiMdo2lAEpKTZjcps13U2Clf/rnHfQqEuWbhXMjN3f1oLK1jUn6blSu2L7cmcXLHsqpisCrwWBgWdzLU5zfj3HvZq+Xj2uOz4P6Vs+udnwCsc9rUTmWhyx9qC78aZldom5ty1tIXy/8aVnp4TzKn5a/uYh6fmiZf/sHBnI9v1I4OU63rCP7Vxv67xP5Zknvlj+HABsrorP81NrrS1Sw5Q86vH61//i3dGfr8cOvD/e+XZ+ebt/97f+fP/TDr24fCYbP/wM=);lineShape=1;strokeColor=#BA01FF;" vertex="1" parent="SOEZawQHsMuqZ4AcCndQ-1">
          <mxGeometry x="1849.0699709915389" y="1038.7105390040626" width="226.80132744238077" height="8.840810752670787" as="geometry" />
        </mxCell>
        <mxCell id="k951agevIATn72oqbPnN-5" value="" style="shape=stencil(rVnJblw3EPyauRLcl7Pj/IcBy5EQRTJkOYn/3sUM+DKsnikpQG6zdL3H3qubp/Th2/2nr3en6L+9vjz/fvfXw+fX+1P65RTjw9P93cvDKz6d0sdT+vDl+eXut5fn70+fz9+/fpqS89Mfz3/OJ/x9xnlX2gRF/2P94P0/P/x6Fn98eLoQT84HEq/ltnhxNW7iwYV4W7y7kkk819viIbjK8i0I+exaJfk+hHxzrW/ycal/VX4aY5B8UPLJJX5+6EK+uF5JPiYh3130LC/smbxLRl7YJ+Fvtv8Q+qbsfOFwUPLFtV0ewSnsk5rLnZ6fVTAPF/doTq4JfbN3Y/dvlfrmuP4+zuNdbwKQVzwegOK88FiuBjBkSOTOR5pBKGxUcGICVNcUILpKQdRWFbgOyOvEFwClQzFVBUdSRavU5dYDkFekXAegEHk2axZ1rnqXKRMQ2lkAApeW5opwdE0uJ5JXKteyMnfJd5nKFSan1PSy1tXBtQIaNxHbLbhEJkoymxsCMzBAvqEsk18AqtChmbgIcUX7dUB3YbDSWbi5wUp7xR6uC507KjC7LQmVe2SjokWI8/S0CuKSz26IuO6ZkzmvzLguX9xIJJ/V+RufR1fUjvJFHRwERigwPOcNSIBKzAFKQJQFmSnK10gu7AwKXaqLVB6Za0U8+uJ1AOod0QRdIAe6wm5VdHZFLIZJ5lQlkwKAaCN6YxWOBoBSLcP1oiABMCiyqyzBwR/M9YilKhvPfMUeTCgIQwP6fqZeXdR2rXv0IVqafkPa7Tq6pMAAeKI8XjN4PJA8MY6qdgtQjBJRBQdq1g5AWSjKTJ15GByhiOE88a41+l174w17e5skQsUrzL4faVItlaSdXY2MiKrQGCaGnCsqqwezeQCC8vRgOgzCq3r6TFLSQbeHmUH7kUqSNGMCiEEf5fOdANCCosw6mBGj5yVt1rb7AS2gaCtl6ukoxzqpKVrnIVVS90USLgDhfwVUnpzRKKuyUllt9qL0qXKMLkfsDVxFmjXxcAi2VVV4B3Zcyyscb3EBqkuTkyp20te0dkTrG3SsMR1DC1J+sHypZtkWLSGrbzAsw/gA8CJaLaWcKSpCw3JWTEPKcZYUF9QlobSl3aXJUmmJPciDKjN2dEB/UJ62wwkAipPZ8QeAoSY+w8mgdFIAM8LBrEkNrYV1wFSqHDeHUMoHTabxvGEomSLTiJxCjR2lUu0COucDPDPEkewuoEW5k5lEgcqMXmLOfUZkHZQfSmQyDVcqclI87zFrkVNQ7ou7XHhamXWSHYrWLmfvubnaC1nRk2iOfCRQB8Vb5/KN3uDl2ASyE/Y3QCtFQ+f6cFc6J+lpu5/MXnINuwDFIZPagJoNa+pyALcrXACUDnZHPAHCrHYJnbreWpstNwBybW3W6ACoHaXd0wOgFr/2IiB12VDsTQMAakA2NxmQV0zarDTnblqt3vkeBvJNNAdzzYNIzeL8Zm2C53cRRlfDTnjAc0dHLqnM8etph3xYS5Eb8t7slFU/N7uDGJfH3yc/Y1A/n9ZQ8KB8Punb12j2PnMWuVq9cs+jqpAJBkSTiM3/eKX4pjg+/Ht7+eXh8fF8+Xn5P9924qfzTWn6+BM=);lineShape=1;strokeColor=#BA01FF;" vertex="1" parent="SOEZawQHsMuqZ4AcCndQ-1">
          <mxGeometry x="2009.824291762322" y="971.9895954147639" width="170.32793115526962" height="4.829899322130586" as="geometry" />
        </mxCell>
        <mxCell id="k951agevIATn72oqbPnN-6" value="" style="shape=stencil(lZzZkhzHDUW/Zl4rcl+eZfk/FCHKZJgWFRTl5e+N9Dh7pi66TlFvIwrozhUX9wLZL/mH3z/+9NuHlxR+//b1y98//OvTz98+vuS/vKT06dePH75++mZ/veQfX/IPv3z5+uFvX7/88evPr//920/Lcv31jy//XJ/w71e/dPS+nFL4z+s/1KPk//3DX1/NP3/69Ww+TubjiI3MRz6Zx3CMTvaznu3zkea1fT7CPNvX/QkX9uk82ziOlsi+nKeb4lHRvol92Qt2YT/P67PWM1zblyOFk3228USyl/HnckzYLxttOdvbeGD9i+5XiUeC41N1v4rNCMZfj3jer9KOifb//7SH/cTjbPbn+dZ4NLTP6WxvI8TxVLHvxyxkP872LR4D1t9O+3l9WtkjfGrfjiif344K56Ht1dv2PRwJznM7+nn9u0UAWJ9+hPP4u60w2pfz+ekdx2+n93w+R9g39MJ+nMc/Msa3qesz7AaBvYW/JA7tyHDho90nmUE/MkS4mI6Q1GGQg8VQmfM4Es2huCGNo9Mc7FSfo9aYeEqjbWpXBwqjcR71fI9nYFyKGqjNocBFW5G6qgMNKT329eEQjwD7YGdPYq850NGw0J+SOlQCv7y36Z1Dg1XKTeHGHAaER0MLuf8z4T4suGjqQBe02BzOEWAaRhNiWsiTnbYQCSG4jKPIHCpjWjiqrFJjUEhH6eowYJWqwbjsdMe0qNrhG+rQaEjDnda+j+PzQB/c0eh7Z547pJ3YvHMYBFXlCN4B9qHVDa3f69A3tn6vw9zb9N4BVqlHxfO1SoRv2QUBi4UwJMPL6uZAGZUBpkDWOnz0DVNzKnMo8A0GsVMmbTsDR2OkHYXeOSBKF0XRyaxl2OdVdaA8xlBZj4alrvQNfeel78IMMYuFmVUdAjgY3gSZdMJcYwGUzCFiJrDgw4EiXVEbQM7qgHPI+zC/Sx0on7c1qeejMTgu2TZlSU4sFtIqtQ1Q71M42Ol1XeQbEmYCdiGFNNgN6bRKFlTO+9DHztGeOwwNxv1BbK4cZJUsUtUbh/NZsuBZAXbNIZ4DWXukjVeTLud9MOpDVNj2QXK+NxC7OhpC/o28EXleicJ5SPXmiuYdVB4OCcPMW3b0cOCs0u7XPH9DmRjuLXEWBCqWCcBO24Vs5yta6hYpriJfdpw+gsZjFzLKNyRM4exCzvPxLgFZupG2fv6GPHcWeIlA51XKnAmMqLBruTJClo1YlJuKgcxgt4kUU1A6sxjRndZDp3UFFRlSRrGnNyVNS32CjVvJyTnMGGHGfKk4h7EVgqt8aZxXyXhXoyEZ2z3fuFS2JvLcIamEs7gjOcSNyg+NcWJsNQcJlZHDfXe591I9ScWZSgeMwxMta2MHxoeD3RDK7l30XsIFbFxrug8TMdGS+yRJ5T69V+xB8wBkTC07ZYn5T9IJ9z2h5/ZRaWhDkaVOjUgVeUDtOzg8YuQOmlcMUZRAZsWLgp7nm1HYM+ATEpBR2KtRsTZhADbYEy0joX5jqDf181EFcLJBwvNsmJe72tP4fVhBHDfEE8BJOwhcKTFN14diu8GXZOY39sWPH+2Tcosb++D3lxB8KbduPCzPSRaf8Hyuyoiuf6HPT8o4WddKQSXPhMK/QYRbz0kKadP1yZgcGKKIyJuR/8as4kvG82944sZDufgbnLzZI3HU5SxYJ+i6uxVvV/VFUyLWTjBvyM6S5vgNQ1vUGmvbR++pedAUq6NYGTS777uEd2EuBbW2ceDCXOtRmNiHI+inE6cMmuA+ChFX5gq5VGkxc6FiWNoLO969mZMiG1RaKciRgqYvXAcMSi7K3uYL865TpSQ7qHhWkEEGheaK0OwocEXhOWjhpmFgCppHNcz2g+q1XJ92LLDvQ3S1q0XM+a6mqYPBlYm6MpTyBs3YH0WGK/MzheDOjCfmRC3DrqW9mRNPdFMtKMMH1XHs8uHYi97VjEfsT5lHrUkXjMBJgbjgmSmuwwLzguokAKbbmzW+y1JIW1WSkTC+R0equDsnumanyElQVlE/YIj3SRN3O/mkLHCpfmhWw/r8wvoi9iRtrxw1iz2t57pFOh5CndQ0VQlb+vjOpD6gMOJJw429IyU39o703Ng7UnVj70gb23tSGFAU8aTzxr6obnRj3zTHuRl/VygP2CKxSL/eL5KxalT8fADqc3vXChNQhKhF71dk2uD6KbhhozrRIu7K0JVo1JV0EsluceeU3yeitOQ/nzC9uWaNvDsfrkQ7bT9EUttcWbfsC3ElOlbNGigXXKqm2uN4hjY6cdfFk34CFC26S05jxADa4/7+dzouFvuT8rfV7UVDSlqrjI+exCsBXjAsdjxE3bHnGxQ2B23CTXhtVs+haC9lH/TnDk1bIhZFJ4eu6sWSo8lhOLn1wX2fO0xNhXLAmsBw5Dhzq+lwRCrzso6ozak585CyEvD8UP2fOxStJGZma8P1767+ZqrzNe0/yBN179G1IFXi3srnDlP7okrG/H46lmcwTYLPjHqWDKeJdU7Xj2NATXF7Zkf4Bza0rWYaqd0HFCDeOuoeDhGFJXOQw1czFlBWg9z5LN20ds+hyY7BO9XIpmvwrIN7KKY2R7aA+GYOTcSLhFUgcxCCs+ps2L/swoaBGGHc+goRELmHdDmI6FE2e79yEFbRb1p+XG3Nwu3NumpPdWT1eTzpC8f+GidAW+TBnev6kmIMFAh9n9NNi/Ss2ps/I4Y+iwKy05NrGNO9DppcVHzrX3s43CxrcN9w0yj4qEI/HLhOu/rXqjpQB88YyjFWwyZ1vzR9IzT7bbNjVwei8aud0jtww6a2eXMf7Mod5GgMvNOr6bSrQ6W0sutLJ3OgXN2SPpHA7ZZnTlylr2NOfPbQXWFmRSqiD44OvAu3VwRFgPfWo+ppuvXw13qirPyk03sybXKlkeVAvH6oPrscmHhnt9kdNru61r85MY2rSTnEAg1qeHCFtcnPbiylyu7SUc70luW9C02Ub6y3Fe7lA8WB9XrDNT3TCV8CV1cHKiLkZ683SOg3iiGK84IlCH7GevTwZRRh1zudpA70imYVnLo6YO9Adg303DyzOtKqOhC2r460oA5Y3u/aEDZZyY/VvTVi5SEWLdGs9vabDoKiDtTZGuOTIdHhi67saQkIJmUuygSs7Ayt8VpyQPp5112z3IBiTFPEWq8Z0V6KagbD9MLAvT3p3ARX9dmGYSqtZ3lCHRK+Rpa7b/hI6+/k21ZRZCnP+Bg1hemLDcMhwjX3xnBxVn497prBieNm5cSF68mup6fwm5asCU+5eS7oWpz5NUhWyFw91Pj5AoCZ2/FdeXAVoAgK3K8DVJQBk1My000jkJwfi9v4WFjpUWRZMiqSxcwPeZU3x5v6qcYH/rGIqNUv5mpuNPxCK2rqwapZ1FIHN9S4pS8YCaPe3HzzsxiifmXMXt05uzPXa3UzGCki8lTd0wpeyKQgzdvkKlJ8CP78r52wuf3x9sMqv3z6/Pn1d1ne/3/9IRb7p9cfcck//hc=);lineShape=1;strokeColor=#BA01FF;" vertex="1" parent="SOEZawQHsMuqZ4AcCndQ-1">
          <mxGeometry x="1941.6876153381158" y="1048.6418648602314" width="227.4706035300532" height="79.66819390419789" as="geometry" />
        </mxCell>
        <mxCell id="k951agevIATn72oqbPnN-7" value="" style="shape=stencil(rVjLbttADPwaXYnd5T7PafofAeLURl07cNzX35eqsK6XtCYO0Jssk9KSMxySmvjhbfv0upmCezufjl83P3fP5+3En6YQdoft5rQ7y9XEjxM/vBxPmy+n4/fD8/L79Wm2nK++HX/MT/i1+AVyPDsF93u5ET1V9/fO58V+vztc2Ueqyt5Rzuv2lUoY7LkS87q9ZypxdMhUG3AoFMroUMgDh+ApenOkAByyfoPEnNK6A3vK4xsiU/DAQU48Bh0TMUIhUHajg2QJxBCLxkHucFl3SIG4agcXgYNkKegYCsAhNY1DjBQAlTIb7nkKAIdcKI1ZEqQrwKE4aoqtgTxykBOPbwhMDRypCFvHGIIjB7JU5e88OPh3Co7JqaCpIfvck345USfjbfumk+phQTch0vh8fP6WNQauB3TbvlBz+vwAslY7K7t9hbXZhKZj9YviwABa16vLgeQRFSiYcxoyqe+Ictp0DCmRB7QTByVhORPjLKWxOIXqBdBCYEijXhQhCsZZOQjVUfm3RHkkRslUQF5b1FnKFyzXHLxKayOPuCeKpDqDHAnFYBxY+h1C2hxpLjegFzZo78mBzmDTyr1V3ImbwPYhYojIInvDPGkjCDRDbX8R5TuLR97AALQb9Sl9xCHmGQlIvs9Zd4pMDlRRQddO/UsxBDgxWJkslSJyMDos9Zn+q0PoE8iVZKCg59bjtQPinvQ2Zh10QW8IlIJ+A+o+8jyV1lqgxoiMNtV+GlSxIuPq6CAljkaMeeoZs9QwW+1cNWsCGvXM5CZQZkBvOxs2D4XVTp8VU8POtzNZgIzZCbpJlQPg7IwuMSSgxHYLEPXPAAe7Z0hJMcDBbjKzeIIY7K40iyHAwW5jV2J43743HwmIq9knJeYAqGT2VeEqmp8FI4VahMue76VyRW209sgwO2a0VtifHXEa7bn3xxV7rwSpwHXYtCrRDzStGvucYP7NeVLtgnZfvInh4GnyGStsIgYvWSKRUBg+iBCgkvno95H37eXi38eYl91+v3zLuf5ff7yRW8uHH378Aw==);lineShape=1;strokeColor=#BA01FF;" vertex="1" parent="SOEZawQHsMuqZ4AcCndQ-1">
          <mxGeometry x="1706.0507089276743" y="1142.720696661791" width="63.78008166166433" height="4.891923670082116" as="geometry" />
        </mxCell>
        <mxCell id="k951agevIATn72oqbPnN-8" value="" style="shape=stencil(lVvZctw2EPwavaIwuPHsOP/hKsuRKorkkpXr7zOIClyih2xab9IumsQAc/Q0sHfx04+HL9/v74L/8fb68vv9349f3x7u4i93ITw+P9y/Pr7pX3fx81389O3l9f6315c/n7++///9yxg5/vrj5a/xhH/ecSIuykAF/+/7J827GP//5Nd3wNPj8x4QXbGARgDFSUdA8ATQEVC76wQQgosZATkRQHalIEAyAbQ5gQ2gn/RzQJQjAFnWmFw1U0rE6FjnNu2WVRhA1yQgoMk5IIkLbQWIS2RZUzBvEJeJ0SlNR9gBeiEA9aV1lVpwlU2purK6RosuMKO7K+CtyUUypRycB6MzXdacTABV5xmgonu3RkO0eOcBoL4UCEAXcQV07xKZUsnofF3oKpWK7t0DNbqqDQYQSMTV4KQhgK1SVedLH3pDmZ6zAySSNTTkfUVAJSGqId/MG3o9B9wCcgOoe5Mpabh0MQCSvdX7QzUAsnHq/TkigOWlduQajfiSOnMFo4UC9OsMWaPTvDRmvBrdCnXvrjENgECzd9dEtmaNWmfyPAZUjGl1eDql6tI6pVKoaygAVil3F0luHYB1p7PQwq6AuOZWzeedvaG4ugK0iLEQ7dn1dVljnHnkdONWo0OdufAYYFKlso9GQlSdr6yrFPx85zFA6dS6cdJcYwGkX6+rJNUF4kvqzH21QfLc+7MkAIVdWWAjG6d5qa5GS5jZ9ixVwj6Ip4W9Zpcga7jIUuuW27cIpYyvKCFcLaiU5WpFhDUtlIJqyW3r+M11j0mAJr0K41mCyWVu0BZr/PkJSbcSUkZKZH59G1/I85VXJZxPYTzM0Ns0idnx+OwEn1/ZfDQveBzPmKefMbgbT8I+NgyZRP05mi6J26t5DYhtmh8cj9f5tw+sv7p7qzA+k/nclmM3nqxPkMmEduPJ+msOtM8n9oopsGnWkrO2Fvw5zwRwPF6wT8gzCx+P98gFtaAz3uUq9F40pVekpvq+wtIDUihJs+ocuz9aO2oSmU+cwbcVPR4uSktXc7WBZu6s7MoQA2Hu6cJaLVKl4R5w+XOebzyxN67ePLgTSydYH7V+sHAsyMK1P2Kso2KPqd1OZtRsFsMdHWX+pu6VoDz2yXPO4gu6rbY1zqc6U0QAyygK6MDyIy3BYkqe8pzGckoyHIK3BQMAjXilSpYCPIR9n/rcadpapzQ6d2ZDnErArnmiapwplApITO/TbWrmDWyVAqpAagOtBUZcG/oGM1owHSlnZm3ByO7gS4V2jOMNsNOZu7cceGvhy4pqXKB9hAJsT0qN3vr0vRrHfSkLvuFCO27GaGFGJ2ThQ41jZdbIFUONu4hpWNZ69QYxahxTH0ZeMu4tPKYzqHEyY/B044wgwoRadQ2IhyHfMaM/CujYh2uEMhMasi+NN7ao1SjNiTqSke6GcsbaD6z/Wg+F0X1k1zVRWU2T6rpjVagcGrBUlUrnL1iptN9kSouyxXU+uVF66lFszYGGmTfdVqWZwmMdTGHy+ZPxEPZxE81PxkMiUo9l9go+Xz2E8V9BIVffyA42AtIp2fS+M38DBYf7T0b2pY9nJwjIvbgY0Ca33Kyd4XCSHGDygRcBmZ3nZizd28Ec183V3WZVqTjfYTwlOKYV9ZQr21bXUwXdttL8vNS26p6up5UC/DxV+0mpwdNYtFKGp7FlpRJPndNKMZ7WFiv1eBorQ0pCexlvslIVr+9pI6s/5w/ZsFdPa0tO0x1v41m85IIExVOuq61tQ3tZbivmzEn4aWSZ238bT5/fsX8IlEnXMEvnViz4uV/GZjpxLabh+mS6/oNlgxgwq8GZGo/khLK9QWiBLFHuNpoplNaZ1KZUEOJdM7awYx3DJm/qwDEgGY/I/JQmGz2szV7lGFCmur/5kNCS1ysyrFFj+eFXB0CbItAxoE25Y3PTwDWcjqukmfgCAIkoyeSlZwDocjVXsnMgBYBrZ091N/GGKQ7ljZGJPontFj2R71yfzG0DNFoPFAAHozXQBKwA6MfqxUZUo/ZGfhpcUE0e/RU7hdSUZU7lmZrWzZ0qfefFOSe+ofHjY3vDo9OewF4U2HnLMSKjQDE8mKxrM4Jd57mvmWO8KyMEk/EIW3YRppvWu838fFZ+ULCr9OpZNZeqxt0Bdq/FOlOdFPqs4uIbClWWxu2fgAB2fqDtMIhdCmARVEyFGHcH+IEttMgKYDQ4Gw1Eg5AdUeeKdVRjlBEBJXqQv8eFJGKDMslmtFxGlSxV1ahlCT+ZWyf9gjxnDKBBP9hJVMSScqHlJkP3hrbEjBajg27HL8cNzHZTcyc6sqs2sZpzgcQveyajj0WayMb9UwNgNowbrgEB7GxjHCF6BLBUOW7pdgSwO7TSMc2MVSJGayMfAgKoSmPvMl+e+uJt6XylXaBanLn4K5i91QZ6ZOSx+2/85F08ltGWuNF+5ojdxrHDygEwl26ZmnUACLTGHUxJro7f0Wjht9btsnpaHw42zvNVsq7haRL4+FX9a4D+cftlwLfHp6f3Hxbsv8dfEuhH779CiJ//Aw==);lineShape=1;strokeColor=#BA01FF;" vertex="1" parent="SOEZawQHsMuqZ4AcCndQ-1">
          <mxGeometry x="2068.0081939093116" y="1147.1757045816992" width="146.60901142926127" height="40.33155278419678" as="geometry" />
        </mxCell>
      </root>
    </mxGraphModel>
  </diagram>
</mxfile>
